OpenSansCondensed-Condensed.ufo
<glyph name="exclam" format="2">
  <advance width="485.6666666666667"/>
  <unicode hex="0021"/>
  <note>
exclam
</note>
  <outline>
    <contour>
      <point x="187.2" y="401.5333333333333" type="line"/>
      <point x="297.0333333333333" y="401.5333333333333" type="line"/>
      <point x="337.4" y="1462.0" type="line"/>
      <point x="147.53333333333333" y="1462.0" type="line"/>
    </contour>
    <contour>
      <point x="242.03333333333333" y="-19.733333333333334" type="curve" smooth="yes"/>
      <point x="305.56666666666666" y="-19.733333333333334"/>
      <point x="349.43333333333334" y="20.533333333333335"/>
      <point x="349.43333333333334" y="105.63333333333334" type="curve" smooth="yes"/>
      <point x="349.43333333333334" y="193.50000000000003"/>
      <point x="307.2" y="231.53333333333336"/>
      <point x="242.03333333333333" y="231.53333333333336" type="curve" smooth="yes"/>
      <point x="170.9" y="231.53333333333336"/>
      <point x="135.10000000000002" y="187.60000000000002"/>
      <point x="135.10000000000002" y="105.63333333333334" type="curve" smooth="yes"/>
      <point x="135.10000000000002" y="23.900000000000002"/>
      <point x="171.13333333333333" y="-19.733333333333334"/>
    </contour>
  </outline>
</glyph>
<glyph name="percent" format="2">
  <advance width="1323.3333333333333"/>
  <unicode hex="0025"/>
  <note>
percent
</note>
  <outline>
    <contour>
      <point x="339.0" y="0.0" type="line"/>
      <point x="466.3333333333333" y="0.0" type="line"/>
      <point x="984.3333333333334" y="1462.0" type="line"/>
      <point x="856.0" y="1462.0" type="line"/>
    </contour>
    <contour>
      <point x="315.0" y="565.0" type="curve" smooth="yes"/>
      <point x="492.6666666666667" y="565.0"/>
      <point x="549.3333333333334" y="789.3333333333334"/>
      <point x="549.3333333333334" y="1025.6666666666667" type="curve" smooth="yes"/>
      <point x="549.3333333333334" y="1263.3333333333333"/>
      <point x="500.33333333333337" y="1483.0"/>
      <point x="313.3333333333333" y="1483.0" type="curve" smooth="yes"/>
      <point x="132.0" y="1483.0"/>
      <point x="83.66666666666666" y="1263.0"/>
      <point x="83.66666666666666" y="1025.6666666666667" type="curve" smooth="yes"/>
      <point x="83.66666666666666" y="789.6666666666667"/>
      <point x="131.66666666666666" y="565.0"/>
    </contour>
    <contour>
      <point x="316.3333333333333" y="685.3333333333334" type="curve" smooth="yes"/>
      <point x="280.6666666666667" y="685.3333333333334"/>
      <point x="253.66666666666669" y="712.6666666666667"/>
      <point x="238.00000000000003" y="770.0" type="curve" smooth="yes"/>
      <point x="222.66666666666666" y="826.0"/>
      <point x="215.00000000000003" y="910.6666666666666"/>
      <point x="215.00000000000003" y="1026.6666666666667" type="curve" smooth="yes"/>
      <point x="215.00000000000003" y="1138.3333333333333"/>
      <point x="221.66666666666666" y="1225.0"/>
      <point x="237.66666666666666" y="1283.6666666666667" type="curve" smooth="yes"/>
      <point x="252.99999999999997" y="1338.3333333333335"/>
      <point x="278.0" y="1366.6666666666667"/>
      <point x="313.3333333333333" y="1366.6666666666667" type="curve" smooth="yes"/>
      <point x="349.66666666666663" y="1366.6666666666667"/>
      <point x="377.33333333333337" y="1336.6666666666667"/>
      <point x="395.0" y="1276.3333333333335" type="curve" smooth="yes"/>
      <point x="410.33333333333337" y="1220.3333333333335"/>
      <point x="418.33333333333337" y="1136.0"/>
      <point x="418.33333333333337" y="1026.6666666666667" type="curve" smooth="yes"/>
      <point x="418.33333333333337" y="910.3333333333334"/>
      <point x="410.3333333333333" y="824.6666666666666"/>
      <point x="395.0" y="769.3333333333333" type="curve" smooth="yes"/>
      <point x="378.3333333333333" y="712.3333333333333"/>
      <point x="351.6666666666667" y="685.3333333333334"/>
    </contour>
    <contour>
      <point x="1004.3333333333333" y="-19.333333333333332" type="curve" smooth="yes"/>
      <point x="1185.3333333333333" y="-19.333333333333332"/>
      <point x="1240.0" y="202.33333333333331"/>
      <point x="1240.0" y="441.3333333333333" type="curve" smooth="yes"/>
      <point x="1240.0" y="676.0"/>
      <point x="1190.0" y="897.6666666666667"/>
      <point x="1005.6666666666666" y="897.6666666666667" type="curve" smooth="yes"/>
      <point x="823.3333333333333" y="897.6666666666667"/>
      <point x="775.3333333333334" y="676.0"/>
      <point x="775.3333333333334" y="437.3333333333333" type="curve" smooth="yes"/>
      <point x="775.3333333333334" y="206.0"/>
      <point x="824.6666666666666" y="-19.333333333333332"/>
    </contour>
    <contour>
      <point x="1007.0000000000001" y="100.0" type="curve" smooth="yes"/>
      <point x="970.3333333333334" y="100.0"/>
      <point x="944.3333333333334" y="128.33333333333334"/>
      <point x="929.0000000000001" y="184.66666666666666" type="curve" smooth="yes"/>
      <point x="913.3333333333334" y="240.66666666666666"/>
      <point x="906.3333333333333" y="325.66666666666663"/>
      <point x="906.3333333333333" y="441.0" type="curve" smooth="yes"/>
      <point x="906.3333333333333" y="556.3333333333334"/>
      <point x="913.6666666666667" y="642.3333333333334"/>
      <point x="929.0000000000001" y="698.3333333333334" type="curve" smooth="yes"/>
      <point x="943.6666666666666" y="753.3333333333334"/>
      <point x="969.6666666666666" y="781.0"/>
      <point x="1004.3333333333334" y="781.0" type="curve" smooth="yes"/>
      <point x="1037.3333333333335" y="781.0"/>
      <point x="1062.3333333333333" y="756.0"/>
      <point x="1079.0" y="709.3333333333334" type="curve" smooth="yes"/>
      <point x="1099.0" y="654.3333333333333"/>
      <point x="1109.0" y="564.6666666666666"/>
      <point x="1109.0" y="442.66666666666663" type="curve" smooth="yes"/>
      <point x="1109.0" y="324.6666666666667"/>
      <point x="1101.0" y="239.66666666666669"/>
      <point x="1085.3333333333333" y="183.66666666666669" type="curve" smooth="yes"/>
      <point x="1069.0" y="127.66666666666667"/>
      <point x="1042.6666666666665" y="100.0"/>
    </contour>
  </outline>
</glyph>
<glyph name="ampersand" format="2">
  <advance width="952.6666666666666"/>
  <unicode hex="0026"/>
  <note>
ampersand
</note>
  <outline>
    <contour>
      <point x="373.66666666666663" y="-20.0" type="curve" smooth="yes"/>
      <point x="498.3333333333333" y="-20.0"/>
      <point x="591.6666666666666" y="27.666666666666668"/>
      <point x="686.6666666666666" y="152.66666666666666" type="curve"/>
      <point x="775.6666666666666" y="0.0" type="line"/>
      <point x="947.9999999999999" y="0.0" type="line"/>
      <point x="779.3333333333334" y="263.3333333333333" type="line"/>
      <point x="842.9999999999999" y="374.6666666666667"/>
      <point x="891.6666666666667" y="540.6666666666666"/>
      <point x="900.0" y="686.0" type="curve"/>
      <point x="760.0000000000001" y="686.0" type="line"/>
      <point x="754.6666666666666" y="574.6666666666666"/>
      <point x="733.3333333333334" y="474.6666666666667"/>
      <point x="693.3333333333333" y="394.3333333333333" type="curve"/>
      <point x="468.00000000000006" y="771.3333333333334" type="line"/>
      <point x="605.3333333333334" y="894.3333333333334"/>
      <point x="657.0" y="1012.3333333333333"/>
      <point x="657.0" y="1184.0" type="curve" smooth="yes"/>
      <point x="657.0" y="1371.0"/>
      <point x="565.0" y="1483.0"/>
      <point x="416.3333333333333" y="1483.0" type="curve" smooth="yes"/>
      <point x="266.0" y="1483.0"/>
      <point x="169.66666666666666" y="1369.3333333333335"/>
      <point x="169.66666666666666" y="1183.0" type="curve" smooth="yes"/>
      <point x="169.66666666666666" y="1054.3333333333333"/>
      <point x="191.0" y="969.0"/>
      <point x="290.33333333333337" y="796.6666666666667" type="curve" smooth="yes"/>
      <point x="291.33333333333337" y="794.6666666666666" type="line"/>
      <point x="141.0" y="672.6666666666666"/>
      <point x="63.666666666666664" y="556.6666666666666"/>
      <point x="63.666666666666664" y="365.3333333333333" type="curve" smooth="yes"/>
      <point x="63.666666666666664" y="125.0"/>
      <point x="179.33333333333334" y="-20.0"/>
    </contour>
    <contour>
      <point x="389.66666666666663" y="121.66666666666667" type="curve" smooth="yes"/>
      <point x="284.6666666666667" y="121.66666666666667"/>
      <point x="217.6666666666667" y="213.33333333333334"/>
      <point x="217.6666666666667" y="373.33333333333337" type="curve" smooth="yes"/>
      <point x="217.6666666666667" y="508.3333333333333"/>
      <point x="253.66666666666666" y="592.3333333333334"/>
      <point x="359.99999999999994" y="690.3333333333334" type="curve"/>
      <point x="609.6666666666666" y="271.6666666666667" type="line"/>
      <point x="544.3333333333334" y="170.00000000000003"/>
      <point x="473.33333333333337" y="121.66666666666667"/>
    </contour>
    <contour>
      <point x="400.6666666666667" y="877.6666666666667" type="curve"/>
      <point x="349.6666666666667" y="955.6666666666667"/>
      <point x="315.0" y="1070.6666666666667"/>
      <point x="315.0" y="1172.6666666666667" type="curve" smooth="yes"/>
      <point x="315.0" y="1286.3333333333333"/>
      <point x="352.0" y="1347.6666666666665"/>
      <point x="411.33333333333337" y="1347.6666666666665" type="curve" smooth="yes"/>
      <point x="476.0" y="1347.6666666666665"/>
      <point x="512.3333333333334" y="1291.3333333333333"/>
      <point x="512.3333333333334" y="1173.0" type="curve" smooth="yes"/>
      <point x="512.3333333333334" y="1051.3333333333333"/>
      <point x="486.0" y="957.6666666666666"/>
    </contour>
  </outline>
</glyph>
<glyph name="parenleft" format="2">
  <advance width="598.6666666666666"/>
  <unicode hex="0028"/>
  <note>
parenleft
</note>
  <outline>
    <contour>
      <point x="392.3666666666667" y="-324.0" type="curve"/>
      <point x="522.1666666666666" y="-324.0" type="line"/>
      <point x="352.1333333333333" y="-91.26666666666668"/>
      <point x="248.20000000000005" y="237.13333333333333"/>
      <point x="248.20000000000005" y="563.0" type="curve" smooth="yes"/>
      <point x="248.20000000000005" y="882.8000000000001"/>
      <point x="342.3666666666667" y="1200.5666666666666"/>
      <point x="524.1666666666666" y="1462.0" type="curve"/>
      <point x="392.3666666666667" y="1462.0" type="line"/>
      <point x="202.03333333333333" y="1232.3666666666666"/>
      <point x="93.96666666666667" y="908.8"/>
      <point x="93.96666666666667" y="561.0" type="curve" smooth="yes"/>
      <point x="93.96666666666667" y="215.36666666666667"/>
      <point x="199.5" y="-99.36666666666667"/>
    </contour>
  </outline>
</glyph>
<glyph name="hyphen" format="2">
  <advance width="559.6666666666666"/>
  <unicode hex="002D"/>
  <outline>
    <contour>
      <point x="59.33333333333334" y="478.66666666666663" type="line"/>
      <point x="499.99999999999994" y="478.66666666666663" type="line"/>
      <point x="499.99999999999994" y="624.6666666666666" type="line"/>
      <point x="59.33333333333334" y="624.6666666666666" type="line"/>
    </contour>
  </outline>
</glyph>
<glyph name="slash" format="2">
  <advance width="751.6666666666667"/>
  <unicode hex="002F"/>
  <note>
slash
</note>
  <outline>
    <contour>
      <point x="39.33333333333333" y="0.0" type="line"/>
      <point x="192.13333333333335" y="0.0" type="line"/>
      <point x="721.5999999999999" y="1462.0" type="line"/>
      <point x="572.1666666666667" y="1462.0" type="line"/>
    </contour>
  </outline>
</glyph>
<glyph name="zero" format="2">
  <advance width="862.0"/>
  <unicode hex="0030"/>
  <outline>
    <contour>
      <point x="430.16666666666663" y="-20.0" type="curve" smooth="yes"/>
      <point x="540.2" y="-20.0"/>
      <point x="624.4000000000001" y="35.36666666666667"/>
      <point x="682.6" y="151.4" type="curve" smooth="yes"/>
      <point x="747.0333333333334" y="275.3666666666667"/>
      <point x="777.3" y="470.1333333333333"/>
      <point x="777.3" y="732.3" type="curve" smooth="yes"/>
      <point x="777.3" y="1002.7333333333335"/>
      <point x="746.6333333333333" y="1205.6666666666665"/>
      <point x="678.5999999999999" y="1324.5333333333333" type="curve" smooth="yes"/>
      <point x="622.6333333333333" y="1432.8999999999999"/>
      <point x="537.6666666666667" y="1483.7"/>
      <point x="431.5666666666666" y="1483.7" type="curve" smooth="yes"/>
      <point x="332.23333333333335" y="1483.7"/>
      <point x="254.73333333333332" y="1439.9333333333334"/>
      <point x="198.23333333333332" y="1347.4333333333334" type="curve" smooth="yes"/>
      <point x="120.23333333333333" y="1227.6333333333334"/>
      <point x="83.33333333333333" y="1021.4"/>
      <point x="83.33333333333333" y="732.0666666666666" type="curve" smooth="yes"/>
      <point x="83.33333333333333" y="463.20000000000005"/>
      <point x="110.43333333333334" y="260.93333333333334"/>
      <point x="173.8" y="142.29999999999998" type="curve" smooth="yes"/>
      <point x="228.93333333333334" y="31.766666666666666"/>
      <point x="314.8333333333333" y="-20.0"/>
    </contour>
    <contour>
      <point x="429.9333333333333" y="119.50000000000001" type="curve" smooth="yes"/>
      <point x="363.33333333333337" y="119.50000000000001"/>
      <point x="316.0333333333333" y="167.5"/>
      <point x="286.4" y="265.3666666666667" type="curve" smooth="yes"/>
      <point x="257.0" y="361.76666666666665"/>
      <point x="242.03333333333336" y="517.4333333333334"/>
      <point x="242.03333333333336" y="731.8333333333333" type="curve" smooth="yes"/>
      <point x="242.03333333333336" y="947.0"/>
      <point x="257.0" y="1103.1333333333334"/>
      <point x="286.40000000000003" y="1199.4666666666667" type="curve" smooth="yes"/>
      <point x="316.03333333333336" y="1297.1999999999998"/>
      <point x="364.03333333333336" y="1343.7333333333333"/>
      <point x="429.2333333333333" y="1343.7333333333333" type="curve" smooth="yes"/>
      <point x="486.5666666666667" y="1343.7333333333333"/>
      <point x="530.8333333333333" y="1305.4333333333332"/>
      <point x="560.7666666666667" y="1228.8333333333333" type="curve" smooth="yes"/>
      <point x="599.9666666666666" y="1135.9"/>
      <point x="619.0666666666666" y="974.1"/>
      <point x="619.0666666666666" y="756.8" type="curve" smooth="yes"/>
      <point x="619.0666666666666" y="491.03333333333336"/>
      <point x="598.3666666666667" y="297.4"/>
      <point x="548.4" y="203.83333333333334" type="curve" smooth="yes"/>
      <point x="518.7666666666667" y="146.96666666666667"/>
      <point x="478.8333333333333" y="119.50000000000001"/>
    </contour>
  </outline>
</glyph>
<glyph name="one" format="2">
  <advance width="862.0"/>
  <unicode hex="0031"/>
  <outline>
    <contour>
      <point x="430.9333333333333" y="0.0" type="line"/>
      <point x="584.5666666666667" y="0.0" type="line"/>
      <point x="584.5666666666667" y="1462.0" type="line"/>
      <point x="450.4333333333334" y="1462.0" type="line"/>
      <point x="132.5" y="1168.6333333333334" type="line"/>
      <point x="217.56666666666663" y="1071.5666666666668" type="line"/>
      <point x="278.23333333333335" y="1130.1000000000001"/>
      <point x="319.7" y="1171.1333333333332"/>
      <point x="358.6666666666667" y="1208.4333333333334" type="curve" smooth="yes"/>
      <point x="400.3333333333333" y="1250.5666666666668"/>
      <point x="426.79999999999995" y="1279.0333333333333"/>
      <point x="441.03333333333336" y="1298.7333333333333" type="curve"/>
      <point x="434.6333333333334" y="1190.9666666666667"/>
      <point x="430.9333333333333" y="1091.5333333333333"/>
      <point x="430.9333333333333" y="1002.4333333333333" type="curve" smooth="yes"/>
    </contour>
  </outline>
</glyph>
<glyph name="two" format="2">
  <advance width="862.0"/>
  <unicode hex="0032"/>
  <outline>
    <contour>
      <point x="74.0" y="0.0" type="line"/>
      <point x="772.1666666666667" y="0.0" type="line"/>
      <point x="772.1666666666667" y="140.63333333333335" type="line"/>
      <point x="250.16666666666666" y="140.63333333333335" type="line"/>
      <point x="250.16666666666666" y="148.63333333333333" type="line"/>
      <point x="361.1666666666667" y="301.7"/>
      <point x="455.0666666666667" y="436.26666666666665"/>
      <point x="524.3" y="538.7" type="curve" smooth="yes"/>
      <point x="582.8" y="622.7666666666667"/>
      <point x="625.2666666666667" y="693.9666666666667"/>
      <point x="653.6333333333333" y="752.4666666666666" type="curve" smooth="yes"/>
      <point x="709.8333333333333" y="869.6999999999999"/>
      <point x="739.6333333333333" y="983.3333333333333"/>
      <point x="739.6333333333333" y="1121.2333333333333" type="curve" smooth="yes"/>
      <point x="739.6333333333333" y="1343.1"/>
      <point x="614.1666666666667" y="1483.0"/>
      <point x="402.9" y="1483.0" type="curve" smooth="yes"/>
      <point x="280.40000000000003" y="1483.0"/>
      <point x="192.36666666666667" y="1450.0"/>
      <point x="83.03333333333333" y="1349.3666666666666" type="curve"/>
      <point x="168.93333333333334" y="1245.8999999999999" type="line"/>
      <point x="244.46666666666667" y="1314.8999999999999"/>
      <point x="303.03333333333336" y="1343.7666666666667"/>
      <point x="389.9" y="1343.7666666666667" type="curve" smooth="yes"/>
      <point x="508.43333333333334" y="1343.7666666666667"/>
      <point x="585.1666666666666" y="1255.1333333333334"/>
      <point x="585.1666666666666" y="1119.3666666666668" type="curve" smooth="yes"/>
      <point x="585.1666666666666" y="1002.4333333333334"/>
      <point x="567.2333333333333" y="912.3333333333334"/>
      <point x="512.3666666666667" y="799.0666666666667" type="curve" smooth="yes"/>
      <point x="480.1666666666667" y="730.4"/>
      <point x="429.1666666666667" y="646.6666666666667"/>
      <point x="357.3333333333333" y="539.6333333333333" type="curve" smooth="yes"/>
      <point x="74.0" y="119.53333333333333" type="line"/>
    </contour>
  </outline>
</glyph>
<glyph name="three" format="2">
  <advance width="862.0"/>
  <unicode hex="0033"/>
  <outline>
    <contour>
      <point x="369.8" y="-20.0" type="curve" smooth="yes"/>
      <point x="613.9" y="-20.0"/>
      <point x="765.4333333333334" y="145.73333333333332"/>
      <point x="765.4333333333334" y="403.8666666666667" type="curve" smooth="yes"/>
      <point x="765.4333333333334" y="598.5"/>
      <point x="666.4000000000001" y="726.4333333333333"/>
      <point x="495.6333333333334" y="760.1" type="curve"/>
      <point x="495.6333333333334" y="768.1" type="line"/>
      <point x="656.5" y="822.0666666666666"/>
      <point x="740.3333333333334" y="952.1333333333333"/>
      <point x="740.3333333333334" y="1135.3666666666666" type="curve" smooth="yes"/>
      <point x="740.3333333333334" y="1346.8666666666666"/>
      <point x="609.6333333333333" y="1483.0"/>
      <point x="399.4333333333333" y="1483.0" type="curve" smooth="yes"/>
      <point x="272.76666666666665" y="1483.0"/>
      <point x="170.56666666666666" y="1442.0333333333333"/>
      <point x="71.56666666666668" y="1345.1" type="curve"/>
      <point x="153.56666666666666" y="1242.3666666666666" type="line"/>
      <point x="237.79999999999998" y="1319.6"/>
      <point x="304.53333333333336" y="1346.9333333333334"/>
      <point x="390.7" y="1346.9333333333334" type="curve" smooth="yes"/>
      <point x="514.3333333333334" y="1346.9333333333334"/>
      <point x="585.6333333333333" y="1260.4666666666667"/>
      <point x="585.6333333333333" y="1110.2666666666667" type="curve" smooth="yes"/>
      <point x="585.6333333333333" y="930.9"/>
      <point x="479.2" y="819.5666666666667"/>
      <point x="312.6333333333333" y="819.5666666666667" type="curve" smooth="yes"/>
      <point x="232.86666666666667" y="819.5666666666667" type="line"/>
      <point x="232.86666666666667" y="690.2333333333333" type="line"/>
      <point x="309.6666666666667" y="690.2333333333333" type="line" smooth="yes"/>
      <point x="362.06666666666666" y="690.2333333333333"/>
      <point x="407.53333333333336" y="683.4666666666667"/>
      <point x="446.3" y="669.4666666666667" type="curve" smooth="yes"/>
      <point x="553.5666666666667" y="631.4333333333333"/>
      <point x="607.9666666666667" y="541.3333333333334"/>
      <point x="607.9666666666667" y="409.5" type="curve" smooth="yes"/>
      <point x="607.9666666666667" y="220.83333333333334"/>
      <point x="518.3333333333334" y="114.43333333333334"/>
      <point x="357.9" y="114.43333333333334" type="curve" smooth="yes"/>
      <point x="259.53333333333336" y="114.43333333333334"/>
      <point x="162.16666666666669" y="141.23333333333332"/>
      <point x="77.0" y="191.63333333333333" type="curve"/>
      <point x="77.0" y="38.6" type="line"/>
      <point x="154.13333333333335" y="-0.13333333333333286"/>
      <point x="251.96666666666667" y="-20.0"/>
    </contour>
  </outline>
</glyph>
<glyph name="five" format="2">
  <advance width="862.0"/>
  <unicode hex="0035"/>
  <outline>
    <contour>
      <point x="361.6" y="-20.0" type="curve" smooth="yes"/>
      <point x="613.0333333333333" y="-20.0"/>
      <point x="771.3333333333333" y="168.36666666666667"/>
      <point x="771.3333333333333" y="471.76666666666665" type="curve" smooth="yes"/>
      <point x="771.3333333333333" y="730.7333333333333"/>
      <point x="633.4" y="887.7666666666667"/>
      <point x="414.16666666666663" y="887.7666666666667" type="curve" smooth="yes"/>
      <point x="360.26666666666665" y="887.7666666666667"/>
      <point x="307.40000000000003" y="881.6999999999999"/>
      <point x="255.1" y="870.5666666666667" type="curve"/>
      <point x="285.5" y="1318.5333333333333" type="line"/>
      <point x="692.0333333333333" y="1318.5333333333333" type="line"/>
      <point x="692.0333333333333" y="1462.0" type="line"/>
      <point x="154.1" y="1462.0" type="line"/>
      <point x="110.63333333333335" y="790.4333333333333" type="line"/>
      <point x="172.46666666666667" y="726.5" type="line"/>
      <point x="239.66666666666666" y="747.1999999999999"/>
      <point x="305.4" y="757.4333333333334"/>
      <point x="368.9666666666667" y="757.4333333333334" type="curve" smooth="yes"/>
      <point x="524.0333333333334" y="757.4333333333334"/>
      <point x="613.2333333333333" y="659.2333333333333"/>
      <point x="613.2333333333333" y="461.7" type="curve" smooth="yes"/>
      <point x="613.2333333333333" y="250.63333333333333"/>
      <point x="514.5333333333334" y="116.3"/>
      <point x="348.9666666666667" y="116.3" type="curve" smooth="yes"/>
      <point x="260.56666666666666" y="116.3"/>
      <point x="166.56666666666666" y="148.60000000000002"/>
      <point x="95.19999999999999" y="199.13333333333335" type="curve"/>
      <point x="95.19999999999999" y="41.06666666666667" type="line"/>
      <point x="160.96666666666667" y="0.10000000000000053"/>
      <point x="249.66666666666666" y="-20.0"/>
    </contour>
  </outline>
</glyph>
<glyph name="seven" format="2">
  <advance width="862.0"/>
  <unicode hex="0037"/>
  <outline>
    <contour>
      <point x="190.10000000000002" y="0.0" type="line"/>
      <point x="351.59999999999997" y="0.0" type="line"/>
      <point x="786.5000000000001" y="1345.4666666666667" type="line"/>
      <point x="786.5000000000001" y="1461.3000000000002" type="line"/>
      <point x="64.7" y="1461.3000000000002" type="line"/>
      <point x="64.7" y="1318.5333333333333" type="line"/>
      <point x="629.4" y="1318.5333333333333" type="line"/>
    </contour>
  </outline>
</glyph>
<glyph name="eight" format="2">
  <advance width="862.0"/>
  <unicode hex="0038"/>
  <outline>
    <contour>
      <point x="437.6333333333333" y="-20.0" type="curve" smooth="yes"/>
      <point x="649.4000000000001" y="-20.0"/>
      <point x="792.4666666666666" y="139.46666666666667"/>
      <point x="792.4666666666666" y="368.7666666666667" type="curve" smooth="yes"/>
      <point x="792.4666666666666" y="543.3333333333334"/>
      <point x="697.9000000000001" y="653.5333333333333"/>
      <point x="533.1333333333333" y="765.9666666666667" type="curve"/>
      <point x="690.3333333333334" y="863.0666666666666"/>
      <point x="762.6333333333333" y="985.0666666666667"/>
      <point x="762.6333333333333" y="1137.6666666666667" type="curve" smooth="yes"/>
      <point x="762.6333333333333" y="1351.5666666666668"/>
      <point x="631.4666666666667" y="1482.3"/>
      <point x="433.46666666666664" y="1482.3" type="curve" smooth="yes"/>
      <point x="239.7" y="1482.3"/>
      <point x="103.19999999999999" y="1343.5333333333333"/>
      <point x="103.19999999999999" y="1133.6666666666667" type="curve" smooth="yes"/>
      <point x="103.19999999999999" y="991.8666666666667"/>
      <point x="168.3" y="870.4666666666667"/>
      <point x="308.3666666666667" y="762.0" type="curve"/>
      <point x="137.63333333333333" y="650.2333333333333"/>
      <point x="72.0" y="525.2333333333333"/>
      <point x="72.0" y="356.06666666666666" type="curve" smooth="yes"/>
      <point x="72.0" y="126.49999999999999"/>
      <point x="220.73333333333335" y="-20.0"/>
    </contour>
    <contour>
      <point x="434.0666666666667" y="111.06666666666668" type="curve" smooth="yes"/>
      <point x="305.7" y="111.06666666666668"/>
      <point x="226.03333333333333" y="209.86666666666667"/>
      <point x="226.03333333333333" y="358.9666666666667" type="curve" smooth="yes"/>
      <point x="226.03333333333333" y="514.3333333333333"/>
      <point x="277.6" y="604.6333333333333"/>
      <point x="414.8" y="696.2666666666667" type="curve"/>
      <point x="573.9333333333334" y="579.2"/>
      <point x="637.2" y="495.1333333333334"/>
      <point x="637.2" y="374.0" type="curve" smooth="yes"/>
      <point x="637.2" y="210.76666666666668"/>
      <point x="559.2" y="111.06666666666668"/>
    </contour>
    <contour>
      <point x="431.7" y="834.7666666666667" type="curve"/>
      <point x="300.3" y="925.9"/>
      <point x="257.40000000000003" y="1008.7666666666667"/>
      <point x="257.40000000000003" y="1128.7333333333333" type="curve" smooth="yes"/>
      <point x="257.40000000000003" y="1271.2333333333333"/>
      <point x="322.56666666666666" y="1351.9333333333334"/>
      <point x="431.23333333333335" y="1351.9333333333334" type="curve" smooth="yes"/>
      <point x="545.2666666666667" y="1351.9333333333334"/>
      <point x="608.4333333333334" y="1271.4666666666667"/>
      <point x="608.4333333333334" y="1128.2666666666667" type="curve" smooth="yes"/>
      <point x="608.4333333333334" y="1009.0"/>
      <point x="557.8000000000001" y="915.7"/>
    </contour>
  </outline>
</glyph>
<glyph name="nine" format="2">
  <advance width="862.0"/>
  <unicode hex="0039"/>
  <outline>
    <contour>
      <point x="284.26666666666665" y="-20.0" type="curve" smooth="yes"/>
      <point x="398.49999999999994" y="-20.0"/>
      <point x="493.2666666666667" y="19.5"/>
      <point x="567.3333333333334" y="98.5" type="curve" smooth="yes"/>
      <point x="696.7" y="231.36666666666665"/>
      <point x="763.2666666666665" y="479.1"/>
      <point x="763.2666666666665" y="840.9666666666666" type="curve" smooth="yes"/>
      <point x="763.2666666666665" y="951.0"/>
      <point x="754.5666666666666" y="1048.3333333333333"/>
      <point x="739.1666666666666" y="1131.1999999999998" type="curve" smooth="yes"/>
      <point x="693.9666666666667" y="1361.1333333333332"/>
      <point x="586.4666666666667" y="1482.3"/>
      <point x="422.9333333333334" y="1482.3" type="curve" smooth="yes"/>
      <point x="208.23333333333332" y="1482.3"/>
      <point x="77.33333333333333" y="1299.6333333333334"/>
      <point x="77.33333333333333" y="998.8333333333333" type="curve" smooth="yes"/>
      <point x="77.33333333333333" y="719.8333333333333"/>
      <point x="189.66666666666669" y="544.5333333333333"/>
      <point x="376.1666666666667" y="544.5333333333333" type="curve" smooth="yes"/>
      <point x="483.1333333333334" y="544.5333333333333"/>
      <point x="562.5" y="606.0"/>
      <point x="607.5" y="708.6333333333333" type="curve"/>
      <point x="615.7333333333333" y="708.6333333333333" type="line"/>
      <point x="603.4333333333333" y="322.8"/>
      <point x="486.20000000000005" y="117.16666666666667"/>
      <point x="286.43333333333334" y="117.16666666666667" type="curve" smooth="yes"/>
      <point x="230.46666666666667" y="117.16666666666667"/>
      <point x="186.66666666666666" y="124.46666666666667"/>
      <point x="145.7" y="140.46666666666667" type="curve"/>
      <point x="145.7" y="-0.10000000000000031" type="line"/>
      <point x="171.83333333333334" y="-10.866666666666667"/>
      <point x="235.9666666666667" y="-20.0"/>
    </contour>
    <contour>
      <point x="411.1666666666667" y="678.7666666666667" type="curve" smooth="yes"/>
      <point x="293.06666666666666" y="678.7666666666667"/>
      <point x="232.63333333333335" y="795.7"/>
      <point x="232.63333333333335" y="1007.7333333333333" type="curve" smooth="yes"/>
      <point x="232.63333333333335" y="1134.8333333333333"/>
      <point x="257.1" y="1231.4333333333334"/>
      <point x="301.8333333333333" y="1284.6" type="curve" smooth="yes"/>
      <point x="331.1666666666667" y="1322.4666666666667"/>
      <point x="372.3" y="1342.3333333333333"/>
      <point x="418.56666666666666" y="1342.3333333333333" type="curve" smooth="yes"/>
      <point x="458.1333333333334" y="1342.3333333333333"/>
      <point x="490.29999999999995" y="1325.8000000000002"/>
      <point x="517.8666666666667" y="1295.3" type="curve" smooth="yes"/>
      <point x="573.4666666666667" y="1232.6"/>
      <point x="606.5" y="1113.0666666666666"/>
      <point x="606.5" y="951.9" type="curve" smooth="yes"/>
      <point x="606.5" y="897.2"/>
      <point x="595.4333333333334" y="844.7333333333333"/>
      <point x="575.8333333333334" y="799.7" type="curve" smooth="yes"/>
      <point x="543.2666666666667" y="726.2"/>
      <point x="485.66666666666663" y="678.7666666666667"/>
    </contour>
  </outline>
</glyph>
<glyph name="at" format="2">
  <advance width="1317.0"/>
  <unicode hex="0040"/>
  <note>
at
</note>
  <outline>
    <contour>
      <point x="635.3333333333334" y="-176.03333333333333" type="curve" smooth="yes"/>
      <point x="744.7" y="-176.03333333333333"/>
      <point x="829.9000000000001" y="-153.0"/>
      <point x="911.3666666666667" y="-106.16666666666666" type="curve"/>
      <point x="911.3666666666667" y="17.466666666666676" type="line"/>
      <point x="837.8666666666667" y="-28.299999999999997"/>
      <point x="740.1" y="-58.533333333333324"/>
      <point x="640.8666666666667" y="-58.533333333333324" type="curve" smooth="yes"/>
      <point x="380.83333333333337" y="-58.533333333333324"/>
      <point x="228.43333333333334" y="184.8"/>
      <point x="228.43333333333334" y="599.5" type="curve" smooth="yes"/>
      <point x="228.43333333333334" y="976.9"/>
      <point x="376.7333333333333" y="1355.3000000000002"/>
      <point x="698.9666666666667" y="1355.3000000000002" type="curve" smooth="yes"/>
      <point x="970.9333333333333" y="1355.3000000000002"/>
      <point x="1090.5666666666666" y="1064.0333333333333"/>
      <point x="1090.5666666666666" y="743.8000000000001" type="curve" smooth="yes"/>
      <point x="1090.5666666666666" y="566.7333333333333"/>
      <point x="1075.0666666666666" y="351.6666666666667"/>
      <point x="969.6333333333333" y="351.6666666666667" type="curve" smooth="yes"/>
      <point x="940.9000000000001" y="351.6666666666667"/>
      <point x="917.4666666666667" y="362.96666666666664"/>
      <point x="902.1" y="387.3333333333333" type="curve" smooth="yes"/>
      <point x="885.9666666666667" y="412.4666666666667"/>
      <point x="877.9" y="452.6"/>
      <point x="877.9" y="511.73333333333335" type="curve" smooth="yes"/>
      <point x="877.9" y="529.1666666666666"/>
      <point x="877.9" y="547.6"/>
      <point x="877.9000000000001" y="565.0333333333333" type="curve"/>
      <point x="898.5999999999999" y="1038.5333333333333" type="line"/>
      <point x="834.0666666666666" y="1060.5666666666666"/>
      <point x="767.4666666666666" y="1071.9666666666667"/>
      <point x="705.4333333333333" y="1071.9666666666667" type="curve" smooth="yes"/>
      <point x="509.66666666666663" y="1071.9666666666667"/>
      <point x="407.96666666666664" y="899.9666666666667"/>
      <point x="407.96666666666664" y="591.5" type="curve" smooth="yes"/>
      <point x="407.96666666666664" y="358.43333333333334"/>
      <point x="487.40000000000003" y="231.0"/>
      <point x="616.5333333333333" y="231.0" type="curve" smooth="yes"/>
      <point x="709.9" y="231.0"/>
      <point x="760.3333333333333" y="291.43333333333334"/>
      <point x="793.1333333333332" y="415.6" type="curve"/>
      <point x="801.4333333333333" y="415.6" type="line"/>
      <point x="810.4999999999999" y="301.1"/>
      <point x="861.4333333333333" y="231.0"/>
      <point x="971.5" y="231.0" type="curve" smooth="yes"/>
      <point x="1134.3333333333333" y="231.0"/>
      <point x="1223.5666666666666" y="406.7"/>
      <point x="1223.5666666666666" y="741.0666666666667" type="curve" smooth="yes"/>
      <point x="1223.5666666666666" y="1134.3666666666666"/>
      <point x="1052.6" y="1474.6333333333334"/>
      <point x="700.9666666666666" y="1474.6333333333334" type="curve" smooth="yes"/>
      <point x="292.40000000000003" y="1474.6333333333334"/>
      <point x="98.63333333333333" y="1056.4666666666667"/>
      <point x="98.63333333333333" y="585.6" type="curve" smooth="yes"/>
      <point x="98.63333333333333" y="158.53333333333336"/>
      <point x="256.1333333333333" y="-176.03333333333333"/>
    </contour>
    <contour>
      <point x="642.2333333333333" y="351.6666666666667" type="curve" smooth="yes"/>
      <point x="613.2333333333333" y="351.6666666666667"/>
      <point x="590.6999999999999" y="366.9"/>
      <point x="574.1666666666666" y="399.76666666666665" type="curve" smooth="yes"/>
      <point x="553.5" y="439.6666666666667"/>
      <point x="543.1333333333333" y="503.66666666666663"/>
      <point x="543.1333333333333" y="590.7666666666667" type="curve" smooth="yes"/>
      <point x="543.1333333333333" y="713.3"/>
      <point x="558.0" y="806.4000000000001"/>
      <point x="586.1666666666666" y="869.4333333333333" type="curve" smooth="yes"/>
      <point x="611.4666666666667" y="929.1999999999999"/>
      <point x="647.6" y="960.1"/>
      <point x="693.5666666666667" y="960.1" type="curve" smooth="yes"/>
      <point x="720.5333333333333" y="960.1"/>
      <point x="744.9999999999999" y="956.6333333333333"/>
      <point x="762.0666666666667" y="951.1666666666666" type="curve"/>
      <point x="747.2333333333335" y="671.5999999999999" type="line" smooth="yes"/>
      <point x="741.4666666666667" y="561.4333333333334"/>
      <point x="730.0" y="480.56666666666666"/>
      <point x="713.7" y="430.0" type="curve" smooth="yes"/>
      <point x="697.4000000000001" y="379.43333333333334"/>
      <point x="673.8666666666667" y="351.6666666666667"/>
    </contour>
  </outline>
</glyph>
<glyph name="B" format="2">
  <advance width="950.6666666666667"/>
  <unicode hex="0042"/>
  <anchor x="475.7" y="0.0" name="bottom"/>
  <anchor x="475.7" y="1462.0" name="top"/>
  <outline>
    <contour>
      <point x="149.5" y="0.0" type="line"/>
      <point x="520.5" y="0.0" type="line" smooth="yes"/>
      <point x="742.1" y="0.0"/>
      <point x="873.6666666666667" y="156.63333333333333"/>
      <point x="873.6666666666667" y="418.8" type="curve" smooth="yes"/>
      <point x="873.6666666666667" y="617.1999999999999"/>
      <point x="797.4000000000001" y="728.9"/>
      <point x="631.0999999999999" y="766.0" type="curve"/>
      <point x="631.0999999999999" y="774.7" type="line"/>
      <point x="770.0333333333333" y="802.0666666666667"/>
      <point x="844.1333333333333" y="918.5666666666666"/>
      <point x="844.1333333333333" y="1106.5333333333333" type="curve" smooth="yes"/>
      <point x="844.1333333333333" y="1345.1000000000001"/>
      <point x="714.5" y="1462.0"/>
      <point x="460.76666666666665" y="1462.0" type="curve" smooth="yes"/>
      <point x="149.5" y="1462.0" type="line"/>
    </contour>
    <contour>
      <point x="300.4666666666667" y="1323.6999999999998" type="line"/>
      <point x="459.8333333333333" y="1323.6999999999998" type="line" smooth="yes"/>
      <point x="611.0999999999999" y="1323.6999999999998"/>
      <point x="685.9666666666667" y="1246.7"/>
      <point x="685.9666666666667" y="1096.3999999999999" type="curve" smooth="yes"/>
      <point x="685.9666666666667" y="919.4000000000001"/>
      <point x="625.0" y="832.0"/>
      <point x="464.6333333333334" y="832.0" type="curve" smooth="yes"/>
      <point x="300.4666666666667" y="832.0" type="line"/>
    </contour>
    <contour>
      <point x="476.0" y="696.2666666666667" type="line" smooth="yes"/>
      <point x="628.5666666666666" y="696.2666666666667"/>
      <point x="713.3333333333334" y="602.5"/>
      <point x="713.3333333333334" y="428.9666666666667" type="curve" smooth="yes"/>
      <point x="713.3333333333334" y="234.70000000000002"/>
      <point x="640.9666666666667" y="139.23333333333332"/>
      <point x="495.8333333333333" y="139.23333333333332" type="curve" smooth="yes"/>
      <point x="300.4666666666667" y="139.23333333333332" type="line"/>
      <point x="300.4666666666667" y="696.2666666666667" type="line"/>
    </contour>
  </outline>
</glyph>
<glyph name="D" format="2">
  <advance width="1044.3333333333333"/>
  <unicode hex="0044"/>
  <anchor x="522.7333333333333" y="0.0" name="bottom"/>
  <anchor x="522.7333333333333" y="731.0" name="center"/>
  <anchor x="522.7333333333333" y="1462.0" name="top"/>
  <outline>
    <contour>
      <point x="943.1" y="745.0" type="curve" smooth="yes"/>
      <point x="943.1" y="1208.3999999999999"/>
      <point x="771.3333333333334" y="1462.0"/>
      <point x="457.5" y="1462.0" type="curve" smooth="yes"/>
      <point x="149.5" y="1462.0" type="line"/>
      <point x="149.5" y="0.0" type="line"/>
      <point x="442.4" y="0.0" type="line" smooth="yes"/>
      <point x="772.2333333333333" y="0.0"/>
      <point x="943.1" y="252.66666666666669"/>
    </contour>
    <contour>
      <point x="781.3" y="738.3" type="curve" smooth="yes"/>
      <point x="781.3" y="345.4"/>
      <point x="674.0" y="139.23333333333335"/>
      <point x="438.96666666666664" y="139.23333333333335" type="curve" smooth="yes"/>
      <point x="305.6" y="139.23333333333335" type="line"/>
      <point x="305.6" y="1323.7" type="line"/>
      <point x="451.4" y="1323.7" type="line" smooth="yes"/>
      <point x="669.5" y="1323.7"/>
      <point x="781.3" y="1122.0666666666666"/>
    </contour>
  </outline>
</glyph>
<glyph name="E" format="2">
  <advance width="816.0000000000001"/>
  <unicode hex="0045"/>
  <anchor x="408.0" y="0.0" name="bottom"/>
  <anchor x="733.9666666666667" y="10.0" name="ogonek"/>
  <anchor x="408.0" y="1462.0" name="top"/>
  <anchor x="20.0" y="1462.0" name="topleft"/>
  <outline>
    <contour>
      <point x="722.6666666666667" y="142.06666666666666" type="line"/>
      <point x="305.6" y="142.06666666666666" type="line"/>
      <point x="305.6" y="693.5666666666667" type="line"/>
      <point x="697.5" y="693.5666666666667" type="line"/>
      <point x="697.5" y="834.9333333333334" type="line"/>
      <point x="305.6" y="834.9333333333334" type="line"/>
      <point x="305.6" y="1320.8666666666666" type="line"/>
      <point x="722.6666666666667" y="1320.8666666666666" type="line"/>
      <point x="722.6666666666667" y="1462.0" type="line"/>
      <point x="149.5" y="1462.0" type="line"/>
      <point x="149.5" y="0.0" type="line"/>
      <point x="722.6666666666667" y="0.0" type="line"/>
    </contour>
  </outline>
</glyph>
<glyph name="F" format="2">
  <advance width="765.3333333333334"/>
  <unicode hex="0046"/>
  <anchor x="382.96666666666664" y="0.0" name="bottom"/>
  <anchor x="382.96666666666664" y="1462.0" name="top"/>
  <outline>
    <contour>
      <point x="305.1333333333334" y="630.5999999999999" type="line"/>
      <point x="697.8666666666667" y="630.5999999999999" type="line"/>
      <point x="697.8666666666667" y="772.5" type="line"/>
      <point x="305.1333333333334" y="772.5" type="line"/>
      <point x="305.1333333333334" y="1320.8666666666666" type="line"/>
      <point x="722.5666666666667" y="1320.8666666666666" type="line"/>
      <point x="722.5666666666667" y="1462.0" type="line"/>
      <point x="149.5" y="1462.0" type="line"/>
      <point x="149.5" y="0.0" type="line"/>
      <point x="305.1333333333334" y="0.0" type="line"/>
    </contour>
  </outline>
</glyph>
<glyph name="H" format="2">
  <advance width="1071.0"/>
  <unicode hex="0048"/>
  <anchor x="535.6333333333333" y="0.0" name="bottom"/>
  <anchor x="535.6333333333333" y="731.0" name="center"/>
  <anchor x="535.6333333333333" y="1462.0" name="top"/>
  <anchor x="20.0" y="1462.0" name="topleft"/>
  <outline>
    <contour>
      <point x="921.3000000000001" y="1462.0" type="line"/>
      <point x="765.2" y="1462.0" type="line"/>
      <point x="765.2" y="835.6333333333333" type="line"/>
      <point x="305.6" y="835.6333333333333" type="line"/>
      <point x="305.6" y="1462.0" type="line"/>
      <point x="149.5" y="1462.0" type="line"/>
      <point x="149.5" y="0.0" type="line"/>
      <point x="305.6" y="0.0" type="line"/>
      <point x="305.6" y="693.1" type="line"/>
      <point x="765.2" y="693.1" type="line"/>
      <point x="765.2" y="0.0" type="line"/>
      <point x="921.3000000000001" y="0.0" type="line"/>
    </contour>
  </outline>
</glyph>
<glyph name="J" format="2">
  <advance width="444.00000000000006"/>
  <unicode hex="004A"/>
  <anchor x="222.46666666666667" y="0.0" name="bottom"/>
  <anchor x="222.46666666666667" y="1462.0" name="top"/>
  <outline>
    <contour>
      <point x="24.666666666666668" y="-386.73333333333335" type="curve" smooth="yes"/>
      <point x="87.3" y="-386.73333333333335"/>
      <point x="143.0" y="-366.43333333333334"/>
      <point x="187.4666666666667" y="-327.3666666666667" type="curve" smooth="yes"/>
      <point x="258.40000000000003" y="-266.1666666666667"/>
      <point x="299.1" y="-153.2"/>
      <point x="299.1" y="-0.36666666666666536" type="curve" smooth="yes"/>
      <point x="299.1" y="1462.0" type="line"/>
      <point x="143.0" y="1462.0" type="line"/>
      <point x="143.0" y="-6.33333333333333" type="line" smooth="yes"/>
      <point x="143.0" y="-89.66666666666666"/>
      <point x="131.36666666666667" y="-151.96666666666667"/>
      <point x="107.1" y="-188.1" type="curve" smooth="yes"/>
      <point x="84.7" y="-223.6"/>
      <point x="50.2" y="-241.43333333333334"/>
      <point x="7.4999999999999964" y="-241.43333333333334" type="curve" smooth="yes"/>
      <point x="-36.50000000000001" y="-241.43333333333334"/>
      <point x="-74.96666666666667" y="-234.43333333333334"/>
      <point x="-111.46666666666668" y="-221.4333333333333" type="curve"/>
      <point x="-111.46666666666668" y="-361.7333333333333" type="line"/>
      <point x="-75.43333333333334" y="-378.7333333333333"/>
      <point x="-32.46666666666667" y="-386.73333333333335"/>
    </contour>
  </outline>
</glyph>
<glyph name="K" format="2">
  <advance width="896.6666666666667"/>
  <unicode hex="004B"/>
  <anchor x="448.7" y="0.0" name="bottom"/>
  <anchor x="448.7" y="1462.0" name="top"/>
  <outline>
    <contour>
      <point x="519.3666666666667" y="822.5" type="line"/>
      <point x="876.8000000000001" y="1462.0" type="line"/>
      <point x="708.4333333333333" y="1462.0" type="line"/>
      <point x="441.3" y="965.3333333333334" type="line"/>
      <point x="374.5" y="838.9333333333333"/>
      <point x="329.03333333333336" y="751.9333333333333"/>
      <point x="305.6" y="704.5666666666667" type="curve"/>
      <point x="305.6" y="1462.0" type="line"/>
      <point x="149.5" y="1462.0" type="line"/>
      <point x="149.5" y="0.0" type="line"/>
      <point x="305.6" y="0.0" type="line"/>
      <point x="305.6" y="558.5333333333333" type="line"/>
      <point x="417.43333333333334" y="694.4666666666667" type="line"/>
      <point x="726.6666666666666" y="0.0" type="line"/>
      <point x="896.8666666666666" y="0.0" type="line"/>
    </contour>
  </outline>
</glyph>
<glyph name="M" format="2">
  <advance width="1465.3333333333335"/>
  <unicode hex="004D"/>
  <anchor x="732.7666666666667" y="0.0" name="bottom"/>
  <anchor x="732.7666666666667" y="1462.0" name="top"/>
  <outline>
    <contour>
      <point x="149.5" y="0.0" type="line"/>
      <point x="296.46666666666664" y="0.0" type="line"/>
      <point x="296.46666666666664" y="1037.2333333333333" type="line" smooth="yes"/>
      <point x="296.46666666666664" y="1088.2333333333333"/>
      <point x="292.3" y="1177.0"/>
      <point x="283.43333333333334" y="1302.3000000000002" type="curve"/>
      <point x="292.3666666666667" y="1302.3000000000002" type="line"/>
      <point x="644.5" y="0.0" type="line"/>
      <point x="818.7333333333333" y="0.0" type="line"/>
      <point x="1169.3333333333335" y="1300.7666666666667" type="line"/>
      <point x="1178.2666666666667" y="1300.7666666666667" type="line"/>
      <point x="1169.4" y="1175.4666666666667"/>
      <point x="1165.2333333333333" y="1085.1666666666667"/>
      <point x="1165.2333333333333" y="1031.1" type="curve" smooth="yes"/>
      <point x="1165.2333333333333" y="0.0" type="line"/>
      <point x="1315.2666666666667" y="0.0" type="line"/>
      <point x="1315.2666666666667" y="1462.0" type="line"/>
      <point x="1075.2" y="1462.0" type="line"/>
      <point x="793.8333333333334" y="416.90000000000003" type="line"/>
      <point x="763.7333333333333" y="308.53333333333336"/>
      <point x="744.1999999999999" y="224.53333333333333"/>
      <point x="733.7" y="165.73333333333332" type="curve"/>
      <point x="725.7" y="165.73333333333332" type="line"/>
      <point x="713.6666666666667" y="239.86666666666667"/>
      <point x="694.9" y="323.8666666666667"/>
      <point x="669.4" y="418.43333333333334" type="curve"/>
      <point x="385.73333333333335" y="1462.0" type="line"/>
      <point x="149.5" y="1462.0" type="line"/>
    </contour>
  </outline>
</glyph>
<glyph name="P" format="2">
  <advance width="886.9999999999999"/>
  <unicode hex="0050"/>
  <anchor x="443.56666666666666" y="0.0" name="bottom"/>
  <anchor x="443.56666666666666" y="1462.0" name="top"/>
  <outline>
    <contour>
      <point x="149.5" y="0.0" type="line"/>
      <point x="305.6" y="0.0" type="line"/>
      <point x="305.6" y="579.2666666666667" type="line"/>
      <point x="397.7" y="579.2666666666667" type="line" smooth="yes"/>
      <point x="677.1" y="579.2666666666667"/>
      <point x="823.3333333333333" y="727.4666666666667"/>
      <point x="823.3333333333333" y="1031.9666666666667" type="curve" smooth="yes"/>
      <point x="823.3333333333333" y="1326.0"/>
      <point x="691.4333333333333" y="1462.0"/>
      <point x="406.66666666666663" y="1462.0" type="curve" smooth="yes"/>
      <point x="149.5" y="1462.0" type="line"/>
    </contour>
    <contour>
      <point x="305.6" y="717.8" type="line"/>
      <point x="305.6" y="1323.7" type="line"/>
      <point x="400.3666666666667" y="1323.7" type="line" smooth="yes"/>
      <point x="580.8333333333334" y="1323.7"/>
      <point x="665.0" y="1236.7"/>
      <point x="665.0" y="1028.2333333333333" type="curve" smooth="yes"/>
      <point x="665.0" y="807.5333333333333"/>
      <point x="585.4666666666667" y="717.8"/>
      <point x="388.4333333333334" y="717.8" type="curve" smooth="yes"/>
    </contour>
  </outline>
</glyph>
<glyph name="S" format="2">
  <advance width="821.3333333333334"/>
  <unicode hex="0053"/>
  <anchor x="373.73333333333335" y="0.0" name="bottom"/>
  <anchor x="411.06666666666666" y="1462.0" name="top"/>
  <outline>
    <contour>
      <point x="358.8333333333333" y="-20.0" type="curve" smooth="yes"/>
      <point x="617.3000000000001" y="-20.0"/>
      <point x="745.7333333333335" y="150.06666666666666"/>
      <point x="745.7333333333335" y="387.2" type="curve" smooth="yes"/>
      <point x="745.7333333333335" y="612.3333333333333"/>
      <point x="629.8333333333334" y="707.4333333333334"/>
      <point x="470.29999999999995" y="800.3" type="curve" smooth="yes"/>
      <point x="385.2" y="848.6333333333333"/>
      <point x="318.8666666666667" y="887.6333333333333"/>
      <point x="280.8" y="952.2" type="curve" smooth="yes"/>
      <point x="258.56666666666666" y="989.5666666666666"/>
      <point x="246.1" y="1035.0"/>
      <point x="246.1" y="1094.8666666666668" type="curve" smooth="yes"/>
      <point x="246.1" y="1252.8333333333335"/>
      <point x="327.6" y="1338.3999999999999"/>
      <point x="460.40000000000003" y="1338.3999999999999" type="curve" smooth="yes"/>
      <point x="530.9" y="1338.3999999999999"/>
      <point x="612.4000000000001" y="1309.8333333333333"/>
      <point x="675.4333333333333" y="1276.5" type="curve"/>
      <point x="730.6999999999999" y="1411.5666666666668" type="line"/>
      <point x="664.1333333333333" y="1450.7666666666667"/>
      <point x="557.8" y="1483.0"/>
      <point x="452.1666666666667" y="1483.0" type="curve" smooth="yes"/>
      <point x="231.03333333333336" y="1483.0"/>
      <point x="91.93333333333334" y="1330.5333333333333"/>
      <point x="91.93333333333334" y="1095.1" type="curve" smooth="yes"/>
      <point x="91.93333333333334" y="1034.9333333333332"/>
      <point x="100.93333333333334" y="980.4"/>
      <point x="118.93333333333334" y="930.2333333333333" type="curve" smooth="yes"/>
      <point x="165.33333333333334" y="802.0"/>
      <point x="251.1" y="748.5"/>
      <point x="359.26666666666665" y="687.7666666666667" type="curve" smooth="yes"/>
      <point x="492.76666666666665" y="612.2333333333333"/>
      <point x="590.5666666666667" y="548.6333333333333"/>
      <point x="590.5666666666667" y="381.26666666666665" type="curve" smooth="yes"/>
      <point x="590.5666666666667" y="225.43333333333334"/>
      <point x="508.79999999999995" y="121.60000000000001"/>
      <point x="357.2" y="121.60000000000001" type="curve" smooth="yes"/>
      <point x="278.5333333333333" y="121.60000000000001"/>
      <point x="161.06666666666666" y="149.73333333333335"/>
      <point x="79.93333333333332" y="199.29999999999998" type="curve"/>
      <point x="79.93333333333332" y="38.93333333333334" type="line"/>
      <point x="158.13333333333335" y="-2.4999999999999996"/>
      <point x="275.53333333333336" y="-20.0"/>
    </contour>
  </outline>
</glyph>
<glyph name="T" format="2">
  <advance width="769.0000000000001"/>
  <unicode hex="0054"/>
  <anchor x="374.2" y="0.0" name="bottom"/>
  <anchor x="384.9333333333333" y="731.0" name="center"/>
  <anchor x="384.9333333333333" y="1462.0" name="top"/>
  <outline>
    <contour>
      <point x="461.3333333333333" y="1319.7" type="line"/>
      <point x="748.6" y="1319.7" type="line"/>
      <point x="748.6" y="1462.0" type="line"/>
      <point x="18.433333333333337" y="1462.0" type="line"/>
      <point x="18.433333333333337" y="1319.7" type="line"/>
      <point x="305.70000000000005" y="1319.7" type="line"/>
      <point x="305.70000000000005" y="0.0" type="line"/>
      <point x="461.3333333333333" y="0.0" type="line"/>
    </contour>
  </outline>
</glyph>
<glyph name="U" format="2">
  <advance width="1058.3333333333333"/>
  <unicode hex="0055"/>
  <anchor x="529.3333333333334" y="0.0" name="bottom"/>
  <anchor x="728.3333333333333" y="10.0" name="ogonek"/>
  <anchor x="529.3333333333334" y="1462.0" name="top"/>
  <anchor x="1038.4333333333334" y="1462.0" name="topright"/>
  <outline>
    <contour>
      <point x="529.5999999999999" y="-20.0" type="curve" smooth="yes"/>
      <point x="786.1333333333334" y="-20.0"/>
      <point x="918.6" y="152.70000000000002"/>
      <point x="918.6" y="488.7666666666667" type="curve" smooth="yes"/>
      <point x="918.6" y="1462.0" type="line"/>
      <point x="763.1999999999999" y="1462.0" type="line"/>
      <point x="763.1999999999999" y="475.86666666666673" type="line" smooth="yes"/>
      <point x="763.1999999999999" y="245.10000000000002"/>
      <point x="682.9" y="123.00000000000001"/>
      <point x="532.6333333333333" y="123.00000000000001" type="curve" smooth="yes"/>
      <point x="379.0333333333333" y="123.00000000000001"/>
      <point x="295.00000000000006" y="244.53333333333336"/>
      <point x="295.00000000000006" y="475.3666666666666" type="curve" smooth="yes"/>
      <point x="295.00000000000006" y="1462.0" type="line"/>
      <point x="139.06666666666666" y="1462.0" type="line"/>
      <point x="139.06666666666666" y="489.93333333333334" type="line" smooth="yes"/>
      <point x="139.06666666666666" y="158.8"/>
      <point x="275.6333333333333" y="-20.0"/>
    </contour>
  </outline>
</glyph>
<glyph name="V" format="2">
  <advance width="876.6666666666667"/>
  <unicode hex="0056"/>
  <anchor x="438.5" y="0.0" name="bottom"/>
  <anchor x="438.5" y="1462.0" name="top"/>
  <outline>
    <contour>
      <point x="343.3" y="0.0" type="line"/>
      <point x="531.4" y="0.0" type="line"/>
      <point x="876.6999999999999" y="1462.0" type="line"/>
      <point x="717.8333333333333" y="1462.0" type="line"/>
      <point x="476.43333333333334" y="409.8" type="line" smooth="yes"/>
      <point x="461.4" y="340.3"/>
      <point x="447.06666666666666" y="250.03333333333333"/>
      <point x="435.3666666666667" y="161.36666666666667" type="curve"/>
      <point x="422.6666666666667" y="276.8666666666667"/>
      <point x="410.29999999999995" y="354.23333333333335"/>
      <point x="381.76666666666665" y="479.03333333333336" type="curve" smooth="yes"/>
      <point x="159.4" y="1462.0" type="line"/>
      <point x="0.0" y="1462.0" type="line"/>
    </contour>
  </outline>
</glyph>
<glyph name="X" format="2">
  <advance width="799.6666666666666"/>
  <unicode hex="0058"/>
  <anchor x="400.4666666666667" y="0.0" name="bottom"/>
  <anchor x="658.6666666666666" y="0.0" name="cyrillicbighook"/>
  <anchor x="400.4666666666667" y="1462.0" name="top"/>
  <outline>
    <contour>
      <point x="502.26666666666665" y="751.9" type="line"/>
      <point x="777.5333333333333" y="1462.0" type="line"/>
      <point x="615.6999999999999" y="1462.0" type="line"/>
      <point x="419.4" y="896.4666666666666" type="line"/>
      <point x="210.33333333333334" y="1462.0" type="line"/>
      <point x="50.4" y="1462.0" type="line"/>
      <point x="328.79999999999995" y="770.4" type="line"/>
      <point x="13.233333333333333" y="0.0" type="line"/>
      <point x="173.6" y="0.0" type="line"/>
      <point x="407.53333333333336" y="622.7666666666667" type="line"/>
      <point x="623.5" y="0.0" type="line"/>
      <point x="785.7" y="0.0" type="line"/>
    </contour>
  </outline>
</glyph>
<glyph name="asciicircum" format="2">
  <advance width="909.3333333333335"/>
  <unicode hex="005E"/>
  <note>
asciicircum
</note>
  <outline>
    <contour>
      <point x="29.3" y="680.5333333333334" type="line"/>
      <point x="169.89999999999998" y="680.5333333333334" type="line"/>
      <point x="448.0333333333333" y="1293.8666666666666" type="line"/>
      <point x="738.1" y="680.5333333333334" type="line"/>
      <point x="880.9333333333334" y="680.5333333333334" type="line"/>
      <point x="490.0666666666667" y="1463.5" type="line"/>
      <point x="400.4333333333333" y="1463.5" type="line"/>
    </contour>
  </outline>
</glyph>
<glyph name="underscore" format="2">
  <advance width="793.3333333333334"/>
  <unicode hex="005F"/>
  <note>
underscore
</note>
  <outline>
    <contour>
      <point x="-4.0" y="-285.3666666666667" type="line"/>
      <point x="797.4666666666667" y="-285.3666666666667" type="line"/>
      <point x="797.4666666666667" y="-184.0" type="line"/>
      <point x="-4.0" y="-184.0" type="line"/>
    </contour>
  </outline>
</glyph>
<glyph name="c" format="2">
  <advance width="676.6666666666666"/>
  <unicode hex="0063"/>
  <anchor x="411.99999999999994" y="0.0" name="bottom"/>
  <anchor x="338.76666666666665" y="1094.8000000000002" name="top"/>
  <outline>
    <contour>
      <point x="442.66666666666663" y="-20.0" type="curve" smooth="yes"/>
      <point x="503.20000000000005" y="-20.0"/>
      <point x="576.6666666666667" y="-3.1999999999999997"/>
      <point x="629.5333333333333" y="26.86666666666667" type="curve"/>
      <point x="629.5333333333333" y="158.20000000000002" type="line"/>
      <point x="569.1666666666666" y="128.56666666666666"/>
      <point x="509.46666666666664" y="113.60000000000001"/>
      <point x="458.96666666666664" y="113.60000000000001" type="curve" smooth="yes"/>
      <point x="385.8666666666666" y="113.60000000000001"/>
      <point x="334.3333333333333" y="148.10000000000002"/>
      <point x="299.23333333333335" y="218.26666666666668" type="curve" smooth="yes"/>
      <point x="264.06666666666666" y="289.09999999999997"/>
      <point x="245.40000000000003" y="397.9"/>
      <point x="245.40000000000003" y="544.3666666666667" type="curve" smooth="yes"/>
      <point x="245.40000000000003" y="689.5"/>
      <point x="262.83333333333337" y="799.7"/>
      <point x="298.70000000000005" y="872.4000000000001" type="curve" smooth="yes"/>
      <point x="333.56666666666666" y="943.4"/>
      <point x="385.3333333333333" y="979.6"/>
      <point x="458.26666666666665" y="979.6" type="curve" smooth="yes"/>
      <point x="496.90000000000003" y="979.6"/>
      <point x="540.7" y="967.7333333333333"/>
      <point x="588.9666666666666" y="942.5333333333333" type="curve"/>
      <point x="639.0333333333333" y="1067.3666666666666" type="line"/>
      <point x="584.2333333333333" y="1099.8333333333333"/>
      <point x="517.2666666666667" y="1115.8"/>
      <point x="440.46666666666664" y="1115.8" type="curve" smooth="yes"/>
      <point x="210.16666666666669" y="1115.8"/>
      <point x="88.53333333333333" y="921.3000000000001"/>
      <point x="88.53333333333333" y="545.1666666666666" type="curve" smooth="yes"/>
      <point x="88.53333333333333" y="172.0"/>
      <point x="210.03333333333336" y="-20.0"/>
    </contour>
  </outline>
</glyph>
<glyph name="d" format="2">
  <advance width="934.0000000000001"/>
  <unicode hex="0064"/>
  <anchor x="467.53333333333336" y="0.0" name="bottom"/>
  <anchor x="467.53333333333336" y="547.6666666666666" name="center"/>
  <anchor x="467.53333333333336" y="1094.8" name="top"/>
  <anchor x="914.0666666666667" y="1094.8" name="topright"/>
  <outline>
    <contour>
      <point x="409.76666666666665" y="-20.0" type="curve" smooth="yes"/>
      <point x="512.3333333333334" y="-20.0"/>
      <point x="598.2" y="35.86666666666667"/>
      <point x="653.0" y="149.43333333333334" type="curve"/>
      <point x="662.0" y="149.43333333333334" type="line"/>
      <point x="682.3666666666667" y="0.0" type="line"/>
      <point x="800.2666666666668" y="0.0" type="line"/>
      <point x="800.2666666666668" y="1556.0" type="line"/>
      <point x="648.3333333333333" y="1556.0" type="line"/>
      <point x="648.3333333333333" y="1107.2666666666667" type="line" smooth="yes"/>
      <point x="649.0999999999999" y="1063.5333333333333"/>
      <point x="651.5666666666666" y="1015.7666666666667"/>
      <point x="654.9" y="955.7" type="curve"/>
      <point x="644.3333333333334" y="955.7" type="line"/>
      <point x="590.0" y="1058.9"/>
      <point x="503.4666666666667" y="1115.8"/>
      <point x="405.7666666666667" y="1115.8" type="curve" smooth="yes"/>
      <point x="198.9" y="1115.8"/>
      <point x="87.23333333333333" y="911.5666666666666"/>
      <point x="87.23333333333333" y="546.8333333333333" type="curve" smooth="yes"/>
      <point x="87.23333333333333" y="175.16666666666666"/>
      <point x="199.00000000000003" y="-20.0"/>
    </contour>
    <contour>
      <point x="441.6666666666667" y="110.36666666666667" type="curve" smooth="yes"/>
      <point x="279.73333333333335" y="110.36666666666667"/>
      <point x="244.56666666666666" y="317.70000000000005"/>
      <point x="244.56666666666666" y="542.2666666666667" type="curve" smooth="yes"/>
      <point x="244.56666666666666" y="766.3333333333333"/>
      <point x="276.90000000000003" y="978.9"/>
      <point x="437.90000000000003" y="978.9" type="curve" smooth="yes"/>
      <point x="613.6666666666667" y="978.9"/>
      <point x="647.4000000000001" y="777.4666666666667"/>
      <point x="647.4000000000001" y="544.9666666666666" type="curve" smooth="yes"/>
      <point x="647.4000000000001" y="491.83333333333337" type="line" smooth="yes"/>
      <point x="647.4000000000001" y="292.20000000000005"/>
      <point x="601.3" y="110.36666666666667"/>
    </contour>
  </outline>
</glyph>
<glyph name="l" format="2">
  <advance width="419.6666666666667"/>
  <unicode hex="006C"/>
  <anchor x="170.5" y="0.0" name="bottom"/>
  <anchor x="210.5" y="547.6666666666666" name="center"/>
  <anchor x="210.5" y="1556.0" name="top"/>
  <anchor x="587.6666666666666" y="1556.0" name="topright"/>
  <outline>
    <contour>
      <point x="286.43333333333334" y="1556.0" type="line"/>
      <point x="134.26666666666665" y="1556.0" type="line"/>
      <point x="134.26666666666665" y="0.0" type="line"/>
      <point x="286.43333333333334" y="0.0" type="line"/>
    </contour>
  </outline>
</glyph>
<glyph name="m" format="2">
  <advance width="1398.3333333333335"/>
  <unicode hex="006D"/>
  <anchor x="699.5999999999999" y="0.0" name="bottom"/>
  <anchor x="699.5999999999999" y="1094.8000000000002" name="top"/>
  <outline>
    <contour>
      <point x="134.26666666666665" y="0.0" type="line"/>
      <point x="286.43333333333334" y="0.0" type="line"/>
      <point x="286.43333333333334" y="575.4666666666666" type="line" smooth="yes"/>
      <point x="286.43333333333334" y="718.0333333333333"/>
      <point x="301.2666666666667" y="820.5333333333333"/>
      <point x="332.1666666666667" y="883.4333333333333" type="curve" smooth="yes"/>
      <point x="363.53333333333336" y="947.5"/>
      <point x="412.73333333333335" y="977.7"/>
      <point x="477.2666666666666" y="977.7" type="curve" smooth="yes"/>
      <point x="578.3333333333334" y="977.7"/>
      <point x="625.8333333333334" y="892.2"/>
      <point x="625.8333333333334" y="714.0333333333334" type="curve" smooth="yes"/>
      <point x="625.8333333333334" y="0.0" type="line"/>
      <point x="777.9333333333333" y="0.0" type="line"/>
      <point x="777.9333333333333" y="603.5" type="line" smooth="yes"/>
      <point x="777.9333333333333" y="728.4333333333333"/>
      <point x="792.4666666666667" y="824.3666666666667"/>
      <point x="823.4333333333333" y="885.2666666666667" type="curve" smooth="yes"/>
      <point x="854.5666666666667" y="948.5"/>
      <point x="904.4666666666666" y="977.7"/>
      <point x="969.5333333333334" y="977.7" type="curve" smooth="yes"/>
      <point x="1069.0666666666666" y="977.7"/>
      <point x="1117.6333333333332" y="890.9"/>
      <point x="1117.6333333333332" y="714.0333333333334" type="curve" smooth="yes"/>
      <point x="1117.6333333333332" y="0.0" type="line"/>
      <point x="1269.5" y="0.0" type="line"/>
      <point x="1269.5" y="715.0666666666667" type="line" smooth="yes"/>
      <point x="1269.5" y="989.0333333333333"/>
      <point x="1185.7666666666667" y="1115.8"/>
      <point x="1012.6666666666666" y="1115.8" type="curve" smooth="yes"/>
      <point x="890.0333333333334" y="1115.8"/>
      <point x="812.7333333333333" y="1059.8666666666668"/>
      <point x="757.6999999999999" y="925.9333333333333" type="curve"/>
      <point x="753.6666666666667" y="925.9333333333333" type="line"/>
      <point x="718.2333333333333" y="1050.2666666666667"/>
      <point x="643.4333333333334" y="1115.8"/>
      <point x="520.4" y="1115.8" type="curve" smooth="yes"/>
      <point x="413.1333333333334" y="1115.8"/>
      <point x="332.1333333333333" y="1060.2"/>
      <point x="285.6333333333333" y="946.3666666666667" type="curve"/>
      <point x="274.06666666666666" y="946.3666666666667" type="line"/>
      <point x="257.9" y="1094.8000000000002" type="line"/>
      <point x="134.26666666666665" y="1094.8000000000002" type="line"/>
    </contour>
  </outline>
</glyph>
<glyph name="p" format="2">
  <advance width="934.0000000000001"/>
  <unicode hex="0070"/>
  <anchor x="467.53333333333336" y="0.0" name="bottom"/>
  <anchor x="467.53333333333336" y="1094.8000000000002" name="top"/>
  <outline>
    <contour>
      <point x="134.26666666666665" y="-492.0" type="line"/>
      <point x="287.1333333333333" y="-492.0" type="line"/>
      <point x="287.1333333333333" y="8.366666666666667" type="line" smooth="yes"/>
      <point x="285.6" y="43.46666666666667"/>
      <point x="282.1333333333333" y="85.26666666666668"/>
      <point x="277.1" y="142.29999999999998" type="curve"/>
      <point x="287.5" y="142.29999999999998" type="line"/>
      <point x="339.1666666666667" y="37.53333333333333"/>
      <point x="427.93333333333334" y="-20.0"/>
      <point x="531.1" y="-20.0" type="curve" smooth="yes"/>
      <point x="734.7666666666667" y="-20.0"/>
      <point x="846.6" y="188.66666666666669"/>
      <point x="846.6" y="550.8333333333334" type="curve" smooth="yes"/>
      <point x="846.6" y="920.8666666666667"/>
      <point x="736.1666666666667" y="1115.8"/>
      <point x="525.8000000000001" y="1115.8" type="curve" smooth="yes"/>
      <point x="426.56666666666666" y="1115.8"/>
      <point x="340.5" y="1056.8999999999999"/>
      <point x="287.03333333333336" y="946.9666666666667" type="curve"/>
      <point x="277.1" y="946.9666666666667" type="line"/>
      <point x="254.96666666666664" y="1094.8000000000002" type="line"/>
      <point x="134.26666666666665" y="1094.8000000000002" type="line"/>
    </contour>
    <contour>
      <point x="494.8666666666666" y="113.60000000000001" type="curve" smooth="yes"/>
      <point x="324.6666666666667" y="113.60000000000001"/>
      <point x="286.43333333333334" y="319.53333333333336"/>
      <point x="286.43333333333334" y="554.5" type="curve" smooth="yes"/>
      <point x="286.43333333333334" y="586.6666666666666" type="line" smooth="yes"/>
      <point x="286.43333333333334" y="799.4"/>
      <point x="325.6666666666667" y="980.3"/>
      <point x="491.79999999999995" y="980.3" type="curve" smooth="yes"/>
      <point x="659.0333333333334" y="980.3"/>
      <point x="689.9666666666667" y="779.4"/>
      <point x="689.9666666666667" y="551.5333333333333" type="curve" smooth="yes"/>
      <point x="689.9666666666667" y="329.1666666666667"/>
      <point x="657.8666666666667" y="113.60000000000001"/>
    </contour>
  </outline>
</glyph>
<glyph name="q" format="2">
  <advance width="934.0000000000001"/>
  <unicode hex="0071"/>
  <anchor x="467.53333333333336" y="0.0" name="bottom"/>
  <anchor x="467.53333333333336" y="1094.8000000000002" name="top"/>
  <outline>
    <contour>
      <point x="648.3333333333334" y="-492.0" type="line"/>
      <point x="800.2666666666668" y="-492.0" type="line"/>
      <point x="800.2666666666668" y="1094.8000000000002" type="line"/>
      <point x="674.8000000000001" y="1094.8000000000002" type="line"/>
      <point x="654.9" y="950.5" type="line"/>
      <point x="645.0333333333334" y="950.5" type="line"/>
      <point x="589.0999999999999" y="1061.5"/>
      <point x="510.96666666666664" y="1115.8"/>
      <point x="407.66666666666663" y="1115.8" type="curve" smooth="yes"/>
      <point x="206.70000000000002" y="1115.8"/>
      <point x="87.23333333333333" y="922.1333333333333"/>
      <point x="87.23333333333333" y="546.8333333333333" type="curve" smooth="yes"/>
      <point x="87.23333333333333" y="172.03333333333333"/>
      <point x="202.43333333333334" y="-20.0"/>
      <point x="406.46666666666664" y="-20.0" type="curve" smooth="yes"/>
      <point x="513.4666666666667" y="-20.0"/>
      <point x="593.4333333333333" y="38.3"/>
      <point x="649.0333333333334" y="153.56666666666666" type="curve"/>
      <point x="658.2666666666667" y="153.56666666666666" type="line"/>
      <point x="651.5666666666667" y="73.60000000000001"/>
      <point x="648.3333333333334" y="14.999999999999998"/>
      <point x="648.3333333333334" y="-22.999999999999996" type="curve" smooth="yes"/>
    </contour>
    <contour>
      <point x="443.8" y="111.5" type="curve" smooth="yes"/>
      <point x="278.1333333333333" y="111.5"/>
      <point x="244.5666666666667" y="309.06666666666666"/>
      <point x="244.5666666666667" y="542.2666666666667" type="curve" smooth="yes"/>
      <point x="244.5666666666667" y="827.0"/>
      <point x="301.26666666666665" y="978.9"/>
      <point x="438.1333333333334" y="978.9" type="curve" smooth="yes"/>
      <point x="509.1666666666667" y="978.9"/>
      <point x="562.4" y="945.1666666666667"/>
      <point x="596.8" y="874.4000000000001" type="curve" smooth="yes"/>
      <point x="630.7333333333333" y="805.0333333333333"/>
      <point x="647.4000000000001" y="695.6666666666666"/>
      <point x="647.4000000000001" y="544.9666666666666" type="curve" smooth="yes"/>
      <point x="647.4000000000001" y="499.9333333333333" type="line" smooth="yes"/>
      <point x="647.4000000000001" y="381.3666666666667"/>
      <point x="632.5666666666667" y="289.5"/>
      <point x="604.1333333333333" y="226.73333333333335" type="curve" smooth="yes"/>
      <point x="569.9666666666667" y="150.96666666666667"/>
      <point x="516.0666666666667" y="111.5"/>
    </contour>
  </outline>
</glyph>
<glyph name="r" format="2">
  <advance width="602.6666666666667"/>
  <unicode hex="0072"/>
  <anchor x="179.66666666666666" y="0.0" name="bottom"/>
  <anchor x="301.7" y="1094.8000000000002" name="top"/>
  <outline>
    <contour>
      <point x="134.26666666666665" y="0.0" type="line"/>
      <point x="286.43333333333334" y="0.0" type="line"/>
      <point x="286.43333333333334" y="574.3" type="line" smooth="yes"/>
      <point x="286.43333333333334" y="649.4666666666667"/>
      <point x="295.20000000000005" y="717.4666666666667"/>
      <point x="312.03333333333336" y="777.0" type="curve" smooth="yes"/>
      <point x="345.46666666666664" y="895.6666666666666"/>
      <point x="411.59999999999997" y="965.3333333333334"/>
      <point x="487.8666666666666" y="965.3333333333334" type="curve" smooth="yes"/>
      <point x="516.5999999999999" y="965.3333333333334"/>
      <point x="540.6666666666666" y="960.8000000000001"/>
      <point x="563.0333333333333" y="951.9666666666667" type="curve"/>
      <point x="588.5999999999999" y="1101.5666666666666" type="line"/>
      <point x="559.1333333333333" y="1110.8000000000002"/>
      <point x="527.5999999999999" y="1115.8"/>
      <point x="492.43333333333334" y="1115.8" type="curve" smooth="yes"/>
      <point x="403.8" y="1115.8"/>
      <point x="336.5" y="1048.6"/>
      <point x="283.6333333333333" y="909.9333333333334" type="curve"/>
      <point x="276.1666666666667" y="909.9333333333334" type="line"/>
      <point x="259.4" y="1094.8000000000002" type="line"/>
      <point x="134.26666666666665" y="1094.8000000000002" type="line"/>
    </contour>
  </outline>
</glyph>
<glyph name="s" format="2">
  <advance width="685.3333333333334"/>
  <unicode hex="0073"/>
  <anchor x="308.0" y="0.0" name="bottom"/>
  <anchor x="342.8333333333333" y="1094.8000000000002" name="top"/>
  <outline>
    <contour>
      <point x="302.06666666666666" y="-20.0" type="curve" smooth="yes"/>
      <point x="510.09999999999997" y="-20.0"/>
      <point x="617.6666666666666" y="95.76666666666667"/>
      <point x="617.6666666666666" y="289.96666666666664" type="curve" smooth="yes"/>
      <point x="617.6666666666666" y="337.29999999999995"/>
      <point x="611.2" y="376.53333333333336"/>
      <point x="597.2666666666667" y="412.93333333333334" type="curve" smooth="yes"/>
      <point x="562.9333333333333" y="503.2"/>
      <point x="500.4333333333333" y="546.5333333333334"/>
      <point x="388.33333333333337" y="619.1666666666666" type="curve" smooth="yes"/>
      <point x="316.06666666666666" y="667.0"/>
      <point x="267.3" y="702.9"/>
      <point x="241.3666666666667" y="745.3333333333334" type="curve" smooth="yes"/>
      <point x="226.60000000000002" y="769.0"/>
      <point x="220.13333333333335" y="795.9"/>
      <point x="220.13333333333335" y="827.9333333333333" type="curve" smooth="yes"/>
      <point x="220.13333333333335" y="926.8333333333334"/>
      <point x="278.1333333333333" y="985.4333333333333"/>
      <point x="378.3" y="985.4333333333333" type="curve" smooth="yes"/>
      <point x="434.2666666666667" y="985.4333333333333"/>
      <point x="495.59999999999997" y="966.9666666666667"/>
      <point x="555.5" y="929.2666666666667" type="curve"/>
      <point x="617.1" y="1048.4333333333334" type="line"/>
      <point x="549.2666666666667" y="1092.5666666666666"/>
      <point x="467.06666666666666" y="1115.8"/>
      <point x="381.3" y="1115.8" type="curve" smooth="yes"/>
      <point x="189.43333333333334" y="1115.8"/>
      <point x="69.56666666666666" y="999.7"/>
      <point x="69.56666666666666" y="829.4333333333333" type="curve" smooth="yes"/>
      <point x="69.56666666666666" y="781.1"/>
      <point x="79.03333333333335" y="736.9000000000001"/>
      <point x="94.89999999999999" y="700.1" type="curve" smooth="yes"/>
      <point x="127.80000000000003" y="621.3333333333333"/>
      <point x="173.23333333333332" y="581.9000000000001"/>
      <point x="302.83333333333337" y="497.6" type="curve" smooth="yes"/>
      <point x="419.3" y="421.33333333333337"/>
      <point x="466.49999999999994" y="372.56666666666666"/>
      <point x="466.49999999999994" y="284.40000000000003" type="curve" smooth="yes"/>
      <point x="466.49999999999994" y="177.53333333333333"/>
      <point x="409.5" y="109.43333333333334"/>
      <point x="302.09999999999997" y="109.43333333333334" type="curve" smooth="yes"/>
      <point x="223.79999999999998" y="109.43333333333334"/>
      <point x="125.2" y="144.36666666666667"/>
      <point x="69.56666666666668" y="193.29999999999998" type="curve"/>
      <point x="69.56666666666668" y="42.63333333333333" type="line"/>
      <point x="119.2" y="8.133333333333335"/>
      <point x="201.63333333333333" y="-20.0"/>
    </contour>
  </outline>
</glyph>
<glyph name="t" format="2">
  <advance width="520.6666666666666"/>
  <unicode hex="0074"/>
  <anchor x="300.5" y="0.0" name="bottom"/>
  <anchor x="260.70000000000005" y="547.6666666666667" name="center"/>
  <anchor x="260.70000000000005" y="1094.8000000000002" name="top"/>
  <anchor x="645.3333333333333" y="1561.6666666666667" name="topright"/>
  <outline>
    <contour>
      <point x="348.20000000000005" y="-20.0" type="curve" smooth="yes"/>
      <point x="407.49999999999994" y="-20.0"/>
      <point x="454.59999999999997" y="-10.2"/>
      <point x="488.26666666666665" y="8.400000000000002" type="curve"/>
      <point x="488.26666666666665" y="131.1" type="line"/>
      <point x="458.5" y="119.36666666666667"/>
      <point x="427.59999999999997" y="113.5"/>
      <point x="396.03333333333336" y="113.5" type="curve" smooth="yes"/>
      <point x="322.56666666666666" y="113.5"/>
      <point x="294.1" y="154.63333333333333"/>
      <point x="294.1" y="277.6" type="curve" smooth="yes"/>
      <point x="294.1" y="968.3333333333334" type="line"/>
      <point x="475.90000000000003" y="968.3333333333334" type="line"/>
      <point x="475.90000000000003" y="1094.8000000000002" type="line"/>
      <point x="294.1" y="1094.8000000000002" type="line"/>
      <point x="294.1" y="1346.7333333333333" type="line"/>
      <point x="193.33333333333334" y="1346.7333333333333" type="line"/>
      <point x="149.96666666666667" y="1095.9666666666667" type="line"/>
      <point x="39.5" y="1045.3333333333333" type="line"/>
      <point x="39.5" y="968.3333333333334" type="line"/>
      <point x="141.0" y="968.3333333333334" type="line"/>
      <point x="141.0" y="262.7333333333333" type="line" smooth="yes"/>
      <point x="141.0" y="74.5"/>
      <point x="208.9" y="-20.0"/>
    </contour>
  </outline>
</glyph>
<glyph name="u" format="2">
  <advance width="926.0"/>
  <unicode hex="0075"/>
  <anchor x="453.6666666666667" y="0.0" name="bottom"/>
  <anchor x="858.0" y="10.0" name="ogonek"/>
  <anchor x="453.6666666666667" y="1094.6666666666667" name="top"/>
  <anchor x="888.0000000000001" y="1094.6666666666667" name="topright"/>
  <outline>
    <contour>
      <point x="395.6666666666667" y="-20.0" type="curve" smooth="yes"/>
      <point x="503.3333333333333" y="-20.0"/>
      <point x="592.0" y="43.0"/>
      <point x="639.0" y="149.0" type="curve"/>
      <point x="649.3333333333334" y="149.0" type="line"/>
      <point x="668.0" y="0.0" type="line"/>
      <point x="792.0000000000001" y="0.0" type="line"/>
      <point x="792.0000000000001" y="1094.6666666666667" type="line"/>
      <point x="640.3333333333334" y="1094.6666666666667" type="line"/>
      <point x="640.3333333333334" y="519.3333333333334" type="line" smooth="yes"/>
      <point x="640.3333333333334" y="368.6666666666667"/>
      <point x="621.6666666666667" y="263.3333333333333"/>
      <point x="583.0" y="199.33333333333334" type="curve" smooth="yes"/>
      <point x="548.0" y="140.0"/>
      <point x="495.00000000000006" y="113.33333333333333"/>
      <point x="425.99999999999994" y="113.33333333333333" type="curve" smooth="yes"/>
      <point x="326.0" y="113.33333333333333"/>
      <point x="280.6666666666667" y="204.0"/>
      <point x="280.6666666666667" y="401.6666666666667" type="curve" smooth="yes"/>
      <point x="280.6666666666667" y="1094.6666666666667" type="line"/>
      <point x="127.99999999999999" y="1094.6666666666667" type="line"/>
      <point x="127.99999999999999" y="380.3333333333333" type="line" smooth="yes"/>
      <point x="127.99999999999999" y="101.66666666666666"/>
      <point x="214.66666666666666" y="-20.0"/>
    </contour>
  </outline>
</glyph>
<glyph name="v" format="2">
  <advance width="739.6666666666666"/>
  <unicode hex="0076"/>
  <anchor x="370.40000000000003" y="0.0" name="bottom"/>
  <anchor x="370.40000000000003" y="1094.8" name="top"/>
  <outline>
    <contour>
      <point x="274.40000000000003" y="0.0" type="line"/>
      <point x="459.5" y="0.0" type="line"/>
      <point x="733.5333333333334" y="1094.8" type="line"/>
      <point x="577.5666666666666" y="1094.8" type="line"/>
      <point x="395.03333333333336" y="300.8333333333333" type="line" smooth="yes"/>
      <point x="384.79999999999995" y="255.96666666666667"/>
      <point x="375.99999999999994" y="187.4"/>
      <point x="372.93333333333334" y="152.86666666666667" type="curve"/>
      <point x="366.3333333333333" y="152.86666666666667" type="line"/>
      <point x="353.29999999999995" y="233.39999999999998"/>
      <point x="335.3" y="340.3"/>
      <point x="318.1666666666667" y="414.29999999999995" type="curve" smooth="yes"/>
      <point x="162.46666666666667" y="1094.8" type="line"/>
      <point x="6.5" y="1094.8" type="line"/>
    </contour>
  </outline>
</glyph>
<glyph name="w" format="2">
  <advance width="1241.6666666666667"/>
  <unicode hex="0077"/>
  <anchor x="620.5" y="0.0" name="bottom"/>
  <anchor x="620.5" y="1095.5666666666668" name="top"/>
  <outline>
    <contour>
      <point x="250.5666666666667" y="0.0" type="line"/>
      <point x="441.6333333333333" y="0.0" type="line"/>
      <point x="582.0333333333334" y="707.2333333333333" type="line" smooth="yes"/>
      <point x="597.0999999999999" y="783.2333333333333"/>
      <point x="603.4000000000001" y="819.3"/>
      <point x="619.1" y="936.0666666666667" type="curve"/>
      <point x="621.5666666666667" y="936.0666666666667" type="line"/>
      <point x="634.3333333333333" y="851.5666666666667"/>
      <point x="652.0" y="742.4333333333333"/>
      <point x="657.9666666666667" y="705.6" type="curve" smooth="yes"/>
      <point x="795.1333333333332" y="0.0" type="line"/>
      <point x="985.0666666666667" y="0.0" type="line"/>
      <point x="1222.0666666666666" y="1095.5666666666668" type="line"/>
      <point x="1072.5333333333333" y="1095.5666666666668" type="line"/>
      <point x="924.7666666666668" y="359.46666666666664" type="line" smooth="yes"/>
      <point x="908.4000000000001" y="275.5666666666667"/>
      <point x="900.3" y="222.0"/>
      <point x="892.9" y="148.9" type="curve"/>
      <point x="888.3666666666667" y="148.9" type="line"/>
      <point x="869.5000000000001" y="296.9"/>
      <point x="848.5333333333333" y="424.43333333333334"/>
      <point x="839.5333333333333" y="469.4" type="curve" smooth="yes"/>
      <point x="712.4000000000001" y="1095.5666666666668" type="line"/>
      <point x="530.9000000000001" y="1095.5666666666668" type="line"/>
      <point x="404.3" y="471.4000000000001" type="line" smooth="yes"/>
      <point x="382.66666666666663" y="368.20000000000005"/>
      <point x="364.6" y="239.3"/>
      <point x="354.6333333333333" y="148.9" type="curve"/>
      <point x="348.6333333333333" y="148.9" type="line"/>
      <point x="332.3666666666667" y="271.33333333333337"/>
      <point x="301.7666666666667" y="438.5"/>
      <point x="296.43333333333334" y="469.40000000000003" type="curve" smooth="yes"/>
      <point x="171.63333333333333" y="1095.5666666666668" type="line"/>
      <point x="20.0" y="1095.5666666666668" type="line"/>
    </contour>
  </outline>
</glyph>
<glyph name="y" format="2">
  <advance width="739.6666666666666"/>
  <unicode hex="0079"/>
  <anchor x="546.8666666666667" y="0.0" name="bottom"/>
  <anchor x="370.4" y="1094.8000000000002" name="top"/>
  <outline>
    <contour>
      <point x="118.56666666666668" y="-492.0" type="curve" smooth="yes"/>
      <point x="274.5333333333333" y="-492.0"/>
      <point x="360.09999999999997" y="-381.0"/>
      <point x="415.8333333333333" y="-163.46666666666667" type="curve" smooth="yes"/>
      <point x="732.8333333333334" y="1094.8000000000002" type="line"/>
      <point x="575.7" y="1094.8000000000002" type="line"/>
      <point x="424.3333333333333" y="417.4666666666667" type="line" smooth="yes"/>
      <point x="405.8333333333333" y="336.53333333333336"/>
      <point x="393.1666666666667" y="263.93333333333334"/>
      <point x="380.43333333333334" y="172.2" type="curve"/>
      <point x="373.1333333333333" y="172.2" type="line"/>
      <point x="358.7" y="268.2666666666667"/>
      <point x="337.5666666666667" y="376.0"/>
      <point x="323.6666666666667" y="433.66666666666663" type="curve" smooth="yes"/>
      <point x="162.46666666666667" y="1094.8000000000002" type="line"/>
      <point x="6.5" y="1094.8000000000002" type="line"/>
      <point x="297.56666666666666" y="-4.766666666666668" type="line"/>
      <point x="280.23333333333335" y="-76.16666666666666"/>
      <point x="272.8666666666667" y="-103.63333333333333"/>
      <point x="259.3666666666667" y="-153.33333333333331" type="curve" smooth="yes"/>
      <point x="220.99999999999997" y="-289.6666666666667"/>
      <point x="182.73333333333332" y="-356.56666666666666"/>
      <point x="93.36666666666667" y="-356.56666666666666" type="curve" smooth="yes"/>
      <point x="70.9" y="-356.56666666666666"/>
      <point x="40.63333333333334" y="-352.03333333333336"/>
      <point x="12.933333333333334" y="-343.5" type="curve"/>
      <point x="12.933333333333334" y="-475.0" type="line"/>
      <point x="47.96666666666667" y="-486.0"/>
      <point x="82.73333333333333" y="-492.0"/>
    </contour>
  </outline>
</glyph>
<glyph name="z" format="2">
  <advance width="604.3333333333334"/>
  <unicode hex="007A"/>
  <anchor x="302.73333333333335" y="0.0" name="bottom"/>
  <anchor x="302.73333333333335" y="1094.8000000000002" name="top"/>
  <outline>
    <contour>
      <point x="559.3333333333333" y="127.63333333333334" type="line"/>
      <point x="221.3666666666667" y="127.63333333333334" type="line"/>
      <point x="544.5666666666667" y="980.7" type="line"/>
      <point x="544.5666666666667" y="1094.8000000000002" type="line"/>
      <point x="74.16666666666666" y="1094.8000000000002" type="line"/>
      <point x="74.16666666666666" y="967.1666666666667" type="line"/>
      <point x="380.6333333333333" y="967.1666666666667" type="line"/>
      <point x="52.93333333333333" y="107.50000000000001" type="line"/>
      <point x="52.93333333333333" y="0.0" type="line"/>
      <point x="559.3333333333333" y="0.0" type="line"/>
    </contour>
  </outline>
</glyph>
<glyph name="asciitilde" format="2">
  <advance width="852.0"/>
  <unicode hex="007E"/>
  <note>
asciitilde
</note>
  <outline>
    <contour>
      <point x="63.9" y="597.4666666666667" type="line"/>
      <point x="126.03333333333333" y="673.8666666666667"/>
      <point x="192.60000000000002" y="715.9"/>
      <point x="250.8666666666667" y="715.9" type="curve" smooth="yes"/>
      <point x="297.3666666666667" y="715.9"/>
      <point x="329.1666666666667" y="703.0333333333334"/>
      <point x="405.3666666666667" y="662.0666666666666" type="curve" smooth="yes"/>
      <point x="495.03333333333336" y="614.1"/>
      <point x="533.9000000000001" y="603.0666666666667"/>
      <point x="599.6" y="603.0666666666667" type="curve" smooth="yes"/>
      <point x="675.5" y="603.0666666666667"/>
      <point x="738.7666666666667" y="639.0"/>
      <point x="787.7666666666665" y="706.1333333333333" type="curve"/>
      <point x="787.7666666666665" y="838.6666666666666" type="line"/>
      <point x="734.5666666666667" y="769.9666666666666"/>
      <point x="668.1" y="723.8333333333333"/>
      <point x="608.0" y="723.8333333333333" type="curve" smooth="yes"/>
      <point x="554.2333333333333" y="723.8333333333333"/>
      <point x="523.5666666666666" y="736.1"/>
      <point x="446.9" y="776.1333333333333" type="curve" smooth="yes"/>
      <point x="343.3666666666667" y="829.3666666666667"/>
      <point x="310.46666666666664" y="835.6"/>
      <point x="258.46666666666664" y="835.6" type="curve" smooth="yes"/>
      <point x="181.5" y="835.6"/>
      <point x="119.5" y="802.4666666666667"/>
      <point x="63.9" y="730.7666666666667" type="curve"/>
    </contour>
  </outline>
</glyph>
<glyph name="cent" format="2">
  <advance width="862.0"/>
  <unicode hex="00A2"/>
  <note>
cent
</note>
  <outline>
    <contour>
      <point x="440.79999999999995" y="-20.0" type="line"/>
      <point x="550.5666666666667" y="-20.0" type="line"/>
      <point x="550.5666666666667" y="254.99999999999997" type="line"/>
      <point x="495.00000000000006" y="179.39999999999998" type="line"/>
      <point x="503.3666666666667" y="179.16666666666669" type="line" smooth="yes"/>
      <point x="585.7333333333333" y="181.76666666666668"/>
      <point x="651.4333333333333" y="197.63333333333335"/>
      <point x="701.4666666666667" y="229.10000000000002" type="curve"/>
      <point x="701.4666666666667" y="363.03333333333336" type="line"/>
      <point x="641.8" y="333.6333333333333"/>
      <point x="582.4" y="317.5"/>
      <point x="531.9" y="317.5" type="curve" smooth="yes"/>
      <point x="470.43333333333334" y="317.5"/>
      <point x="423.53333333333336" y="343.06666666666666"/>
      <point x="391.6666666666667" y="392.03333333333336" type="curve" smooth="yes"/>
      <point x="342.1" y="460.66666666666663"/>
      <point x="318.6333333333333" y="582.3"/>
      <point x="318.6333333333333" y="742.6333333333333" type="curve" smooth="yes"/>
      <point x="318.6333333333333" y="904.4"/>
      <point x="339.2" y="1026.0333333333333"/>
      <point x="386.4" y="1096.9666666666667" type="curve" smooth="yes"/>
      <point x="418.73333333333335" y="1150.3666666666666"/>
      <point x="466.0666666666667" y="1178.5333333333333"/>
      <point x="530.5" y="1178.5333333333333" type="curve" smooth="yes"/>
      <point x="567.6" y="1178.5333333333333"/>
      <point x="611.4" y="1166.4333333333334"/>
      <point x="661.6666666666667" y="1142.7666666666667" type="curve"/>
      <point x="712.4333333333333" y="1269.6" type="line"/>
      <point x="655.4666666666667" y="1301.3666666666668"/>
      <point x="585.9666666666667" y="1317.8"/>
      <point x="503.56666666666666" y="1320.1999999999998" type="curve" smooth="yes"/>
      <point x="497.00000000000006" y="1320.4333333333332" type="line"/>
      <point x="550.5666666666667" y="1244.0333333333333" type="line"/>
      <point x="550.5666666666667" y="1481.3666666666666" type="line"/>
      <point x="440.79999999999995" y="1481.3666666666666" type="line"/>
      <point x="440.79999999999995" y="1309.7" type="line"/>
      <point x="252.33333333333331" y="1269.4333333333332"/>
      <point x="161.0" y="1074.1999999999998"/>
      <point x="161.0" y="744.3" type="curve" smooth="yes"/>
      <point x="161.0" y="412.96666666666664"/>
      <point x="255.43333333333337" y="227.03333333333333"/>
      <point x="440.79999999999995" y="188.56666666666666" type="curve"/>
    </contour>
  </outline>
</glyph>
<glyph name="currency" format="2">
  <advance width="1127.3333333333333"/>
  <unicode hex="00A4"/>
  <note>
currency
</note>
  <outline>
    <contour>
      <point x="927.6" y="274.0" type="line"/>
      <point x="1011.4999999999999" y="356.90000000000003" type="line"/>
      <point x="879.0" y="489.93333333333334" type="line"/>
      <point x="930.5333333333333" y="557.7333333333333"/>
      <point x="956.5666666666667" y="635.8333333333334"/>
      <point x="956.5666666666667" y="723.2333333333333" type="curve" smooth="yes"/>
      <point x="956.5666666666667" y="809.2333333333333"/>
      <point x="930.5333333333333" y="887.3333333333333"/>
      <point x="879.0" y="956.0666666666667" type="curve"/>
      <point x="1012.6666666666667" y="1088.9666666666667" type="line"/>
      <point x="926.3000000000001" y="1171.3999999999999" type="line"/>
      <point x="793.4000000000001" y="1038.5" type="line"/>
      <point x="725.4333333333334" y="1090.5"/>
      <point x="648.5666666666667" y="1116.0"/>
      <point x="563.2666666666667" y="1116.0" type="curve" smooth="yes"/>
      <point x="476.5" y="1116.0"/>
      <point x="398.6333333333333" y="1089.9666666666667"/>
      <point x="329.3666666666667" y="1037.6666666666667" type="curve"/>
      <point x="196.93333333333334" y="1171.3999999999999" type="line"/>
      <point x="113.33333333333333" y="1087.5666666666668" type="line"/>
      <point x="246.23333333333332" y="954.0666666666667" type="line"/>
      <point x="195.53333333333333" y="883.4"/>
      <point x="170.03333333333333" y="806.0666666666667"/>
      <point x="170.03333333333333" y="723.2333333333333" type="curve" smooth="yes"/>
      <point x="170.03333333333333" y="637.3"/>
      <point x="195.53333333333333" y="559.6666666666667"/>
      <point x="246.23333333333332" y="490.6333333333333" type="curve"/>
      <point x="115.33333333333333" y="360.43333333333334" type="line"/>
      <point x="198.46666666666667" y="276.0" type="line"/>
      <point x="328.66666666666663" y="407.0333333333333" type="line"/>
      <point x="394.53333333333336" y="355.96666666666664"/>
      <point x="472.70000000000005" y="330.7"/>
      <point x="563.5" y="330.7" type="curve" smooth="yes"/>
      <point x="648.3333333333334" y="330.7"/>
      <point x="725.1999999999999" y="355.96666666666664"/>
      <point x="793.4000000000001" y="405.5" type="curve"/>
    </contour>
    <contour>
      <point x="563.0333333333333" y="446.5" type="curve" smooth="yes"/>
      <point x="407.9666666666667" y="446.5"/>
      <point x="286.53333333333336" y="568.6999999999999"/>
      <point x="286.53333333333336" y="722.7666666666667" type="curve" smooth="yes"/>
      <point x="286.53333333333336" y="877.2333333333333"/>
      <point x="409.5" y="1001.5"/>
      <point x="563.0333333333333" y="1001.5" type="curve" smooth="yes"/>
      <point x="715.4333333333334" y="1001.5"/>
      <point x="842.5333333333334" y="879.8333333333333"/>
      <point x="842.5333333333334" y="722.7666666666667" type="curve" smooth="yes"/>
      <point x="842.5333333333334" y="569.9333333333333"/>
      <point x="718.5666666666667" y="446.5"/>
    </contour>
  </outline>
</glyph>
<glyph name="yen" format="2">
  <advance width="862.0"/>
  <unicode hex="00A5"/>
  <note>
yen
</note>
  <outline>
    <contour>
      <point x="351.3333333333333" y="0.0" type="line"/>
      <point x="508.4666666666667" y="0.0" type="line"/>
      <point x="508.4666666666667" y="270.23333333333335" type="line"/>
      <point x="737.4" y="270.23333333333335" type="line"/>
      <point x="737.4" y="381.6333333333333" type="line"/>
      <point x="508.4666666666667" y="381.6333333333333" type="line"/>
      <point x="508.4666666666667" y="562.2666666666667" type="line"/>
      <point x="737.4" y="562.2666666666667" type="line"/>
      <point x="737.4" y="673.6666666666666" type="line"/>
      <point x="544.1333333333333" y="673.6666666666666" type="line"/>
      <point x="788.0000000000001" y="1462.0" type="line"/>
      <point x="627.6333333333333" y="1462.0" type="line"/>
      <point x="431.7" y="745.2333333333333" type="line"/>
      <point x="231.70000000000002" y="1462.0" type="line"/>
      <point x="72.63333333333333" y="1462.0" type="line"/>
      <point x="315.43333333333334" y="673.6666666666666" type="line"/>
      <point x="126.06666666666668" y="673.6666666666666" type="line"/>
      <point x="126.06666666666668" y="562.2666666666667" type="line"/>
      <point x="351.3333333333333" y="562.2666666666667" type="line"/>
      <point x="351.3333333333333" y="381.6333333333333" type="line"/>
      <point x="126.06666666666668" y="381.6333333333333" type="line"/>
      <point x="126.06666666666668" y="270.23333333333335" type="line"/>
      <point x="351.3333333333333" y="270.23333333333335" type="line"/>
    </contour>
  </outline>
</glyph>
<glyph name="brokenbar" format="2">
  <advance width="892.0000000000001"/>
  <unicode hex="00A6"/>
  <note>
brokenbar
</note>
  <outline>
    <contour>
      <point x="379.96666666666664" y="-485.0" type="line"/>
      <point x="512.3000000000001" y="-485.0" type="line"/>
      <point x="512.3000000000001" y="317.5" type="line"/>
      <point x="379.96666666666664" y="317.5" type="line"/>
    </contour>
    <contour>
      <point x="379.96666666666664" y="753.1" type="line"/>
      <point x="512.3000000000001" y="753.1" type="line"/>
      <point x="512.3000000000001" y="1554.3666666666666" type="line"/>
      <point x="379.96666666666664" y="1554.3666666666666" type="line"/>
    </contour>
  </outline>
</glyph>
<glyph name="section" format="2">
  <advance width="755.9999999999999"/>
  <unicode hex="00A7"/>
  <note>
section
</note>
  <outline>
    <contour>
      <point x="330.8" y="53.666666666666664" type="curve" smooth="yes"/>
      <point x="540.1333333333333" y="53.666666666666664"/>
      <point x="656.0" y="164.63333333333333"/>
      <point x="656.0" y="337.5" type="curve" smooth="yes"/>
      <point x="656.0" y="428.6666666666667"/>
      <point x="621.6666666666667" y="489.7"/>
      <point x="538.4" y="553.4333333333333" type="curve"/>
      <point x="613.3666666666667" y="602.5"/>
      <point x="659.2666666666667" y="692.8"/>
      <point x="659.2666666666667" y="791.5333333333333" type="curve" smooth="yes"/>
      <point x="659.2666666666667" y="908.7"/>
      <point x="597.0333333333333" y="974.5666666666667"/>
      <point x="530.3333333333334" y="1025.6666666666665" type="curve" smooth="yes"/>
      <point x="508.53333333333325" y="1045.7666666666667"/>
      <point x="466.76666666666665" y="1073.1666666666665"/>
      <point x="403.56666666666666" y="1109.5666666666666" type="curve" smooth="yes"/>
      <point x="273.8333333333333" y="1184.7666666666667"/>
      <point x="240.03333333333333" y="1226.0333333333333"/>
      <point x="240.03333333333333" y="1303.3333333333335" type="curve" smooth="yes"/>
      <point x="240.03333333333333" y="1385.3333333333333"/>
      <point x="298.6" y="1443.4"/>
      <point x="398.6666666666667" y="1443.4" type="curve" smooth="yes"/>
      <point x="468.93333333333334" y="1443.4"/>
      <point x="535.0333333333333" y="1421.9666666666667"/>
      <point x="597.6" y="1386.4" type="curve"/>
      <point x="645.2333333333333" y="1497.0333333333333" type="line"/>
      <point x="559.3666666666667" y="1540.7666666666667"/>
      <point x="495.4333333333333" y="1556.9333333333334"/>
      <point x="400.5666666666667" y="1556.9333333333334" type="curve" smooth="yes"/>
      <point x="221.96666666666667" y="1556.9333333333334"/>
      <point x="101.30000000000001" y="1451.4333333333334"/>
      <point x="101.30000000000001" y="1292.0333333333333" type="curve" smooth="yes"/>
      <point x="101.30000000000001" y="1201.1333333333334"/>
      <point x="144.0" y="1121.1333333333334"/>
      <point x="226.9" y="1064.0" type="curve"/>
      <point x="140.33333333333334" y="1020.5666666666665"/>
      <point x="85.96666666666667" y="938.4666666666666"/>
      <point x="85.96666666666667" y="830.2333333333333" type="curve" smooth="yes"/>
      <point x="85.96666666666667" y="786.5999999999999"/>
      <point x="96.73333333333332" y="746.3333333333334"/>
      <point x="116.56666666666666" y="711.7" type="curve" smooth="yes"/>
      <point x="140.46666666666667" y="667.9333333333333"/>
      <point x="181.26666666666668" y="629.9333333333334"/>
      <point x="237.83333333333331" y="593.2333333333333" type="curve" smooth="yes"/>
      <point x="270.7" y="570.8"/>
      <point x="307.6" y="547.3666666666667"/>
      <point x="348.1666666666667" y="523.3" type="curve" smooth="yes"/>
      <point x="394.5666666666666" y="495.5666666666666"/>
      <point x="429.16666666666663" y="471.66666666666663"/>
      <point x="457.03333333333336" y="448.06666666666666" type="curve" smooth="yes"/>
      <point x="502.4" y="409.23333333333335"/>
      <point x="516.5" y="374.1"/>
      <point x="516.5" y="326.29999999999995" type="curve" smooth="yes"/>
      <point x="516.5" y="231.16666666666663"/>
      <point x="441.79999999999995" y="167.63333333333333"/>
      <point x="329.5" y="167.63333333333333" type="curve" smooth="yes"/>
      <point x="238.76666666666665" y="167.63333333333333"/>
      <point x="151.33333333333334" y="193.4666666666667"/>
      <point x="82.0" y="241.16666666666669" type="curve"/>
      <point x="82.0" y="110.36666666666665" type="line"/>
      <point x="140.46666666666667" y="75.46666666666667"/>
      <point x="224.33333333333334" y="53.666666666666664"/>
    </contour>
    <contour>
      <point x="447.36666666666673" y="616.5666666666667" type="curve"/>
      <point x="427.9666666666667" y="626.2666666666667"/>
      <point x="414.23333333333335" y="632.8666666666667"/>
      <point x="392.8666666666667" y="645.3" type="curve" smooth="yes"/>
      <point x="262.43333333333334" y="717.3666666666667"/>
      <point x="218.33333333333331" y="770.7666666666667"/>
      <point x="218.33333333333331" y="845.2666666666667" type="curve" smooth="yes"/>
      <point x="218.33333333333331" y="919.8333333333333"/>
      <point x="255.36666666666667" y="979.4"/>
      <point x="323.73333333333335" y="1004.5333333333333" type="curve"/>
      <point x="380.33333333333337" y="974.9"/>
      <point x="423.76666666666665" y="947.8333333333333"/>
      <point x="449.0" y="927.1333333333333" type="curve" smooth="yes"/>
      <point x="501.33333333333337" y="884.0999999999999"/>
      <point x="523.0333333333334" y="838.3"/>
      <point x="523.0333333333334" y="775.9666666666666" type="curve" smooth="yes"/>
      <point x="523.0333333333334" y="709.8000000000001"/>
      <point x="497.86666666666673" y="653.6666666666667"/>
    </contour>
  </outline>
</glyph>
<glyph name="copyright" format="2">
  <advance width="1698.6666666666667"/>
  <unicode hex="00A9"/>
  <note>
copyright
</note>
  <outline>
    <contour>
      <point x="880.1666666666666" y="274.1" type="curve" smooth="yes"/>
      <point x="955.8333333333334" y="274.1"/>
      <point x="1029.0333333333333" y="290.0333333333333"/>
      <point x="1099.8333333333333" y="322.1333333333333" type="curve"/>
      <point x="1099.8333333333333" y="441.4" type="line"/>
      <point x="1028.5" y="410.76666666666665"/>
      <point x="950.1333333333333" y="393.5"/>
      <point x="889.7" y="393.5" type="curve" smooth="yes"/>
      <point x="708.9333333333334" y="393.5"/>
      <point x="620.6" y="502.96666666666664"/>
      <point x="620.6" y="730.4333333333333" type="curve" smooth="yes"/>
      <point x="620.6" y="946.2333333333333"/>
      <point x="722.4666666666666" y="1067.2666666666667"/>
      <point x="895.3666666666667" y="1067.2666666666667" type="curve" smooth="yes"/>
      <point x="955.9" y="1067.2666666666667"/>
      <point x="1023.4" y="1050.8666666666668"/>
      <point x="1090.7333333333333" y="1018.3000000000001" type="curve"/>
      <point x="1138.9333333333332" y="1127.2" type="line"/>
      <point x="1054.8" y="1168.0333333333333"/>
      <point x="972.5" y="1186.6666666666667"/>
      <point x="888.6" y="1186.6666666666667" type="curve" smooth="yes"/>
      <point x="636.6333333333333" y="1186.6666666666667"/>
      <point x="478.26666666666665" y="1009.4666666666667"/>
      <point x="478.26666666666665" y="728.2666666666667" type="curve" smooth="yes"/>
      <point x="478.26666666666665" y="436.7666666666667"/>
      <point x="624.1666666666666" y="274.1"/>
    </contour>
    <contour>
      <point x="850.1333333333333" y="-20.0" type="curve" smooth="yes"/>
      <point x="986.8" y="-20.0"/>
      <point x="1113.3333333333333" y="14.066666666666666"/>
      <point x="1230.5666666666666" y="83.06666666666666" type="curve" smooth="yes"/>
      <point x="1464.0333333333333" y="221.60000000000002"/>
      <point x="1600.9666666666667" y="466.1333333333333"/>
      <point x="1600.9666666666667" y="731.2333333333333" type="curve" smooth="yes"/>
      <point x="1600.9666666666667" y="865.5333333333333"/>
      <point x="1567.2" y="992.1666666666667"/>
      <point x="1499.0333333333333" y="1110.1" type="curve" smooth="yes"/>
      <point x="1362.6333333333332" y="1343.8"/>
      <point x="1113.1666666666665" y="1483.0"/>
      <point x="848.5" y="1483.0" type="curve" smooth="yes"/>
      <point x="715.3666666666667" y="1483.0"/>
      <point x="589.6666666666666" y="1449.4666666666667"/>
      <point x="472.2" y="1382.0" type="curve" smooth="yes"/>
      <point x="239.2" y="1247.0"/>
      <point x="97.2" y="998.0"/>
      <point x="97.2" y="730.5333333333333" type="curve" smooth="yes"/>
      <point x="97.2" y="597.8333333333334"/>
      <point x="130.9" y="473.6"/>
      <point x="195.2" y="360.0" type="curve" smooth="yes"/>
      <point x="326.1333333333333" y="128.06666666666666"/>
      <point x="573.4333333333333" y="-20.0"/>
    </contour>
    <contour>
      <point x="849.2" y="86.46666666666667" type="curve" smooth="yes"/>
      <point x="732.3000000000001" y="86.46666666666667"/>
      <point x="624.1666666666667" y="116.23333333333333"/>
      <point x="526.6666666666666" y="172.9" type="curve" smooth="yes"/>
      <point x="327.4" y="288.8666666666667"/>
      <point x="204.43333333333334" y="500.3"/>
      <point x="204.43333333333334" y="731.7" type="curve" smooth="yes"/>
      <point x="204.43333333333334" y="845.2"/>
      <point x="233.5" y="952.3333333333334"/>
      <point x="291.56666666666666" y="1053.2333333333333" type="curve" smooth="yes"/>
      <point x="408.46666666666664" y="1254.5"/>
      <point x="620.0333333333333" y="1376.5333333333333"/>
      <point x="849.6666666666666" y="1376.5333333333333" type="curve" smooth="yes"/>
      <point x="966.0" y="1376.5333333333333"/>
      <point x="1074.6666666666667" y="1346.9333333333332"/>
      <point x="1175.5666666666666" y="1287.5666666666666" type="curve" smooth="yes"/>
      <point x="1374.9" y="1168.5333333333333"/>
      <point x="1493.9666666666667" y="959.9666666666666"/>
      <point x="1493.9666666666667" y="730.7666666666667" type="curve" smooth="yes"/>
      <point x="1493.9666666666667" y="615.7333333333333"/>
      <point x="1465.1333333333334" y="507.1333333333333"/>
      <point x="1407.5333333333333" y="408.0" type="curve" smooth="yes"/>
      <point x="1292.0333333333333" y="209.9"/>
      <point x="1082.0" y="86.46666666666667"/>
    </contour>
  </outline>
</glyph>
<glyph name="ordfeminine" format="2">
  <advance width="612.6666666666666"/>
  <unicode hex="00AA"/>
  <note>
ordfeminine
</note>
  <outline>
    <contour>
      <point x="225.96666666666664" y="789.3666666666667" type="curve" smooth="yes"/>
      <point x="297.43333333333334" y="789.3666666666667"/>
      <point x="357.83333333333337" y="825.1666666666666"/>
      <point x="402.3666666666667" y="892.1333333333333" type="curve"/>
      <point x="408.0333333333333" y="892.1333333333333" type="line"/>
      <point x="427.0" y="801.3666666666667" type="line"/>
      <point x="504.06666666666666" y="801.3666666666667" type="line"/>
      <point x="504.06666666666666" y="1253.5666666666668" type="line" smooth="yes"/>
      <point x="504.06666666666666" y="1403.7333333333333"/>
      <point x="444.7333333333333" y="1479.0"/>
      <point x="307.23333333333335" y="1479.0" type="curve" smooth="yes"/>
      <point x="239.23333333333332" y="1479.0"/>
      <point x="172.96666666666667" y="1460.2666666666667"/>
      <point x="108.46666666666667" y="1423.0333333333333" type="curve"/>
      <point x="146.03333333333333" y="1338.0333333333333" type="line"/>
      <point x="198.4" y="1368.2333333333333"/>
      <point x="246.43333333333334" y="1383.1"/>
      <point x="289.8333333333333" y="1383.1" type="curve" smooth="yes"/>
      <point x="362.7333333333333" y="1383.1"/>
      <point x="393.3666666666667" y="1342.3333333333333"/>
      <point x="393.3666666666667" y="1250.6333333333334" type="curve" smooth="yes"/>
      <point x="393.3666666666667" y="1200.1" type="line"/>
      <point x="304.6333333333333" y="1193.2666666666667" type="line" smooth="yes"/>
      <point x="131.1" y="1180.6666666666667"/>
      <point x="57.00000000000001" y="1113.5666666666668"/>
      <point x="57.00000000000001" y="984.4" type="curve" smooth="yes"/>
      <point x="57.00000000000001" y="859.2"/>
      <point x="125.83333333333333" y="789.3666666666667"/>
    </contour>
    <contour>
      <point x="258.1333333333333" y="882.8666666666667" type="curve" smooth="yes"/>
      <point x="199.96666666666667" y="882.8666666666667"/>
      <point x="171.70000000000002" y="915.6666666666667"/>
      <point x="171.70000000000002" y="983.5" type="curve" smooth="yes"/>
      <point x="171.70000000000002" y="1069.6333333333332"/>
      <point x="216.26666666666665" y="1101.4"/>
      <point x="327.8666666666667" y="1113.5333333333333" type="curve" smooth="yes"/>
      <point x="393.3666666666667" y="1120.5333333333333" type="line"/>
      <point x="393.3666666666667" y="1063.4" type="line" smooth="yes"/>
      <point x="393.3666666666667" y="948.9666666666667"/>
      <point x="341.29999999999995" y="882.8666666666667"/>
    </contour>
  </outline>
</glyph>
<glyph name="logicalnot" format="2">
  <advance width="852.0"/>
  <unicode hex="00AC"/>
  <note>
logicalnot
</note>
  <outline>
    <contour>
      <point x="643.2333333333333" y="250.00000000000003" type="line"/>
      <point x="762.8" y="250.00000000000003" type="line"/>
      <point x="762.8" y="784.5333333333334" type="line"/>
      <point x="74.63333333333333" y="784.5333333333334" type="line"/>
      <point x="74.63333333333333" y="660.5333333333333" type="line"/>
      <point x="643.2333333333333" y="660.5333333333333" type="line"/>
    </contour>
  </outline>
</glyph>
<glyph name="registered" format="2">
  <advance width="1698.6666666666667"/>
  <unicode hex="00AE"/>
  <note>
registered
</note>
  <outline>
    <contour>
      <point x="850.1333333333333" y="-20.0" type="curve" smooth="yes"/>
      <point x="986.8" y="-20.0"/>
      <point x="1113.3333333333333" y="14.066666666666666"/>
      <point x="1230.5666666666666" y="83.06666666666666" type="curve" smooth="yes"/>
      <point x="1464.0333333333333" y="221.60000000000002"/>
      <point x="1600.9666666666667" y="466.1333333333333"/>
      <point x="1600.9666666666667" y="731.2333333333333" type="curve" smooth="yes"/>
      <point x="1600.9666666666667" y="865.5333333333333"/>
      <point x="1567.2" y="992.1666666666667"/>
      <point x="1499.0333333333333" y="1110.1" type="curve" smooth="yes"/>
      <point x="1362.6333333333332" y="1343.8"/>
      <point x="1113.1666666666665" y="1483.0"/>
      <point x="848.5" y="1483.0" type="curve" smooth="yes"/>
      <point x="715.3666666666667" y="1483.0"/>
      <point x="589.6666666666666" y="1449.4666666666667"/>
      <point x="472.2" y="1382.0" type="curve" smooth="yes"/>
      <point x="239.2" y="1247.0"/>
      <point x="97.2" y="998.0"/>
      <point x="97.2" y="730.5333333333333" type="curve" smooth="yes"/>
      <point x="97.2" y="597.8333333333334"/>
      <point x="130.9" y="473.6"/>
      <point x="195.2" y="360.0" type="curve" smooth="yes"/>
      <point x="326.1333333333333" y="128.06666666666666"/>
      <point x="573.4333333333333" y="-20.0"/>
    </contour>
    <contour>
      <point x="849.2" y="86.46666666666667" type="curve" smooth="yes"/>
      <point x="732.3000000000001" y="86.46666666666667"/>
      <point x="624.1666666666667" y="116.23333333333333"/>
      <point x="526.6666666666666" y="172.9" type="curve" smooth="yes"/>
      <point x="327.4" y="288.8666666666667"/>
      <point x="204.43333333333334" y="500.3"/>
      <point x="204.43333333333334" y="731.7" type="curve" smooth="yes"/>
      <point x="204.43333333333334" y="845.2"/>
      <point x="233.5" y="952.3333333333334"/>
      <point x="291.56666666666666" y="1053.2333333333333" type="curve" smooth="yes"/>
      <point x="408.46666666666664" y="1254.5"/>
      <point x="620.0333333333333" y="1376.5333333333333"/>
      <point x="849.6666666666666" y="1376.5333333333333" type="curve" smooth="yes"/>
      <point x="966.0" y="1376.5333333333333"/>
      <point x="1074.6666666666667" y="1346.9333333333332"/>
      <point x="1175.5666666666666" y="1287.5666666666666" type="curve" smooth="yes"/>
      <point x="1374.9" y="1168.5333333333333"/>
      <point x="1493.9666666666667" y="959.9666666666666"/>
      <point x="1493.9666666666667" y="730.7666666666667" type="curve" smooth="yes"/>
      <point x="1493.9666666666667" y="615.7333333333333"/>
      <point x="1465.1333333333334" y="507.1333333333333"/>
      <point x="1407.5333333333333" y="408.0" type="curve" smooth="yes"/>
      <point x="1292.0333333333333" y="209.9"/>
      <point x="1082.0" y="86.46666666666667"/>
    </contour>
    <contour>
      <point x="586.3000000000001" y="285.1666666666667" type="line"/>
      <point x="725.5666666666667" y="285.1666666666667" type="line"/>
      <point x="725.5666666666667" y="639.3333333333333" type="line"/>
      <point x="860.3666666666667" y="639.3333333333333" type="line"/>
      <point x="1037.6333333333334" y="285.1666666666667" type="line"/>
      <point x="1192.9333333333332" y="285.1666666666667" type="line"/>
      <point x="981.6333333333333" y="676.3666666666667" type="line"/>
      <point x="1080.3333333333333" y="719.8333333333334"/>
      <point x="1128.8666666666668" y="797.0333333333334"/>
      <point x="1128.8666666666668" y="916.1333333333333" type="curve" smooth="yes"/>
      <point x="1128.8666666666668" y="1092.8"/>
      <point x="1019.1" y="1175.9"/>
      <point x="812.9333333333333" y="1175.9" type="curve" smooth="yes"/>
      <point x="586.3000000000001" y="1175.9" type="line"/>
    </contour>
    <contour>
      <point x="725.5666666666667" y="745.9333333333334" type="line"/>
      <point x="725.5666666666667" y="1064.4666666666667" type="line"/>
      <point x="811.0666666666667" y="1064.4666666666667" type="line" smooth="yes"/>
      <point x="929.4666666666667" y="1064.4666666666667"/>
      <point x="987.3" y="1017.2666666666667"/>
      <point x="987.3" y="909.0333333333333" type="curve" smooth="yes"/>
      <point x="987.3" y="800.0666666666667"/>
      <point x="924.9666666666667" y="745.9333333333334"/>
      <point x="813.0666666666667" y="745.9333333333334" type="curve" smooth="yes"/>
    </contour>
  </outline>
</glyph>
<glyph name="degree" format="2">
  <advance width="861.6666666666666"/>
  <unicode hex="00B0"/>
  <note>
degree
</note>
  <outline>
    <contour>
      <point x="430.53333333333336" y="858.4" type="curve" smooth="yes"/>
      <point x="605.5333333333333" y="858.4"/>
      <point x="743.5333333333333" y="990.2666666666667"/>
      <point x="743.5333333333333" y="1170.2333333333333" type="curve" smooth="yes"/>
      <point x="743.5333333333333" y="1349.9666666666667"/>
      <point x="604.1333333333333" y="1483.0"/>
      <point x="430.53333333333336" y="1483.0" type="curve" smooth="yes"/>
      <point x="255.5333333333333" y="1483.0"/>
      <point x="118.0" y="1349.2666666666667"/>
      <point x="118.0" y="1170.2333333333333" type="curve" smooth="yes"/>
      <point x="118.0" y="989.5"/>
      <point x="251.4666666666667" y="858.4"/>
    </contour>
    <contour>
      <point x="430.53333333333336" y="971.6666666666666" type="curve" smooth="yes"/>
      <point x="324.1" y="971.6666666666666"/>
      <point x="236.7" y="1059.9666666666667"/>
      <point x="236.7" y="1170.2333333333333" type="curve" smooth="yes"/>
      <point x="236.7" y="1279.2"/>
      <point x="321.03333333333336" y="1369.5"/>
      <point x="430.53333333333336" y="1369.5" type="curve" smooth="yes"/>
      <point x="539.5" y="1369.5"/>
      <point x="624.1333333333333" y="1282.5"/>
      <point x="624.1333333333333" y="1170.2333333333333" type="curve" smooth="yes"/>
      <point x="624.1333333333333" y="1057.8999999999999"/>
      <point x="536.4333333333333" y="971.6666666666666"/>
    </contour>
  </outline>
</glyph>
<glyph name="twosuperior" format="2">
  <advance width="638.6666666666667"/>
  <unicode hex="00B2"/>
  <note>
twosuperior
</note>
  <outline>
    <contour>
      <point x="50.63333333333333" y="586.0" type="line"/>
      <point x="554.3" y="586.0" type="line"/>
      <point x="554.3" y="703.0" type="line"/>
      <point x="199.0" y="702.5333333333333" type="line"/>
      <point x="242.33333333333331" y="753.8333333333334"/>
      <point x="286.20000000000005" y="804.3666666666667"/>
      <point x="329.5333333333333" y="855.6666666666666" type="curve" smooth="yes"/>
      <point x="421.6333333333334" y="961.7"/>
      <point x="479.4" y="1040.6"/>
      <point x="503.7" y="1094.6999999999998" type="curve" smooth="yes"/>
      <point x="525.6666666666666" y="1141.5"/>
      <point x="536.5666666666667" y="1192.0666666666666"/>
      <point x="536.5666666666667" y="1244.2333333333333" type="curve" smooth="yes"/>
      <point x="536.5666666666667" y="1392.3666666666668"/>
      <point x="446.3" y="1483.0"/>
      <point x="293.93333333333334" y="1483.0" type="curve" smooth="yes"/>
      <point x="201.46666666666667" y="1483.0"/>
      <point x="120.76666666666668" y="1444.9"/>
      <point x="50.300000000000004" y="1369.2333333333333" type="curve"/>
      <point x="121.4" y="1282.3333333333333" type="line"/>
      <point x="174.96666666666667" y="1338.5"/>
      <point x="229.20000000000002" y="1366.4333333333334"/>
      <point x="284.93333333333334" y="1366.4333333333334" type="curve" smooth="yes"/>
      <point x="361.8" y="1366.4333333333334"/>
      <point x="408.26666666666665" y="1317.3"/>
      <point x="408.26666666666665" y="1239.5666666666666" type="curve" smooth="yes"/>
      <point x="408.26666666666665" y="1200.0666666666666"/>
      <point x="402.09999999999997" y="1164.3"/>
      <point x="389.3" y="1135.0666666666666" type="curve" smooth="yes"/>
      <point x="368.5333333333333" y="1082.7666666666667"/>
      <point x="322.6666666666667" y="1020.3333333333334"/>
      <point x="235.4" y="912.9000000000001" type="curve" smooth="yes"/>
      <point x="50.63333333333333" y="690.3666666666667" type="line"/>
    </contour>
  </outline>
</glyph>
<glyph name="micro" format="2">
  <advance width="928.6666666666667"/>
  <unicode hex="00B5"/>
  <note>
mu
</note>
  <outline>
    <contour>
      <point x="130.53333333333333" y="-492.0" type="line"/>
      <point x="283.6333333333333" y="-492.0" type="line"/>
      <point x="283.6333333333333" y="-148.56666666666666" type="line" smooth="yes"/>
      <point x="283.6333333333333" y="-88.83333333333334"/>
      <point x="280.6333333333334" y="-18.500000000000004"/>
      <point x="274.6333333333334" y="64.06666666666666" type="curve"/>
      <point x="281.0666666666667" y="64.06666666666666" type="line"/>
      <point x="312.6" y="7.533333333333332"/>
      <point x="360.3666666666667" y="-20.0"/>
      <point x="426.29999999999995" y="-20.0" type="curve" smooth="yes"/>
      <point x="514.3666666666667" y="-20.0"/>
      <point x="596.8333333333334" y="38.86666666666667"/>
      <point x="641.3666666666667" y="148.96666666666667" type="curve"/>
      <point x="651.9333333333333" y="148.96666666666667" type="line"/>
      <point x="670.9333333333334" y="0.0" type="line"/>
      <point x="795.2666666666667" y="0.0" type="line"/>
      <point x="795.2666666666667" y="1094.8000000000002" type="line"/>
      <point x="642.9333333333334" y="1094.8000000000002" type="line"/>
      <point x="642.9333333333334" y="519.3333333333334" type="line" smooth="yes"/>
      <point x="642.9333333333334" y="356.03333333333336"/>
      <point x="620.6" y="244.93333333333334"/>
      <point x="573.6333333333333" y="184.20000000000002" type="curve" smooth="yes"/>
      <point x="541.0666666666667" y="136.53333333333336"/>
      <point x="492.40000000000003" y="113.5"/>
      <point x="428.03333333333336" y="113.5" type="curve" smooth="yes"/>
      <point x="331.43333333333334" y="113.5"/>
      <point x="283.6333333333333" y="196.83333333333334"/>
      <point x="283.6333333333333" y="372.76666666666665" type="curve" smooth="yes"/>
      <point x="283.6333333333333" y="1094.8000000000002" type="line"/>
      <point x="130.53333333333333" y="1094.8000000000002" type="line"/>
    </contour>
  </outline>
</glyph>
<glyph name="onesuperior" format="2">
  <advance width="638.6666666666667"/>
  <unicode hex="00B9"/>
  <note>
onesuperior
</note>
  <outline>
    <contour>
      <point x="308.66666666666663" y="586.0" type="line"/>
      <point x="431.66666666666663" y="586.0" type="line"/>
      <point x="431.66666666666663" y="1462.0" type="line"/>
      <point x="326.0" y="1462.0" type="line"/>
      <point x="76.66666666666666" y="1271.6666666666665" type="line"/>
      <point x="140.33333333333334" y="1189.3333333333335" type="line"/>
      <point x="206.33333333333331" y="1238.6666666666667"/>
      <point x="245.33333333333331" y="1269.0"/>
      <point x="262.6666666666667" y="1284.0" type="curve" smooth="yes"/>
      <point x="277.6666666666667" y="1296.3333333333335"/>
      <point x="294.6666666666667" y="1312.0"/>
      <point x="315.3333333333333" y="1331.6666666666667" type="curve"/>
      <point x="311.33333333333337" y="1279.3333333333335"/>
      <point x="308.66666666666663" y="1210.3333333333333"/>
      <point x="308.66666666666663" y="1149.0" type="curve" smooth="yes"/>
    </contour>
  </outline>
</glyph>
<glyph name="AE" format="2">
  <advance width="1243.6666666666667"/>
  <unicode hex="00C6"/>
  <note>
AE
</note>
  <anchor x="622.2666666666667" y="0.0" name="bottom"/>
  <anchor x="787.4000000000001" y="1462.0" name="top"/>
  <outline>
    <contour>
      <point x="1149.7333333333333" y="142.06666666666666" type="line"/>
      <point x="734.0666666666667" y="142.06666666666666" type="line"/>
      <point x="734.0666666666667" y="693.5666666666667" type="line"/>
      <point x="1123.5666666666666" y="693.5666666666667" type="line"/>
      <point x="1123.5666666666666" y="834.9333333333334" type="line"/>
      <point x="734.0666666666667" y="834.9333333333334" type="line"/>
      <point x="734.0666666666667" y="1319.5666666666666" type="line"/>
      <point x="1149.7333333333333" y="1319.5666666666666" type="line"/>
      <point x="1149.7333333333333" y="1462.0" type="line"/>
      <point x="446.8333333333333" y="1462.0" type="line"/>
      <point x="0.0" y="0.0" type="line"/>
      <point x="160.0" y="0.0" type="line"/>
      <point x="299.16666666666663" y="476.5666666666666" type="line"/>
      <point x="577.1999999999999" y="476.5666666666666" type="line"/>
      <point x="577.1999999999999" y="0.0" type="line"/>
      <point x="1149.7333333333333" y="0.0" type="line"/>
    </contour>
    <contour>
      <point x="577.1999999999999" y="1318.5" type="line"/>
      <point x="577.1999999999999" y="622.4666666666666" type="line"/>
      <point x="342.26666666666665" y="622.4666666666666" type="line"/>
      <point x="545.4666666666667" y="1318.5" type="line"/>
    </contour>
  </outline>
</glyph>
<glyph name="Eth" format="2">
  <advance width="1044.3333333333335"/>
  <unicode hex="00D0"/>
  <note>
Eth
</note>
  <outline>
    <contour>
      <point x="150.0" y="0.0" type="line"/>
      <point x="442.6666666666667" y="0.0" type="line" smooth="yes"/>
      <point x="772.6666666666666" y="0.0"/>
      <point x="943.3333333333334" y="252.66666666666669"/>
      <point x="943.3333333333334" y="745.0" type="curve" smooth="yes"/>
      <point x="943.3333333333334" y="1208.3333333333333"/>
      <point x="771.6666666666667" y="1462.0"/>
      <point x="458.0" y="1462.0" type="curve" smooth="yes"/>
      <point x="150.0" y="1462.0" type="line"/>
      <point x="150.0" y="808.0" type="line"/>
      <point x="40.666666666666664" y="808.0" type="line"/>
      <point x="40.666666666666664" y="668.0" type="line"/>
      <point x="150.0" y="668.0" type="line"/>
    </contour>
    <contour>
      <point x="306.0" y="139.33333333333334" type="line"/>
      <point x="306.0" y="668.0" type="line"/>
      <point x="517.0" y="668.0" type="line"/>
      <point x="517.0" y="808.0" type="line"/>
      <point x="306.0" y="808.0" type="line"/>
      <point x="306.0" y="1323.6666666666667" type="line"/>
      <point x="451.66666666666663" y="1323.6666666666667" type="line" smooth="yes"/>
      <point x="669.6666666666666" y="1323.6666666666667"/>
      <point x="781.6666666666666" y="1122.0"/>
      <point x="781.6666666666666" y="738.3333333333333" type="curve" smooth="yes"/>
      <point x="781.6666666666666" y="345.3333333333333"/>
      <point x="674.3333333333333" y="139.33333333333334"/>
      <point x="439.3333333333333" y="139.33333333333334" type="curve" smooth="yes"/>
    </contour>
  </outline>
</glyph>
<glyph name="multiply" format="2">
  <advance width="852.0"/>
  <unicode hex="00D7"/>
  <note>
multiply
</note>
  <outline>
    <contour>
      <point x="159.66666666666669" y="352.6666666666667" type="line"/>
      <point x="426.3333333333333" y="632.6666666666666" type="line"/>
      <point x="690.6666666666667" y="355.33333333333337" type="line"/>
      <point x="772.0" y="443.6666666666667" type="line"/>
      <point x="508.33333333333337" y="721.3333333333334" type="line"/>
      <point x="775.9999999999999" y="1001.6666666666666" type="line"/>
      <point x="690.6666666666666" y="1092.3333333333333" type="line"/>
      <point x="423.6666666666667" y="812.0" type="line"/>
      <point x="158.66666666666669" y="1089.6666666666667" type="line"/>
      <point x="76.99999999999999" y="1001.6666666666666" type="line"/>
      <point x="342.3333333333333" y="724.0" type="line"/>
      <point x="75.66666666666667" y="444.6666666666667" type="line"/>
    </contour>
  </outline>
</glyph>
<glyph name="Oslash" format="2">
  <advance width="1116.3333333333335"/>
  <unicode hex="00D8"/>
  <note>
Oslash
</note>
  <anchor x="558.6666666666667" y="0.0" name="bottom"/>
  <anchor x="558.6666666666667" y="1462.0" name="top"/>
  <outline>
    <contour>
      <point x="218.36666666666665" y="-96.80000000000001" type="line"/>
      <point x="304.43333333333334" y="75.1" type="line"/>
      <point x="373.36666666666673" y="11.466666666666667"/>
      <point x="457.8" y="-20.0"/>
      <point x="557.9000000000001" y="-20.0" type="curve" smooth="yes"/>
      <point x="852.3666666666668" y="-20.0"/>
      <point x="1014.2" y="248.99999999999997"/>
      <point x="1014.2" y="733.0" type="curve" smooth="yes"/>
      <point x="1014.2" y="963.9"/>
      <point x="978.5333333333332" y="1142.6999999999998"/>
      <point x="907.1333333333334" y="1269.9333333333332" type="curve"/>
      <point x="1022.6666666666666" y="1494.9333333333334" type="line"/>
      <point x="912.6666666666666" y="1547.8333333333333" type="line"/>
      <point x="824.6" y="1373.6999999999998" type="line"/>
      <point x="751.7333333333332" y="1446.7"/>
      <point x="663.5999999999999" y="1483.7"/>
      <point x="560.6666666666667" y="1483.7" type="curve" smooth="yes"/>
      <point x="258.53333333333336" y="1483.7"/>
      <point x="102.13333333333334" y="1232.2333333333333"/>
      <point x="102.13333333333334" y="735.0" type="curve" smooth="yes"/>
      <point x="102.13333333333334" y="490.03333333333336"/>
      <point x="141.33333333333334" y="302.93333333333334"/>
      <point x="219.66666666666666" y="173.93333333333334" type="curve"/>
      <point x="108.36666666666666" y="-46.266666666666666" type="line"/>
    </contour>
    <contour>
      <point x="309.09999999999997" y="351.1" type="line"/>
      <point x="278.2666666666667" y="445.1333333333333"/>
      <point x="262.46666666666664" y="572.5333333333334"/>
      <point x="262.46666666666664" y="733.0" type="curve" smooth="yes"/>
      <point x="262.46666666666664" y="1130.1999999999998"/>
      <point x="362.46666666666664" y="1340.9333333333334"/>
      <point x="560.6666666666667" y="1340.9333333333334" type="curve" smooth="yes"/>
      <point x="643.7666666666667" y="1340.9333333333334"/>
      <point x="708.6" y="1304.9666666666667"/>
      <point x="755.3" y="1232.5666666666668" type="curve"/>
    </contour>
    <contour>
      <point x="557.9000000000001" y="123.00000000000001" type="curve" smooth="yes"/>
      <point x="480.56666666666666" y="123.00000000000001"/>
      <point x="419.66666666666663" y="153.36666666666667"/>
      <point x="374.96666666666664" y="213.33333333333334" type="curve"/>
      <point x="816.7666666666668" y="1086.4333333333334" type="line"/>
      <point x="841.6" y="996.4666666666667"/>
      <point x="853.6333333333332" y="878.0666666666667"/>
      <point x="853.6333333333332" y="733.0" type="curve" smooth="yes"/>
      <point x="853.6333333333332" y="326.6666666666667"/>
      <point x="751.9666666666667" y="123.00000000000001"/>
    </contour>
  </outline>
</glyph>
<glyph name="eth" format="2">
  <advance width="907.9999999999999"/>
  <unicode hex="00F0"/>
  <note>
eth
</note>
  <outline>
    <contour>
      <point x="449.9" y="-20.0" type="curve" smooth="yes"/>
      <point x="692.1666666666666" y="-20.0"/>
      <point x="820.5666666666667" y="172.7"/>
      <point x="820.5666666666667" y="532.4333333333333" type="curve" smooth="yes"/>
      <point x="820.5666666666667" y="879.6999999999999"/>
      <point x="730.5333333333333" y="1154.3"/>
      <point x="544.5666666666667" y="1361.5" type="curve"/>
      <point x="717.1666666666666" y="1467.0666666666666" type="line"/>
      <point x="660.1999999999999" y="1558.4333333333332" type="line"/>
      <point x="465.6666666666667" y="1438.1666666666665" type="line"/>
      <point x="416.7" y="1482.4"/>
      <point x="359.4333333333334" y="1523.1333333333332"/>
      <point x="293.6333333333333" y="1560.9" type="curve"/>
      <point x="231.00000000000003" y="1467.6999999999998" type="line"/>
      <point x="277.6666666666667" y="1436.5"/>
      <point x="319.8666666666667" y="1404.5"/>
      <point x="357.0" y="1371.6999999999998" type="curve"/>
      <point x="186.0333333333333" y="1267.9" type="line"/>
      <point x="243.9333333333333" y="1175.7666666666667" type="line"/>
      <point x="433.3333333333333" y="1292.0" type="line"/>
      <point x="544.9" y="1165.5666666666668"/>
      <point x="618.6" y="1017.2666666666668"/>
      <point x="652.6666666666667" y="846.4" type="curve"/>
      <point x="643.5" y="845.4666666666666" type="line"/>
      <point x="591.9333333333333" y="925.8333333333334"/>
      <point x="518.7333333333333" y="966.3666666666667"/>
      <point x="423.73333333333335" y="966.3666666666667" type="curve" smooth="yes"/>
      <point x="208.0333333333333" y="966.3666666666667"/>
      <point x="87.23333333333333" y="787.6999999999999"/>
      <point x="87.23333333333333" y="473.66666666666663" type="curve" smooth="yes"/>
      <point x="87.23333333333333" y="176.36666666666667"/>
      <point x="230.73333333333332" y="-20.0"/>
    </contour>
    <contour>
      <point x="455.90000000000003" y="113.13333333333334" type="curve" smooth="yes"/>
      <point x="322.3666666666667" y="113.13333333333334"/>
      <point x="242.03333333333333" y="248.70000000000002"/>
      <point x="242.03333333333333" y="468.4666666666667" type="curve" smooth="yes"/>
      <point x="242.03333333333333" y="711.3"/>
      <point x="315.2" y="836.2333333333333"/>
      <point x="457.9" y="836.2333333333333" type="curve" smooth="yes"/>
      <point x="582.9666666666667" y="836.2333333333333"/>
      <point x="666.0" y="697.4666666666667"/>
      <point x="666.0" y="498.6333333333334" type="curve" smooth="yes"/>
      <point x="666.0" y="239.56666666666666"/>
      <point x="602.5666666666667" y="113.13333333333334"/>
    </contour>
  </outline>
</glyph>
<glyph name="divide" format="2">
  <advance width="852.0"/>
  <unicode hex="00F7"/>
  <note>
divide
</note>
  <outline>
    <contour>
      <point x="74.63333333333333" y="660.5333333333333" type="line"/>
      <point x="777.0333333333333" y="660.5333333333333" type="line"/>
      <point x="777.0333333333333" y="784.5333333333334" type="line"/>
      <point x="74.63333333333333" y="784.5333333333334" type="line"/>
    </contour>
    <contour>
      <point x="425.6333333333333" y="253.16666666666669" type="curve" smooth="yes"/>
      <point x="479.8333333333333" y="253.16666666666669"/>
      <point x="517.8000000000001" y="292.1"/>
      <point x="517.8000000000001" y="373.0" type="curve" smooth="yes"/>
      <point x="517.8000000000001" y="451.4666666666667"/>
      <point x="486.6666666666667" y="491.83333333333337"/>
      <point x="425.6333333333333" y="491.83333333333337" type="curve" smooth="yes"/>
      <point x="363.6" y="491.83333333333337"/>
      <point x="331.76666666666665" y="452.6333333333333"/>
      <point x="331.76666666666665" y="373.0" type="curve" smooth="yes"/>
      <point x="331.76666666666665" y="291.26666666666665"/>
      <point x="366.86666666666673" y="253.16666666666669"/>
    </contour>
    <contour>
      <point x="425.6333333333333" y="952.1666666666666" type="curve" smooth="yes"/>
      <point x="479.8333333333333" y="952.1666666666666"/>
      <point x="517.8000000000001" y="990.5666666666666"/>
      <point x="517.8000000000001" y="1071.0" type="curve" smooth="yes"/>
      <point x="517.8000000000001" y="1149.9333333333334"/>
      <point x="486.6666666666667" y="1190.8333333333333"/>
      <point x="425.6333333333333" y="1190.8333333333333" type="curve" smooth="yes"/>
      <point x="363.6" y="1190.8333333333333"/>
      <point x="331.76666666666665" y="1150.6333333333334"/>
      <point x="331.76666666666665" y="1071.0" type="curve" smooth="yes"/>
      <point x="331.76666666666665" y="989.2666666666667"/>
      <point x="366.86666666666673" y="952.1666666666666"/>
    </contour>
  </outline>
</glyph>
<glyph name="Hbar" format="2">
  <advance width="1071.0"/>
  <unicode hex="0126"/>
  <note>
Hbar
</note>
  <outline>
    <contour>
      <point x="149.5" y="0.0" type="line"/>
      <point x="305.6" y="0.0" type="line"/>
      <point x="305.6" y="691.5666666666666" type="line"/>
      <point x="765.2" y="691.5666666666666" type="line"/>
      <point x="765.2" y="0.0" type="line"/>
      <point x="921.3" y="0.0" type="line"/>
      <point x="921.3" y="1085.6" type="line"/>
      <point x="1075.2333333333333" y="1085.6" type="line"/>
      <point x="1075.2333333333333" y="1208.5" type="line"/>
      <point x="921.3" y="1208.5" type="line"/>
      <point x="921.3" y="1462.0" type="line"/>
      <point x="765.2" y="1462.0" type="line"/>
      <point x="765.2" y="1208.5" type="line"/>
      <point x="305.6" y="1208.5" type="line"/>
      <point x="305.6" y="1462.0" type="line"/>
      <point x="149.5" y="1462.0" type="line"/>
      <point x="149.5" y="1208.5" type="line"/>
      <point x="-3.9666666666666672" y="1208.5" type="line"/>
      <point x="-3.9666666666666672" y="1085.6" type="line"/>
      <point x="149.5" y="1085.6" type="line"/>
    </contour>
    <contour>
      <point x="305.6" y="836.9333333333334" type="line"/>
      <point x="305.6" y="1085.6" type="line"/>
      <point x="765.2" y="1085.6" type="line"/>
      <point x="765.2" y="836.9333333333334" type="line"/>
    </contour>
  </outline>
</glyph>
<glyph name="hbar" format="2">
  <advance width="926.0"/>
  <unicode hex="0127"/>
  <note>
hbar
</note>
  <outline>
    <contour>
      <point x="134.0" y="0.0" type="line"/>
      <point x="286.0" y="0.0" type="line"/>
      <point x="286.0" y="564.6666666666667" type="line" smooth="yes"/>
      <point x="286.0" y="690.3333333333333"/>
      <point x="300.33333333333337" y="790.6666666666667"/>
      <point x="332.6666666666667" y="858.6666666666666" type="curve" smooth="yes"/>
      <point x="367.0" y="930.0"/>
      <point x="422.0" y="964.6666666666666"/>
      <point x="494.6666666666667" y="964.6666666666666" type="curve" smooth="yes"/>
      <point x="601.0" y="964.6666666666666"/>
      <point x="645.6666666666666" y="889.0"/>
      <point x="645.6666666666666" y="707.6666666666666" type="curve" smooth="yes"/>
      <point x="645.6666666666666" y="0.0" type="line"/>
      <point x="797.6666666666666" y="0.0" type="line"/>
      <point x="797.6666666666666" y="730.6666666666667" type="line" smooth="yes"/>
      <point x="797.6666666666666" y="965.0"/>
      <point x="715.0" y="1099.0"/>
      <point x="537.0" y="1099.0" type="curve" smooth="yes"/>
      <point x="417.3333333333333" y="1099.0"/>
      <point x="336.0" y="1036.9999999999998"/>
      <point x="289.33333333333337" y="930.3333333333334" type="curve"/>
      <point x="279.3333333333333" y="930.3333333333334" type="line"/>
      <point x="283.6666666666667" y="961.0"/>
      <point x="286.00000000000006" y="996.6666666666665"/>
      <point x="286.00000000000006" y="1037.3333333333333" type="curve" smooth="yes"/>
      <point x="286.00000000000006" y="1248.0" type="line"/>
      <point x="542.6666666666666" y="1248.0" type="line"/>
      <point x="542.6666666666666" y="1366.3333333333335" type="line"/>
      <point x="286.0" y="1366.3333333333335" type="line"/>
      <point x="286.0" y="1556.0" type="line"/>
      <point x="134.0" y="1556.0" type="line"/>
      <point x="134.0" y="1366.3333333333335" type="line"/>
      <point x="13.999999999999998" y="1366.3333333333335" type="line"/>
      <point x="13.999999999999998" y="1248.0" type="line"/>
      <point x="134.0" y="1248.0" type="line"/>
    </contour>
  </outline>
</glyph>
<glyph name="ldot" format="2">
  <advance width="569.0"/>
  <unicode hex="0140"/>
  <note>
ldot
</note>
  <outline>
    <contour>
      <point x="286.43333333333334" y="1556.0" type="line"/>
      <point x="134.26666666666665" y="1556.0" type="line"/>
      <point x="134.26666666666665" y="0.0" type="line"/>
      <point x="286.43333333333334" y="0.0" type="line"/>
    </contour>
    <contour>
      <point x="403.53333333333336" y="680.5333333333333" type="curve" smooth="yes"/>
      <point x="403.53333333333336" y="610.4666666666667"/>
      <point x="439.6333333333333" y="569.9666666666666"/>
      <point x="498.93333333333334" y="569.9666666666666" type="curve" smooth="yes"/>
      <point x="555.4666666666667" y="569.9666666666666"/>
      <point x="589.4333333333334" y="610.4666666666667"/>
      <point x="589.4333333333334" y="680.5333333333333" type="curve" smooth="yes"/>
      <point x="589.4333333333334" y="751.9666666666666"/>
      <point x="556.8666666666667" y="791.4000000000001"/>
      <point x="498.93333333333334" y="791.4000000000001" type="curve" smooth="yes"/>
      <point x="438.46666666666664" y="791.4000000000001"/>
      <point x="403.53333333333336" y="751.9666666666667"/>
    </contour>
  </outline>
</glyph>
<glyph name="Lslash" format="2">
  <advance width="761.9999999999999"/>
  <unicode hex="0141"/>
  <note>
Lslash
</note>
  <outline>
    <contour>
      <point x="719.4666666666667" y="0.0" type="line"/>
      <point x="719.4666666666667" y="142.06666666666666" type="line"/>
      <point x="319.3666666666667" y="142.06666666666666" type="line"/>
      <point x="319.3666666666667" y="598.6666666666666" type="line"/>
      <point x="604.5333333333333" y="777.2666666666667" type="line"/>
      <point x="534.5666666666667" y="885.4666666666667" type="line"/>
      <point x="319.3666666666667" y="751.4" type="line"/>
      <point x="319.3666666666667" y="1462.0" type="line"/>
      <point x="163.5" y="1462.0" type="line"/>
      <point x="163.5" y="647.5" type="line"/>
      <point x="-1.9333333333333322" y="541.5" type="line"/>
      <point x="68.63333333333334" y="435.2" type="line"/>
      <point x="163.5" y="495.5333333333333" type="line"/>
      <point x="163.5" y="0.0" type="line"/>
    </contour>
  </outline>
</glyph>
<glyph name="Eng" format="2">
  <advance width="1154.0"/>
  <unicode hex="014A"/>
  <note>
Eng
</note>
  <outline>
    <contour>
      <point x="728.6" y="-386.73333333333335" type="curve" smooth="yes"/>
      <point x="905.5666666666666" y="-386.73333333333335"/>
      <point x="1004.4333333333333" y="-250.13333333333333"/>
      <point x="1004.4333333333333" y="-0.3666666666666636" type="curve" smooth="yes"/>
      <point x="1004.4333333333333" y="1462.0" type="line"/>
      <point x="856.8666666666667" y="1462.0" type="line"/>
      <point x="856.8666666666667" y="642.0333333333334" type="line" smooth="yes"/>
      <point x="856.8666666666667" y="555.0"/>
      <point x="860.8" y="451.3"/>
      <point x="868.6" y="330.4666666666667" type="curve"/>
      <point x="860.5" y="330.4666666666667" type="line"/>
      <point x="341.6" y="1462.0" type="line"/>
      <point x="149.5" y="1462.0" type="line"/>
      <point x="149.5" y="0.0" type="line"/>
      <point x="297.53333333333336" y="0.0" type="line"/>
      <point x="297.53333333333336" y="915.7666666666667" type="line" smooth="yes"/>
      <point x="297.53333333333336" y="999.0666666666667"/>
      <point x="292.3666666666667" y="1103.3333333333333"/>
      <point x="282.0333333333333" y="1229.5666666666666" type="curve"/>
      <point x="292.3666666666667" y="1229.5666666666666" type="line"/>
      <point x="870.2" y="-30.666666666666664" type="line"/>
      <point x="855.6333333333334" y="41.73333333333333" type="line"/>
      <point x="856.2666666666665" y="-150.6"/>
      <point x="819.1" y="-241.43333333333334"/>
      <point x="714.4666666666666" y="-241.43333333333334" type="curve" smooth="yes"/>
      <point x="671.4000000000001" y="-241.43333333333334"/>
      <point x="631.7666666666667" y="-234.43333333333334"/>
      <point x="594.1" y="-221.43333333333334" type="curve"/>
      <point x="594.1" y="-361.73333333333335" type="line"/>
      <point x="629.9" y="-378.7333333333333"/>
      <point x="674.9666666666666" y="-386.73333333333335"/>
    </contour>
  </outline>
</glyph>
<glyph name="OE" format="2">
  <advance width="1304.0"/>
  <unicode hex="0152"/>
  <note>
OE
</note>
  <anchor x="652.4666666666666" y="0.0" name="bottom"/>
  <anchor x="652.4666666666666" y="1462.0" name="top"/>
  <outline>
    <contour>
      <point x="596.7333333333333" y="-10.666666666666668" type="curve" smooth="yes"/>
      <point x="641.0666666666667" y="-9.133333333333333"/>
      <point x="682.5333333333333" y="-5.733333333333333"/>
      <point x="727.5666666666666" y="0.0" type="curve"/>
      <point x="1209.8999999999999" y="0.0" type="line"/>
      <point x="1209.8999999999999" y="142.06666666666666" type="line"/>
      <point x="793.7" y="142.06666666666666" type="line"/>
      <point x="793.7" y="693.5666666666667" type="line"/>
      <point x="1183.7333333333333" y="693.5666666666667" type="line"/>
      <point x="1183.7333333333333" y="834.9333333333334" type="line"/>
      <point x="793.7" y="834.9333333333334" type="line"/>
      <point x="793.7" y="1320.8666666666666" type="line"/>
      <point x="1209.8999999999999" y="1320.8666666666666" type="line"/>
      <point x="1209.8999999999999" y="1462.0" type="line"/>
      <point x="729.5333333333334" y="1462.0" type="line"/>
      <point x="686.8666666666667" y="1468.4333333333332"/>
      <point x="645.5333333333334" y="1472.3"/>
      <point x="602.6333333333333" y="1473.8333333333333" type="curve" smooth="yes"/>
      <point x="275.26666666666665" y="1473.8333333333333"/>
      <point x="102.13333333333334" y="1219.5333333333333"/>
      <point x="102.13333333333334" y="735.9333333333333" type="curve" smooth="yes"/>
      <point x="102.13333333333334" y="243.10000000000002"/>
      <point x="268.06666666666666" y="-10.666666666666668"/>
    </contour>
    <contour>
      <point x="603.9000000000001" y="132.33333333333334" type="curve" smooth="yes"/>
      <point x="369.5" y="133.86666666666667"/>
      <point x="264.0" y="321.0333333333333"/>
      <point x="264.0" y="733.0" type="curve" smooth="yes"/>
      <point x="264.0" y="1146.7333333333333"/>
      <point x="371.56666666666666" y="1329.3"/>
      <point x="604.6" y="1330.8333333333333" type="curve" smooth="yes"/>
      <point x="614.5333333333333" y="1330.8333333333333"/>
      <point x="625.8000000000001" y="1329.4333333333334"/>
      <point x="637.6" y="1326.3999999999999" type="curve"/>
      <point x="637.6" y="137.23333333333335" type="line"/>
      <point x="627.4333333333334" y="134.20000000000002"/>
      <point x="615.7" y="132.33333333333334"/>
    </contour>
  </outline>
</glyph>
<glyph name="florin" format="2">
  <advance width="862.0"/>
  <unicode hex="0192"/>
  <note>
florin
</note>
  <outline>
    <contour>
      <point x="212.83333333333334" y="-492.0" type="curve" smooth="yes"/>
      <point x="405.1" y="-492.0"/>
      <point x="492.6333333333333" y="-372.03333333333336"/>
      <point x="492.6333333333333" y="-114.5" type="curve" smooth="yes"/>
      <point x="492.6333333333333" y="836.1999999999999" type="line"/>
      <point x="692.2" y="836.1999999999999" type="line"/>
      <point x="692.2" y="963.3666666666666" type="line"/>
      <point x="492.6333333333333" y="963.3666666666666" type="line"/>
      <point x="492.6333333333333" y="1108.3666666666668" type="line" smooth="yes"/>
      <point x="492.6333333333333" y="1166.3333333333333"/>
      <point x="496.4" y="1213.4"/>
      <point x="506.1" y="1248.5666666666666" type="curve" smooth="yes"/>
      <point x="522.6333333333333" y="1316.6333333333332"/>
      <point x="552.2333333333333" y="1347.3666666666666"/>
      <point x="615.1" y="1347.3666666666666" type="curve" smooth="yes"/>
      <point x="651.3666666666667" y="1347.3666666666666"/>
      <point x="690.7" y="1336.6000000000001"/>
      <point x="735.5" y="1315.5333333333333" type="curve"/>
      <point x="785.6" y="1441.8999999999999" type="line"/>
      <point x="725.2333333333333" y="1469.3000000000002"/>
      <point x="663.1333333333333" y="1483.0"/>
      <point x="598.6666666666666" y="1483.0" type="curve" smooth="yes"/>
      <point x="411.5666666666666" y="1483.0"/>
      <point x="335.56666666666666" y="1365.4666666666667"/>
      <point x="335.56666666666666" y="1122.5" type="curve" smooth="yes"/>
      <point x="335.56666666666666" y="968.5666666666666" type="line"/>
      <point x="173.16666666666666" y="916.7333333333333" type="line"/>
      <point x="173.16666666666666" y="836.1999999999999" type="line"/>
      <point x="335.56666666666666" y="836.1999999999999" type="line"/>
      <point x="335.56666666666666" y="-126.46666666666667" type="line" smooth="yes"/>
      <point x="335.56666666666666" y="-282.2"/>
      <point x="294.03333333333336" y="-356.56666666666666"/>
      <point x="190.26666666666668" y="-356.56666666666666" type="curve" smooth="yes"/>
      <point x="153.76666666666665" y="-356.56666666666666"/>
      <point x="114.46666666666667" y="-350.56666666666666"/>
      <point x="69.50000000000001" y="-338.56666666666666" type="curve"/>
      <point x="69.50000000000001" y="-475.5" type="line"/>
      <point x="114.39999999999999" y="-486.3666666666667"/>
      <point x="160.83333333333331" y="-492.0"/>
    </contour>
  </outline>
</glyph>
<glyph name="Ohorn" format="2">
  <advance width="1139.0"/>
  <unicode hex="01A0"/>
  <note>
Ohorn
</note>
  <anchor x="559.8" y="0.0" name="bottom"/>
  <anchor x="561.4333333333333" y="1462.0" name="top"/>
  <outline>
    <contour>
      <point x="557.9000000000001" y="-20.0" type="curve" smooth="yes"/>
      <point x="852.3666666666667" y="-20.0"/>
      <point x="1014.1999999999999" y="249.00000000000003"/>
      <point x="1014.1999999999999" y="733.0" type="curve" smooth="yes"/>
      <point x="1014.1999999999999" y="904.1666666666666"/>
      <point x="994.3666666666666" y="1048.2333333333333"/>
      <point x="954.2333333333333" y="1166.0666666666666" type="curve"/>
      <point x="1089.0" y="1214.0"/>
      <point x="1165.8333333333333" y="1327.0666666666666"/>
      <point x="1189.5" y="1531.6333333333334" type="curve"/>
      <point x="1173.4333333333334" y="1556.0" type="line"/>
      <point x="1022.3333333333334" y="1556.0" type="line"/>
      <point x="1019.3333333333334" y="1386.8999999999999"/>
      <point x="985.4666666666667" y="1304.0333333333333"/>
      <point x="904.4333333333333" y="1275.5666666666666" type="curve"/>
      <point x="824.6666666666666" y="1414.5"/>
      <point x="709.9000000000001" y="1483.7"/>
      <point x="560.6666666666667" y="1483.7" type="curve" smooth="yes"/>
      <point x="258.5333333333333" y="1483.7"/>
      <point x="102.13333333333334" y="1232.2333333333333"/>
      <point x="102.13333333333334" y="735.0" type="curve" smooth="yes"/>
      <point x="102.13333333333334" y="250.13333333333333"/>
      <point x="260.9" y="-20.0"/>
    </contour>
    <contour>
      <point x="557.9000000000001" y="123.00000000000001" type="curve" smooth="yes"/>
      <point x="365.06666666666666" y="123.00000000000001"/>
      <point x="262.46666666666664" y="331.83333333333337"/>
      <point x="262.46666666666664" y="733.0" type="curve" smooth="yes"/>
      <point x="262.46666666666664" y="1130.1999999999998"/>
      <point x="362.46666666666664" y="1340.9333333333334"/>
      <point x="560.6666666666667" y="1340.9333333333334" type="curve" smooth="yes"/>
      <point x="754.5" y="1340.9333333333334"/>
      <point x="853.6333333333333" y="1135.4333333333332"/>
      <point x="853.6333333333333" y="733.0" type="curve" smooth="yes"/>
      <point x="853.6333333333333" y="326.66666666666663"/>
      <point x="751.9666666666667" y="123.00000000000001"/>
    </contour>
  </outline>
</glyph>
<glyph name="ohorn" format="2">
  <advance width="940.0000000000001"/>
  <unicode hex="01A1"/>
  <note>
ohorn
</note>
  <anchor x="449.3" y="0.0" name="bottom"/>
  <anchor x="453.3" y="1094.8000000000002" name="top"/>
  <outline>
    <contour>
      <point x="450.46666666666664" y="-20.0" type="curve" smooth="yes"/>
      <point x="682.0333333333333" y="-20.0"/>
      <point x="816.4333333333333" y="184.66666666666666"/>
      <point x="816.4333333333333" y="549.1999999999999" type="curve" smooth="yes"/>
      <point x="816.4333333333333" y="678.3666666666667"/>
      <point x="799.4333333333333" y="787.1666666666666"/>
      <point x="765.4333333333333" y="876.5999999999999" type="curve"/>
      <point x="894.0666666666667" y="926.1999999999999"/>
      <point x="963.6333333333334" y="1029.3000000000002"/>
      <point x="985.9333333333333" y="1231.4666666666667" type="curve"/>
      <point x="969.6333333333333" y="1255.8333333333333" type="line"/>
      <point x="818.7666666666667" y="1255.8333333333333" type="line"/>
      <point x="815.7666666666668" y="1101.8666666666668"/>
      <point x="784.8333333333333" y="1015.4"/>
      <point x="708.1333333333333" y="977.8333333333334" type="curve"/>
      <point x="645.0666666666667" y="1069.6000000000001"/>
      <point x="560.6333333333333" y="1115.8"/>
      <point x="452.8333333333333" y="1115.8" type="curve" smooth="yes"/>
      <point x="215.73333333333332" y="1115.8"/>
      <point x="87.23333333333333" y="919.4666666666667"/>
      <point x="87.23333333333333" y="550.5999999999999" type="curve" smooth="yes"/>
      <point x="87.23333333333333" y="245.0"/>
      <point x="188.76666666666665" y="-20.0"/>
    </contour>
    <contour>
      <point x="450.8333333333333" y="113.13333333333334" type="curve" smooth="yes"/>
      <point x="374.7333333333333" y="113.13333333333334"/>
      <point x="319.26666666666665" y="156.9666666666667"/>
      <point x="285.23333333333335" y="246.73333333333332" type="curve" smooth="yes"/>
      <point x="258.1" y="316.56666666666666"/>
      <point x="244.10000000000002" y="418.5"/>
      <point x="244.10000000000002" y="550.3666666666667" type="curve" smooth="yes"/>
      <point x="244.10000000000002" y="690.9"/>
      <point x="259.23333333333335" y="797.3333333333334"/>
      <point x="292.20000000000005" y="870.2666666666667" type="curve" smooth="yes"/>
      <point x="325.46666666666664" y="943.5666666666667"/>
      <point x="377.4" y="979.6"/>
      <point x="451.3" y="979.6" type="curve" smooth="yes"/>
      <point x="520.5333333333334" y="979.6"/>
      <point x="572.4000000000001" y="944.9333333333333"/>
      <point x="606.7333333333333" y="876.4666666666667" type="curve" smooth="yes"/>
      <point x="642.3666666666667" y="805.6333333333333"/>
      <point x="660.0333333333333" y="696.2"/>
      <point x="660.0333333333333" y="549.6666666666666" type="curve" smooth="yes"/>
      <point x="660.0333333333333" y="396.93333333333334"/>
      <point x="641.3" y="284.06666666666666"/>
      <point x="602.6666666666666" y="212.3" type="curve" smooth="yes"/>
      <point x="567.4" y="146.03333333333336"/>
      <point x="517.0" y="113.13333333333334"/>
    </contour>
  </outline>
</glyph>
<glyph name="uhorn" format="2">
  <advance width="1070.3333333333333"/>
  <unicode hex="01B0"/>
  <note>
uhorn
</note>
  <anchor x="484.3333333333333" y="0.0" name="bottom"/>
  <anchor x="460.99999999999994" y="1094.6666666666667" name="top"/>
  <outline>
    <contour>
      <point x="387.3333333333333" y="-20.0" type="curve" smooth="yes"/>
      <point x="507.00000000000006" y="-20.0"/>
      <point x="589.6666666666666" y="40.666666666666664"/>
      <point x="639.0" y="149.0" type="curve"/>
      <point x="649.3333333333334" y="149.0" type="line"/>
      <point x="668.0" y="0.0" type="line"/>
      <point x="792.0000000000001" y="0.0" type="line"/>
      <point x="792.0000000000001" y="850.3333333333334" type="line"/>
      <point x="878.3333333333334" y="863.6666666666666"/>
      <point x="949.6666666666666" y="895.6666666666666"/>
      <point x="999.6666666666666" y="954.0" type="curve" smooth="yes"/>
      <point x="1063.6666666666667" y="1011.3333333333334"/>
      <point x="1099.0" y="1101.6666666666667"/>
      <point x="1115.6666666666667" y="1231.3333333333335" type="curve"/>
      <point x="1100.3333333333333" y="1255.6666666666665" type="line"/>
      <point x="948.6666666666667" y="1255.6666666666665" type="line"/>
      <point x="947.0000000000001" y="1159.3333333333333"/>
      <point x="935.0" y="1090.0"/>
      <point x="907.3333333333333" y="1042.3333333333333" type="curve" smooth="yes"/>
      <point x="882.6666666666666" y="999.3333333333334"/>
      <point x="844.6666666666666" y="974.6666666666666"/>
      <point x="792.0000000000001" y="963.6666666666666" type="curve"/>
      <point x="792.0000000000001" y="1094.6666666666667" type="line"/>
      <point x="640.3333333333333" y="1094.6666666666667" type="line"/>
      <point x="640.3333333333333" y="519.3333333333334" type="line" smooth="yes"/>
      <point x="640.3333333333333" y="308.6666666666667"/>
      <point x="605.3333333333334" y="113.33333333333333"/>
      <point x="433.00000000000006" y="113.33333333333333" type="curve" smooth="yes"/>
      <point x="326.0" y="113.33333333333333"/>
      <point x="280.6666666666667" y="198.0"/>
      <point x="280.6666666666667" y="401.6666666666667" type="curve" smooth="yes"/>
      <point x="280.6666666666667" y="1094.6666666666667" type="line"/>
      <point x="127.99999999999999" y="1094.6666666666667" type="line"/>
      <point x="127.99999999999999" y="380.3333333333333" type="line" smooth="yes"/>
      <point x="127.99999999999999" y="108.0"/>
      <point x="214.66666666666666" y="-20.0"/>
    </contour>
  </outline>
</glyph>
<glyph name="gravecomb" format="2">
  <unicode hex="0300"/>
  <note>
gravecomb
</note>
  <anchor x="0.3333333333333268" y="1094.6666666666667" name="_top"/>
  <anchor x="0.3333333333333335" y="1569.0" name="top"/>
  <outline>
    <contour>
      <point x="92.66666666666667" y="1241.0" type="curve"/>
      <point x="187.00000000000003" y="1241.0" type="line"/>
      <point x="187.00000000000003" y="1264.0" type="line"/>
      <point x="123.0" y="1345.3333333333333"/>
      <point x="38.333333333333336" y="1487.0"/>
      <point x="2.6666666666666723" y="1569.0" type="curve"/>
      <point x="-187.00000000000003" y="1569.0" type="line"/>
      <point x="-187.00000000000003" y="1550.3333333333333" type="line"/>
      <point x="-143.0" y="1469.3333333333335"/>
      <point x="1.9999999999999964" y="1314.6666666666665"/>
    </contour>
  </outline>
</glyph>
<glyph name="acutecomb" format="2">
  <unicode hex="0301"/>
  <note>
acutecomb
</note>
  <anchor x="-85.0" y="1131.3333333333333" name="_top"/>
  <anchor x="0.0" y="1569.0" name="top"/>
  <outline>
    <contour>
      <point x="-187.00000000000003" y="1241.0" type="line"/>
      <point x="-93.33333333333333" y="1241.0" type="line"/>
      <point x="9.333333333333336" y="1325.6666666666667"/>
      <point x="141.66666666666666" y="1469.6666666666665"/>
      <point x="187.00000000000003" y="1550.3333333333333" type="curve"/>
      <point x="187.00000000000003" y="1569.0" type="line"/>
      <point x="-2.3333333333333384" y="1569.0" type="line"/>
      <point x="-41.0" y="1484.0"/>
      <point x="-111.33333333333333" y="1362.0"/>
      <point x="-187.00000000000003" y="1264.0" type="curve"/>
    </contour>
  </outline>
</glyph>
<glyph name="circumflexcomb" format="2">
  <unicode hex="0302"/>
  <note>
circumflex
</note>
  <anchor x="347.0" y="1094.6666666666665" name="_top"/>
  <anchor x="347.0" y="1569.0" name="top"/>
  <outline>
    <contour>
      <point x="71.00000000000001" y="1241.0" type="line"/>
      <point x="155.33333333333334" y="1241.0" type="line"/>
      <point x="182.00000000000003" y="1264.6666666666665"/>
      <point x="220.0" y="1302.0"/>
      <point x="251.33333333333334" y="1336.3333333333335" type="curve" smooth="yes"/>
      <point x="269.66666666666663" y="1356.6666666666667"/>
      <point x="289.0" y="1378.0"/>
      <point x="346.33333333333337" y="1442.3333333333335" type="curve"/>
      <point x="392.66666666666663" y="1390.0"/>
      <point x="430.6666666666667" y="1346.6666666666667"/>
      <point x="439.0" y="1338.3333333333335" type="curve" smooth="yes"/>
      <point x="472.3333333333333" y="1300.3333333333333"/>
      <point x="488.33333333333337" y="1282.6666666666667"/>
      <point x="534.3333333333333" y="1241.0" type="curve"/>
      <point x="621.6666666666666" y="1241.0" type="line"/>
      <point x="621.6666666666666" y="1262.6666666666667" type="line"/>
      <point x="533.0" y="1377.3333333333333"/>
      <point x="454.33333333333337" y="1501.6666666666665"/>
      <point x="423.00000000000006" y="1569.0" type="curve"/>
      <point x="267.0" y="1569.0" type="line"/>
      <point x="229.66666666666669" y="1489.3333333333335"/>
      <point x="164.33333333333334" y="1387.6666666666667"/>
      <point x="71.00000000000001" y="1262.6666666666667" type="curve"/>
    </contour>
  </outline>
</glyph>
<glyph name="tildecomb" format="2">
  <unicode hex="0303"/>
  <note>
tildecomb
</note>
  <anchor x="302.1666666666667" y="1094.8" name="_top"/>
  <anchor x="302.1666666666667" y="1483.3999999999999" name="top"/>
  <outline>
    <contour>
      <point x="2.1316282072803006e-14" y="1240.3000000000002" type="curve"/>
      <point x="96.39999999999999" y="1240.3000000000002" type="line"/>
      <point x="108.63333333333333" y="1318.1666666666667"/>
      <point x="136.23333333333335" y="1362.5333333333333"/>
      <point x="177.83333333333331" y="1362.5333333333333" type="curve" smooth="yes"/>
      <point x="215.13333333333333" y="1362.5333333333333"/>
      <point x="252.6" y="1331.0"/>
      <point x="293.83333333333337" y="1299.5333333333333" type="curve" smooth="yes"/>
      <point x="330.4" y="1270.8"/>
      <point x="375.46666666666664" y="1242.3"/>
      <point x="425.5" y="1242.3" type="curve" smooth="yes"/>
      <point x="525.4666666666667" y="1242.3"/>
      <point x="592.4000000000001" y="1326.0"/>
      <point x="605.3333333333333" y="1483.3999999999999" type="curve"/>
      <point x="508.93333333333334" y="1483.3999999999999" type="line"/>
      <point x="496.23333333333335" y="1408.5666666666666"/>
      <point x="477.6333333333333" y="1361.4"/>
      <point x="431.1" y="1361.4" type="curve" smooth="yes"/>
      <point x="396.23333333333335" y="1361.4"/>
      <point x="359.7" y="1390.8333333333333"/>
      <point x="319.0" y="1421.6666666666665" type="curve" smooth="yes"/>
      <point x="279.8666666666667" y="1450.3333333333333"/>
      <point x="235.4" y="1481.4"/>
      <point x="183.03333333333336" y="1481.4" type="curve" smooth="yes"/>
      <point x="79.56666666666666" y="1481.4"/>
      <point x="15.533333333333324" y="1395.4333333333332"/>
    </contour>
  </outline>
</glyph>
<glyph name="macroncomb" format="2">
  <unicode hex="0304"/>
  <anchor x="251.66666666666669" y="1094.8" name="_top"/>
  <anchor x="251.66666666666666" y="1370.5666666666668" name="top"/>
  <outline>
    <contour>
      <point x="0.0" y="1249.3666666666668" type="line"/>
      <point x="503.33333333333337" y="1249.3666666666668" type="line"/>
      <point x="503.33333333333337" y="1370.5666666666668" type="line"/>
      <point x="0.0" y="1370.5666666666668" type="line"/>
    </contour>
  </outline>
</glyph>
<glyph name="brevecomb" format="2">
  <unicode hex="0306"/>
  <note>
breve
</note>
  <anchor x="573.6666666666667" y="1094.6666666666665" name="_top"/>
  <anchor x="573.6666666666667" y="1508.3333333333333" name="top"/>
  <outline>
    <contour>
      <point x="568.0" y="1243.3333333333333" type="curve" smooth="yes"/>
      <point x="722.3333333333334" y="1243.3333333333333"/>
      <point x="814.0" y="1342.3333333333333"/>
      <point x="821.6666666666667" y="1508.3333333333333" type="curve"/>
      <point x="720.0" y="1508.3333333333333" type="line"/>
      <point x="707.0" y="1411.3333333333333"/>
      <point x="662.3333333333334" y="1366.6666666666665"/>
      <point x="571.3333333333334" y="1366.6666666666665" type="curve" smooth="yes"/>
      <point x="478.33333333333337" y="1366.6666666666665"/>
      <point x="432.66666666666663" y="1410.6666666666667"/>
      <point x="423.6666666666667" y="1508.3333333333333" type="curve"/>
      <point x="325.0" y="1508.3333333333333" type="line"/>
      <point x="333.33333333333337" y="1335.3333333333333"/>
      <point x="414.66666666666663" y="1243.3333333333333"/>
    </contour>
  </outline>
</glyph>
<glyph name="dotaccentcomb" format="2">
  <unicode hex="0307"/>
  <note>
dotaccent
</note>
  <anchor x="223.66666666666666" y="1094.6666666666667" name="_top"/>
  <anchor x="223.66666666666666" y="1503.3333333333333" name="top"/>
  <outline>
    <contour>
      <point x="225.66666666666669" y="1282.0" type="curve" smooth="yes"/>
      <point x="282.0" y="1282.0"/>
      <point x="316.0" y="1322.3333333333333"/>
      <point x="316.0" y="1392.6666666666667" type="curve" smooth="yes"/>
      <point x="316.0" y="1464.0"/>
      <point x="283.6666666666667" y="1503.3333333333333"/>
      <point x="225.66666666666669" y="1503.3333333333333" type="curve" smooth="yes"/>
      <point x="165.33333333333334" y="1503.3333333333333"/>
      <point x="130.33333333333331" y="1464.0"/>
      <point x="130.33333333333331" y="1392.6666666666667" type="curve" smooth="yes"/>
      <point x="130.33333333333331" y="1322.3333333333333"/>
      <point x="166.33333333333331" y="1282.0"/>
    </contour>
  </outline>
</glyph>
<glyph name="dieresiscomb" format="2">
  <unicode hex="0308"/>
  <note>
dieresis
</note>
  <anchor x="563.6666666666667" y="1133.0" name="_top"/>
  <anchor x="563.6666666666667" y="1490.6666666666665" name="top"/>
  <outline>
    <contour>
      <point x="731.6666666666666" y="1295.3333333333333" type="curve" smooth="yes"/>
      <point x="781.0" y="1295.3333333333333"/>
      <point x="817.6666666666666" y="1327.6666666666667"/>
      <point x="817.6666666666666" y="1393.6666666666667" type="curve" smooth="yes"/>
      <point x="817.6666666666666" y="1459.0"/>
      <point x="780.3333333333333" y="1490.6666666666665"/>
      <point x="731.6666666666666" y="1490.6666666666665" type="curve" smooth="yes"/>
      <point x="683.0" y="1490.6666666666665"/>
      <point x="646.0" y="1459.0"/>
      <point x="646.0" y="1393.6666666666667" type="curve" smooth="yes"/>
      <point x="646.0" y="1328.0"/>
      <point x="683.3333333333334" y="1295.3333333333333"/>
    </contour>
    <contour>
      <point x="396.3333333333333" y="1295.3333333333333" type="curve" smooth="yes"/>
      <point x="444.33333333333337" y="1295.3333333333333"/>
      <point x="481.6666666666667" y="1328.6666666666667"/>
      <point x="481.6666666666667" y="1393.6666666666667" type="curve" smooth="yes"/>
      <point x="481.6666666666667" y="1457.6666666666667"/>
      <point x="444.33333333333337" y="1490.6666666666665"/>
      <point x="396.3333333333333" y="1490.6666666666665" type="curve" smooth="yes"/>
      <point x="347.0" y="1490.6666666666665"/>
      <point x="310.0" y="1459.0"/>
      <point x="310.0" y="1393.6666666666667" type="curve" smooth="yes"/>
      <point x="310.0" y="1327.3333333333335"/>
      <point x="347.0" y="1295.3333333333333"/>
    </contour>
  </outline>
</glyph>
<glyph name="hookabovecomb" format="2">
  <unicode hex="0309"/>
  <note>
hookabovecomb
</note>
  <anchor x="-1.0000000000000018" y="1094.6666666666667" name="_top"/>
  <anchor x="-1.0" y="1682.0" name="top"/>
  <outline>
    <contour>
      <point x="-94.0" y="1211.0" type="line"/>
      <point x="7.000000000000003" y="1211.0" type="line"/>
      <point x="17.0" y="1318.0" type="line"/>
      <point x="123.33333333333334" y="1343.6666666666665"/>
      <point x="176.0" y="1403.3333333333333"/>
      <point x="176.0" y="1499.0" type="curve" smooth="yes"/>
      <point x="176.0" y="1619.6666666666667"/>
      <point x="97.33333333333333" y="1682.0"/>
      <point x="-54.66666666666667" y="1682.0" type="curve" smooth="yes"/>
      <point x="-102.66666666666666" y="1682.0"/>
      <point x="-142.33333333333334" y="1677.0"/>
      <point x="-176.0" y="1667.0" type="curve"/>
      <point x="-176.0" y="1568.6666666666667" type="line"/>
      <point x="-140.0" y="1577.0"/>
      <point x="-107.0" y="1581.3333333333335"/>
      <point x="-76.33333333333333" y="1581.3333333333335" type="curve" smooth="yes"/>
      <point x="2.333333333333333" y="1581.3333333333335"/>
      <point x="45.666666666666664" y="1551.3333333333333"/>
      <point x="45.666666666666664" y="1490.6666666666665" type="curve" smooth="yes"/>
      <point x="45.666666666666664" y="1427.6666666666667"/>
      <point x="-12.66666666666667" y="1386.0"/>
      <point x="-104.66666666666667" y="1380.3333333333335" type="curve"/>
    </contour>
  </outline>
</glyph>
<glyph name="ringcomb" format="2">
  <unicode hex="030A"/>
  <note>
ring
</note>
  <anchor x="580.3333333333334" y="1094.6666666666667" name="_top"/>
  <anchor x="580.3333333333334" y="1651.3333333333335" name="top"/>
  <outline>
    <contour>
      <point x="579.0" y="1247.0" type="curve" smooth="yes"/>
      <point x="709.3333333333334" y="1247.0"/>
      <point x="795.0" y="1326.0"/>
      <point x="795.0" y="1453.0" type="curve" smooth="yes"/>
      <point x="795.0" y="1572.6666666666667"/>
      <point x="705.3333333333333" y="1651.3333333333335"/>
      <point x="579.0" y="1651.3333333333335" type="curve" smooth="yes"/>
      <point x="448.3333333333333" y="1651.3333333333335"/>
      <point x="365.33333333333337" y="1573.0"/>
      <point x="365.33333333333337" y="1449.6666666666667" type="curve" smooth="yes"/>
      <point x="365.33333333333337" y="1325.0"/>
      <point x="447.3333333333333" y="1247.0"/>
    </contour>
    <contour>
      <point x="579.0" y="1338.0" type="curve" smooth="yes"/>
      <point x="503.3333333333333" y="1338.0"/>
      <point x="465.0" y="1381.6666666666667"/>
      <point x="465.0" y="1449.6666666666667" type="curve" smooth="yes"/>
      <point x="465.0" y="1515.6666666666667"/>
      <point x="512.3333333333333" y="1560.6666666666667"/>
      <point x="579.0" y="1560.6666666666667" type="curve" smooth="yes"/>
      <point x="651.0" y="1560.6666666666667"/>
      <point x="693.0" y="1515.6666666666667"/>
      <point x="693.0" y="1449.6666666666667" type="curve" smooth="yes"/>
      <point x="693.0" y="1381.3333333333335"/>
      <point x="646.0" y="1338.0"/>
    </contour>
  </outline>
</glyph>
<glyph name="hungarumlautcomb" format="2">
  <unicode hex="030B"/>
  <note>
hungarumlaut
</note>
  <anchor x="579.0" y="1094.6666666666667" name="_top"/>
  <anchor x="579.0" y="1569.0" name="top"/>
  <outline>
    <contour>
      <point x="560.0" y="1241.0" type="line"/>
      <point x="641.0" y="1241.0" type="line"/>
      <point x="733.3333333333334" y="1321.3333333333333"/>
      <point x="859.0" y="1467.0"/>
      <point x="904.3333333333334" y="1550.3333333333333" type="curve"/>
      <point x="904.3333333333334" y="1569.0" type="line"/>
      <point x="731.3333333333334" y="1569.0" type="line"/>
      <point x="695.0" y="1487.0"/>
      <point x="620.6666666666667" y="1345.3333333333333"/>
      <point x="560.0" y="1264.0" type="curve"/>
    </contour>
    <contour>
      <point x="252.66666666666663" y="1241.0" type="line"/>
      <point x="334.0" y="1241.0" type="line"/>
      <point x="421.33333333333337" y="1315.6666666666667"/>
      <point x="544.6666666666666" y="1461.0"/>
      <point x="596.6666666666666" y="1550.3333333333333" type="curve"/>
      <point x="596.6666666666666" y="1569.0" type="line"/>
      <point x="423.6666666666667" y="1569.0" type="line"/>
      <point x="387.3333333333333" y="1486.6666666666667"/>
      <point x="313.0" y="1345.3333333333333"/>
      <point x="252.66666666666663" y="1264.0" type="curve"/>
    </contour>
  </outline>
</glyph>
<glyph name="caroncomb" format="2">
  <unicode hex="030C"/>
  <note>
caron
</note>
  <anchor x="575.6666666666667" y="1094.6666666666667" name="_top"/>
  <anchor x="575.6666666666667" y="1569.0" name="top"/>
  <outline>
    <contour>
      <point x="495.66666666666663" y="1241.0" type="curve"/>
      <point x="651.3333333333334" y="1241.0" type="line"/>
      <point x="663.0" y="1265.3333333333335"/>
      <point x="680.6666666666667" y="1297.0"/>
      <point x="703.3333333333334" y="1333.0" type="curve" smooth="yes"/>
      <point x="742.3333333333334" y="1397.6666666666665"/>
      <point x="794.6666666666666" y="1475.6666666666667"/>
      <point x="850.3333333333333" y="1547.3333333333333" type="curve"/>
      <point x="850.3333333333333" y="1569.0" type="line"/>
      <point x="763.0" y="1569.0" type="line"/>
      <point x="713.3333333333334" y="1525.0"/>
      <point x="626.0" y="1427.3333333333333"/>
      <point x="576.0" y="1367.6666666666665" type="curve"/>
      <point x="471.0" y="1491.3333333333333"/>
      <point x="450.3333333333333" y="1509.0"/>
      <point x="384.0" y="1569.0" type="curve"/>
      <point x="299.33333333333337" y="1569.0" type="line"/>
      <point x="299.33333333333337" y="1547.3333333333333" type="line"/>
      <point x="357.66666666666663" y="1469.0"/>
      <point x="406.3333333333333" y="1397.0"/>
      <point x="445.3333333333333" y="1331.3333333333333" type="curve" smooth="yes"/>
      <point x="465.33333333333337" y="1298.6666666666665"/>
      <point x="482.00000000000006" y="1268.3333333333335"/>
    </contour>
  </outline>
</glyph>
<glyph name="dblgravecomb" format="2">
  <unicode hex="030F"/>
  <note>
uni030F
</note>
  <anchor x="-0.6666666666666666" y="1094.6666666666667" name="_top"/>
  <anchor x="-0.6666666666666666" y="1569.0" name="top"/>
  <outline>
    <contour>
      <point x="245.00000000000003" y="1241.0" type="curve"/>
      <point x="326.3333333333333" y="1241.0" type="line"/>
      <point x="326.3333333333333" y="1264.0" type="line"/>
      <point x="276.66666666666663" y="1328.3333333333335"/>
      <point x="204.0" y="1457.0"/>
      <point x="155.0" y="1569.0" type="curve"/>
      <point x="-19.333333333333336" y="1569.0" type="line"/>
      <point x="-19.333333333333336" y="1550.3333333333333" type="line"/>
      <point x="30.666666666666668" y="1462.3333333333335"/>
      <point x="162.0" y="1310.6666666666667"/>
    </contour>
    <contour>
      <point x="-64.0" y="1241.0" type="curve"/>
      <point x="18.0" y="1241.0" type="line"/>
      <point x="18.0" y="1264.0" type="line"/>
      <point x="-30.333333333333332" y="1327.3333333333333"/>
      <point x="-97.66666666666666" y="1444.0"/>
      <point x="-154.0" y="1569.0" type="curve"/>
      <point x="-326.3333333333333" y="1569.0" type="line"/>
      <point x="-326.3333333333333" y="1550.3333333333333" type="line"/>
      <point x="-279.0" y="1464.0"/>
      <point x="-147.66666666666666" y="1312.6666666666667"/>
    </contour>
  </outline>
</glyph>
<glyph name="commaturnedabovecomb" format="2">
  <unicode hex="0312"/>
  <anchor x="301.0" y="1094.6666666666667" name="_top"/>
  <anchor x="301.0" y="1569.0" name="top"/>
  <outline>
    <contour>
      <point x="177.33333333333337" y="1241.0" type="line"/>
      <point x="335.6666666666667" y="1241.0" type="line"/>
      <point x="346.33333333333337" y="1331.0"/>
      <point x="393.66666666666663" y="1485.0"/>
      <point x="423.66666666666663" y="1546.0" type="curve"/>
      <point x="423.66666666666663" y="1569.0" type="line"/>
      <point x="340.33333333333337" y="1569.0" type="line"/>
      <point x="269.33333333333337" y="1492.6666666666667"/>
      <point x="202.33333333333331" y="1353.3333333333333"/>
      <point x="177.33333333333337" y="1262.0" type="curve"/>
    </contour>
  </outline>
</glyph>
<glyph name="cedillacomb" format="2">
  <unicode hex="0327"/>
  <note>
cedilla
</note>
  <anchor x="224.66666666666669" y="0.0" name="_bottom"/>
  <anchor x="224.66666666666669" y="-492.0" name="bottom"/>
  <outline>
    <contour>
      <point x="149.0" y="-492.0" type="curve" smooth="yes"/>
      <point x="311.66666666666663" y="-492.0"/>
      <point x="401.66666666666663" y="-417.0"/>
      <point x="401.66666666666663" y="-280.6666666666667" type="curve" smooth="yes"/>
      <point x="401.66666666666663" y="-186.33333333333334"/>
      <point x="344.6666666666667" y="-126.99999999999999"/>
      <point x="243.0" y="-102.33333333333333" type="curve"/>
      <point x="289.6666666666667" y="0.0" type="line"/>
      <point x="181.99999999999997" y="0.0" type="line"/>
      <point x="107.33333333333333" y="-159.33333333333334" type="line"/>
      <point x="211.33333333333334" y="-175.66666666666669"/>
      <point x="270.6666666666667" y="-212.0"/>
      <point x="270.6666666666667" y="-284.6666666666667" type="curve" smooth="yes"/>
      <point x="270.6666666666667" y="-347.0"/>
      <point x="229.33333333333331" y="-387.3333333333333"/>
      <point x="140.0" y="-387.3333333333333" type="curve" smooth="yes"/>
      <point x="106.00000000000001" y="-387.3333333333333"/>
      <point x="75.33333333333333" y="-382.6666666666667"/>
      <point x="47.66666666666666" y="-374.33333333333337" type="curve"/>
      <point x="47.66666666666666" y="-477.33333333333337" type="line"/>
      <point x="70.99999999999999" y="-487.0"/>
      <point x="104.66666666666667" y="-492.0"/>
    </contour>
  </outline>
</glyph>
<glyph name="ogonekcomb" format="2">
  <unicode hex="0328"/>
  <note>
ogonek
</note>
  <anchor x="388.6666666666667" y="10.0" name="_ogonek"/>
  <outline>
    <contour>
      <point x="245.0" y="-458.33333333333337" type="curve" smooth="yes"/>
      <point x="276.6666666666667" y="-458.33333333333337"/>
      <point x="306.6666666666667" y="-454.0"/>
      <point x="335.66666666666663" y="-445.0" type="curve"/>
      <point x="335.66666666666663" y="-339.3333333333333" type="line"/>
      <point x="318.33333333333337" y="-346.6666666666667"/>
      <point x="297.33333333333337" y="-350.33333333333337"/>
      <point x="271.0" y="-350.33333333333337" type="curve" smooth="yes"/>
      <point x="215.00000000000003" y="-350.33333333333337"/>
      <point x="183.0" y="-318.0"/>
      <point x="183.0" y="-249.66666666666666" type="curve" smooth="yes"/>
      <point x="183.0" y="-170.0"/>
      <point x="220.66666666666669" y="-92.33333333333334"/>
      <point x="312.6666666666667" y="0.0" type="curve"/>
      <point x="207.33333333333331" y="0.0" type="line"/>
      <point x="118.00000000000001" y="-68.0"/>
      <point x="56.33333333333334" y="-170.66666666666669"/>
      <point x="56.33333333333334" y="-268.0" type="curve" smooth="yes"/>
      <point x="56.33333333333334" y="-391.0"/>
      <point x="124.33333333333333" y="-458.33333333333337"/>
    </contour>
  </outline>
</glyph>
<glyph name="tonos" format="2">
  <advance width="1154.0"/>
  <unicode hex="0384"/>
  <note>
tonos
</note>
  <anchor x="538.6666666666666" y="1094.6666666666667" name="_top"/>
  <anchor x="773.6666666666667" y="1556.0" name="_topleft"/>
  <outline>
    <contour>
      <point x="452.66666666666663" y="1241.0" type="line"/>
      <point x="544.0" y="1241.0" type="line"/>
      <point x="606.6666666666666" y="1352.6666666666667"/>
      <point x="668.0" y="1485.3333333333335"/>
      <point x="701.3333333333334" y="1573.3333333333335" type="curve"/>
      <point x="701.3333333333334" y="1595.6666666666667" type="line"/>
      <point x="540.6666666666666" y="1595.6666666666667" type="line"/>
      <point x="526.0" y="1510.0"/>
      <point x="483.6666666666667" y="1352.6666666666667"/>
      <point x="452.66666666666663" y="1265.6666666666667" type="curve"/>
    </contour>
  </outline>
</glyph>
<glyph name="dieresistonos" format="2">
  <advance width="1131.0"/>
  <unicode hex="0385"/>
  <note>
dieresistonos
</note>
  <anchor x="566.3333333333334" y="1094.6666666666667" name="_top"/>
  <outline>
    <contour>
      <point x="501.33333333333337" y="1309.6666666666667" type="line"/>
      <point x="576.0" y="1309.6666666666667" type="line"/>
      <point x="634.0" y="1390.0"/>
      <point x="705.0" y="1542.6666666666665"/>
      <point x="728.0" y="1616.6666666666667" type="curve"/>
      <point x="728.0" y="1637.3333333333333" type="line"/>
      <point x="574.3333333333334" y="1637.3333333333333" type="line"/>
      <point x="566.3333333333334" y="1556.3333333333333"/>
      <point x="530.6666666666666" y="1417.0"/>
      <point x="501.33333333333337" y="1332.6666666666667" type="curve"/>
    </contour>
    <contour>
      <point x="367.66666666666663" y="1216.3333333333333" type="curve" smooth="yes"/>
      <point x="412.3333333333333" y="1216.3333333333333"/>
      <point x="450.6666666666667" y="1247.0"/>
      <point x="450.6666666666667" y="1315.0" type="curve" smooth="yes"/>
      <point x="450.6666666666667" y="1383.0"/>
      <point x="412.0" y="1412.0"/>
      <point x="367.66666666666663" y="1412.0" type="curve" smooth="yes"/>
      <point x="323.0" y="1412.0"/>
      <point x="285.66666666666663" y="1383.3333333333335"/>
      <point x="285.66666666666663" y="1315.0" type="curve" smooth="yes"/>
      <point x="285.66666666666663" y="1246.6666666666667"/>
      <point x="323.0" y="1216.3333333333333"/>
    </contour>
    <contour>
      <point x="762.0" y="1216.3333333333333" type="curve" smooth="yes"/>
      <point x="808.0" y="1216.3333333333333"/>
      <point x="846.3333333333333" y="1247.0"/>
      <point x="846.3333333333333" y="1314.6666666666667" type="curve" smooth="yes"/>
      <point x="846.3333333333333" y="1382.6666666666667"/>
      <point x="808.0" y="1412.0"/>
      <point x="761.6666666666666" y="1412.0" type="curve" smooth="yes"/>
      <point x="715.6666666666666" y="1412.0"/>
      <point x="680.6666666666667" y="1381.3333333333335"/>
      <point x="680.6666666666667" y="1315.0" type="curve" smooth="yes"/>
      <point x="680.6666666666667" y="1247.0"/>
      <point x="717.3333333333333" y="1216.3333333333333"/>
    </contour>
  </outline>
</glyph>
<glyph name="anoteleia" format="2">
  <advance width="465.6666666666667"/>
  <unicode hex="0387"/>
  <note>
anoteleia
</note>
  <outline>
    <contour>
      <point x="232.70000000000002" y="596.3333333333334" type="curve" smooth="yes"/>
      <point x="296.46666666666664" y="596.3333333333334"/>
      <point x="340.1" y="636.3666666666667"/>
      <point x="340.1" y="721.7" type="curve" smooth="yes"/>
      <point x="340.1" y="809.5666666666667"/>
      <point x="297.6333333333333" y="847.6"/>
      <point x="232.70000000000002" y="847.6" type="curve" smooth="yes"/>
      <point x="161.8" y="847.6"/>
      <point x="125.53333333333333" y="803.6666666666666"/>
      <point x="125.53333333333333" y="721.7" type="curve" smooth="yes"/>
      <point x="125.53333333333333" y="639.9666666666667"/>
      <point x="162.03333333333333" y="596.3333333333334"/>
    </contour>
  </outline>
</glyph>
<glyph name="Theta" format="2">
  <advance width="1116.3333333333335"/>
  <unicode hex="0398"/>
  <note>
Theta
</note>
  <outline>
    <contour>
      <point x="557.9000000000001" y="-20.0" type="curve" smooth="yes"/>
      <point x="852.3666666666668" y="-20.0"/>
      <point x="1014.2" y="248.99999999999997"/>
      <point x="1014.2" y="733.0" type="curve" smooth="yes"/>
      <point x="1014.2" y="1214.9333333333334"/>
      <point x="854.3666666666668" y="1483.7"/>
      <point x="560.6666666666667" y="1483.7" type="curve" smooth="yes"/>
      <point x="258.53333333333336" y="1483.7"/>
      <point x="102.13333333333334" y="1232.2333333333333"/>
      <point x="102.13333333333334" y="735.0" type="curve" smooth="yes"/>
      <point x="102.13333333333334" y="250.13333333333333"/>
      <point x="260.9" y="-20.0"/>
    </contour>
    <contour>
      <point x="557.9000000000001" y="123.0" type="curve" smooth="yes"/>
      <point x="365.06666666666666" y="123.0"/>
      <point x="262.4666666666667" y="331.83333333333337"/>
      <point x="262.4666666666667" y="733.0" type="curve" smooth="yes"/>
      <point x="262.4666666666667" y="1130.2"/>
      <point x="362.46666666666664" y="1340.9333333333334"/>
      <point x="560.6666666666667" y="1340.9333333333334" type="curve" smooth="yes"/>
      <point x="754.4999999999999" y="1340.9333333333334"/>
      <point x="853.6333333333332" y="1135.4333333333334"/>
      <point x="853.6333333333332" y="733.0" type="curve" smooth="yes"/>
      <point x="853.6333333333332" y="326.6666666666667"/>
      <point x="751.9666666666667" y="123.0"/>
    </contour>
    <contour>
      <point x="377.56666666666666" y="673.5" type="line"/>
      <point x="738.7666666666665" y="673.5" type="line"/>
      <point x="738.7666666666665" y="815.8666666666667" type="line"/>
      <point x="377.56666666666666" y="815.8666666666667" type="line"/>
    </contour>
  </outline>
</glyph>
<glyph name="Lambda" format="2">
  <advance width="886.0"/>
  <unicode hex="039B"/>
  <note>
Lambda
</note>
  <outline>
    <contour>
      <point x="0.0" y="0.0" type="line"/>
      <point x="159.4" y="0.0" type="line"/>
      <point x="402.40000000000003" y="1080.6666666666667" type="line" smooth="yes"/>
      <point x="421.70000000000005" y="1174.5"/>
      <point x="431.7" y="1235.7666666666667"/>
      <point x="439.2666666666667" y="1305.5333333333333" type="curve"/>
      <point x="449.06666666666666" y="1226.9666666666667"/>
      <point x="466.1333333333333" y="1130.7"/>
      <point x="476.8" y="1080.4333333333332" type="curve" smooth="yes"/>
      <point x="727.9333333333333" y="0.0" type="line"/>
      <point x="886.0333333333332" y="0.0" type="line"/>
      <point x="531.8666666666667" y="1462.0" type="line"/>
      <point x="349.20000000000005" y="1462.0" type="line"/>
    </contour>
  </outline>
</glyph>
<glyph name="Xi" format="2">
  <advance width="784.6666666666666"/>
  <unicode hex="039E"/>
  <note>
Xi
</note>
  <outline>
    <contour>
      <point x="84.23333333333333" y="0.0" type="line"/>
      <point x="699.3666666666667" y="0.0" type="line"/>
      <point x="699.3666666666667" y="142.06666666666666" type="line"/>
      <point x="84.23333333333333" y="142.06666666666666" type="line"/>
    </contour>
    <contour>
      <point x="153.89999999999998" y="693.5666666666667" type="line"/>
      <point x="630.7" y="693.5666666666667" type="line"/>
      <point x="630.7" y="834.9333333333334" type="line"/>
      <point x="153.89999999999998" y="834.9333333333334" type="line"/>
    </contour>
    <contour>
      <point x="108.50000000000001" y="1320.8666666666666" type="line"/>
      <point x="676.1" y="1320.8666666666666" type="line"/>
      <point x="676.1" y="1462.0" type="line"/>
      <point x="108.50000000000001" y="1462.0" type="line"/>
    </contour>
  </outline>
</glyph>
<glyph name="Phi" format="2">
  <advance width="1279.3333333333335"/>
  <unicode hex="03A6"/>
  <note>
Phi
</note>
  <outline>
    <contour>
      <point x="564.6666666666666" y="-20.0" type="line"/>
      <point x="715.1666666666666" y="-20.0" type="line"/>
      <point x="715.1666666666666" y="205.0" type="line"/>
      <point x="719.2" y="205.0" type="line" smooth="yes"/>
      <point x="830.1" y="205.0"/>
      <point x="923.4" y="236.03333333333333"/>
      <point x="996.1" y="293.9666666666667" type="curve" smooth="yes"/>
      <point x="1118.8" y="387.1"/>
      <point x="1183.8666666666668" y="554.6333333333333"/>
      <point x="1183.8666666666668" y="765.5333333333333" type="curve" smooth="yes"/>
      <point x="1183.8666666666668" y="957.6333333333333"/>
      <point x="1127.5" y="1108.2333333333333"/>
      <point x="1023.3666666666667" y="1200.1666666666667" type="curve" smooth="yes"/>
      <point x="947.5666666666666" y="1267.6"/>
      <point x="847.6666666666667" y="1303.5333333333333"/>
      <point x="728.5333333333333" y="1303.5333333333333" type="curve" smooth="yes"/>
      <point x="715.1666666666666" y="1303.5333333333333" type="line"/>
      <point x="715.1666666666666" y="1483.0" type="line"/>
      <point x="564.6666666666666" y="1483.0" type="line"/>
      <point x="564.6666666666666" y="1303.0" type="line"/>
      <point x="552.9333333333333" y="1303.0" type="line" smooth="yes"/>
      <point x="458.66666666666663" y="1303.0"/>
      <point x="379.1" y="1279.7666666666667"/>
      <point x="310.93333333333334" y="1234.2333333333333" type="curve" smooth="yes"/>
      <point x="171.43333333333334" y="1142.2333333333333"/>
      <point x="95.26666666666667" y="969.5333333333333"/>
      <point x="95.26666666666667" y="761.1" type="curve" smooth="yes"/>
      <point x="95.26666666666667" y="641.5999999999999"/>
      <point x="117.93333333333334" y="536.5999999999999"/>
      <point x="160.70000000000002" y="451.6" type="curve" smooth="yes"/>
      <point x="234.96666666666667" y="294.59999999999997"/>
      <point x="373.5333333333333" y="205.76666666666668"/>
      <point x="558.9333333333334" y="205.0" type="curve" smooth="yes"/>
      <point x="564.6666666666666" y="205.0" type="line"/>
    </contour>
    <contour>
      <point x="559.8666666666667" y="334.03333333333336" type="line" smooth="yes"/>
      <point x="363.1666666666667" y="334.8"/>
      <point x="256.6" y="488.79999999999995"/>
      <point x="256.6" y="765.3" type="curve" smooth="yes"/>
      <point x="256.6" y="1022.6333333333333"/>
      <point x="362.73333333333335" y="1173.5"/>
      <point x="555.1" y="1173.5" type="curve" smooth="yes"/>
      <point x="565.4333333333333" y="1173.5" type="line"/>
      <point x="564.6666666666666" y="334.03333333333336" type="line"/>
    </contour>
    <contour>
      <point x="715.1666666666666" y="333.26666666666665" type="line"/>
      <point x="715.1666666666666" y="1173.8" type="line"/>
      <point x="724.8" y="1173.8" type="line" smooth="yes"/>
      <point x="921.8333333333333" y="1173.0333333333333"/>
      <point x="1022.3000000000001" y="1033.8333333333335"/>
      <point x="1022.3000000000001" y="764.6" type="curve" smooth="yes"/>
      <point x="1022.3000000000001" y="489.26666666666665"/>
      <point x="915.3666666666667" y="333.26666666666665"/>
      <point x="718.5" y="333.26666666666665" type="curve" smooth="yes"/>
    </contour>
  </outline>
</glyph>
<glyph name="Psi" format="2">
  <advance width="1270.6666666666665"/>
  <unicode hex="03A8"/>
  <note>
Psi
</note>
  <outline>
    <contour>
      <point x="559.3333333333334" y="0.0" type="line"/>
      <point x="710.3333333333334" y="0.0" type="line"/>
      <point x="710.3333333333334" y="446.6666666666667" type="line"/>
      <point x="721.0" y="446.6666666666667" type="line" smooth="yes"/>
      <point x="1014.0" y="446.6666666666667"/>
      <point x="1142.0" y="617.0"/>
      <point x="1142.0" y="997.0" type="curve" smooth="yes"/>
      <point x="1142.0" y="1462.0" type="line"/>
      <point x="991.9999999999999" y="1462.0" type="line"/>
      <point x="991.9999999999999" y="997.0" type="line" smooth="yes"/>
      <point x="991.9999999999999" y="891.6666666666666"/>
      <point x="980.6666666666666" y="806.6666666666666"/>
      <point x="958.3333333333333" y="746.6666666666667" type="curve" smooth="yes"/>
      <point x="921.3333333333334" y="637.0"/>
      <point x="849.0" y="586.6666666666666"/>
      <point x="718.0" y="586.6666666666666" type="curve" smooth="yes"/>
      <point x="710.3333333333334" y="586.6666666666666" type="line"/>
      <point x="710.3333333333334" y="1462.0" type="line"/>
      <point x="559.3333333333334" y="1462.0" type="line"/>
      <point x="559.3333333333334" y="586.6666666666666" type="line"/>
      <point x="551.3333333333333" y="586.6666666666666" type="line" smooth="yes"/>
      <point x="442.34077058082863" y="586.6666666666666"/>
      <point x="378.35695662440224" y="621.3059176747734"/>
      <point x="337.0" y="691.0" type="curve" smooth="yes"/>
      <point x="296.33333333333337" y="753.6666666666667"/>
      <point x="277.33333333333337" y="855.3333333333333"/>
      <point x="277.33333333333337" y="997.0" type="curve" smooth="yes"/>
      <point x="277.33333333333337" y="1462.0" type="line"/>
      <point x="126.66666666666664" y="1462.0" type="line"/>
      <point x="126.66666666666664" y="997.0" type="line" smooth="yes"/>
      <point x="126.66666666666664" y="617.0"/>
      <point x="255.66666666666666" y="447.3333333333333"/>
      <point x="548.3333333333334" y="446.6666666666667" type="curve" smooth="yes"/>
      <point x="559.3333333333334" y="446.6666666666667" type="line"/>
    </contour>
  </outline>
</glyph>
<glyph name="Omega" format="2">
  <advance width="1130.3333333333335"/>
  <unicode hex="03A9"/>
  <note>
uni03A9
</note>
  <anchor x="565.7333333333333" y="0.0" name="bottom"/>
  <anchor x="271.33333333333337" y="1475.3333333333333" name="topleft"/>
  <outline>
    <contour>
      <point x="56.2" y="0.0" type="line"/>
      <point x="487.70000000000005" y="0.0" type="line"/>
      <point x="487.70000000000005" y="112.60000000000001" type="line"/>
      <point x="329.26666666666665" y="297.29999999999995"/>
      <point x="269.53333333333336" y="493.5333333333333"/>
      <point x="269.53333333333336" y="810.3" type="curve" smooth="yes"/>
      <point x="269.53333333333336" y="1150.0666666666666"/>
      <point x="368.46666666666664" y="1340.9333333333334"/>
      <point x="565.5" y="1340.9333333333334" type="curve" smooth="yes"/>
      <point x="756.9333333333334" y="1340.9333333333334"/>
      <point x="860.0000000000001" y="1152.1333333333334"/>
      <point x="860.0000000000001" y="811.0" type="curve" smooth="yes"/>
      <point x="860.0000000000001" y="482.56666666666666"/>
      <point x="807.5333333333333" y="320.3666666666667"/>
      <point x="644.7" y="112.60000000000001" type="curve"/>
      <point x="644.7" y="0.0" type="line"/>
      <point x="1074.5666666666666" y="0.0" type="line"/>
      <point x="1074.5666666666666" y="143.23333333333335" type="line"/>
      <point x="808.3000000000001" y="143.23333333333335" type="line"/>
      <point x="872.6333333333332" y="217.96666666666667"/>
      <point x="921.9666666666668" y="305.06666666666666"/>
      <point x="957.3666666666667" y="405.53333333333336" type="curve" smooth="yes"/>
      <point x="1000.1666666666667" y="525.7"/>
      <point x="1021.5666666666666" y="664.7666666666667"/>
      <point x="1021.5666666666666" y="821.9666666666667" type="curve" smooth="yes"/>
      <point x="1021.5666666666666" y="1059.4333333333334"/>
      <point x="966.2666666666667" y="1242.2666666666667"/>
      <point x="865.6666666666667" y="1354.8666666666666" type="curve" smooth="yes"/>
      <point x="790.6666666666666" y="1438.0333333333333"/>
      <point x="689.0656666666667" y="1483.7"/>
      <point x="565.5" y="1483.7" type="curve" smooth="yes"/>
      <point x="435.0666666666667" y="1483.7"/>
      <point x="330.2666666666667" y="1436.9"/>
      <point x="254.26666666666668" y="1349.1666666666667" type="curve" smooth="yes"/>
      <point x="158.53333333333333" y="1237.6333333333334"/>
      <point x="108.5" y="1059.5333333333333"/>
      <point x="108.5" y="822.6666666666666" type="curve" smooth="yes"/>
      <point x="108.5" y="665.1"/>
      <point x="132.79999999999998" y="520.2333333333333"/>
      <point x="175.96666666666667" y="396.8666666666667" type="curve" smooth="yes"/>
      <point x="212.6" y="295.76666666666665"/>
      <point x="262.1" y="210.33333333333331"/>
      <point x="323.6333333333333" y="143.23333333333335" type="curve"/>
      <point x="56.2" y="143.23333333333335" type="line"/>
    </contour>
  </outline>
</glyph>
<glyph name="alpha" format="2">
  <advance width="957.6666666666666"/>
  <unicode hex="03B1"/>
  <note>
alpha
</note>
  <anchor x="479.43333333333334" y="1094.8000000000002" name="top"/>
  <outline>
    <contour>
      <point x="410.1" y="-20.0" type="curve" smooth="yes"/>
      <point x="516.4333333333333" y="-20.0"/>
      <point x="606.9666666666666" y="39.733333333333334"/>
      <point x="663.4000000000001" y="152.96666666666667" type="curve"/>
      <point x="671.9333333333333" y="152.96666666666667" type="line"/>
      <point x="690.0" y="29.93333333333333"/>
      <point x="747.5333333333333" y="-20.0"/>
      <point x="847.0333333333333" y="-20.0" type="curve" smooth="yes"/>
      <point x="883.4333333333333" y="-20.0"/>
      <point x="917.6333333333333" y="-11.966666666666665"/>
      <point x="936.0333333333332" y="-0.4999999999999998" type="curve"/>
      <point x="936.0333333333332" y="121.56666666666666" type="line"/>
      <point x="917.2666666666665" y="113.26666666666667"/>
      <point x="896.6666666666667" y="109.50000000000001"/>
      <point x="875.3000000000001" y="109.50000000000001" type="curve" smooth="yes"/>
      <point x="825.2333333333333" y="109.50000000000001"/>
      <point x="801.5666666666667" y="154.9666666666667"/>
      <point x="801.5666666666667" y="252.6666666666667" type="curve" smooth="yes"/>
      <point x="801.5666666666667" y="712.5" type="line" smooth="yes"/>
      <point x="801.5666666666667" y="875.5666666666667"/>
      <point x="819.3333333333334" y="1018.6333333333333"/>
      <point x="846.3000000000001" y="1095.5" type="curve"/>
      <point x="729.9666666666667" y="1095.5" type="line"/>
      <point x="705.8" y="1053.8000000000002"/>
      <point x="685.8000000000001" y="990.5666666666667"/>
      <point x="678.7666666666667" y="939.7666666666667" type="curve"/>
      <point x="670.0666666666666" y="939.7666666666667" type="line"/>
      <point x="609.2666666666667" y="1062.3333333333333"/>
      <point x="528.5333333333333" y="1115.8000000000002"/>
      <point x="421.5666666666666" y="1115.8000000000002" type="curve" smooth="yes"/>
      <point x="210.33333333333334" y="1115.8000000000002"/>
      <point x="88.53333333333333" y="923.3"/>
      <point x="88.53333333333333" y="541.7" type="curve" smooth="yes"/>
      <point x="88.53333333333333" y="165.26666666666668"/>
      <point x="202.8" y="-20.0"/>
    </contour>
    <contour>
      <point x="444.6333333333334" y="112.43333333333334" type="curve" smooth="yes"/>
      <point x="374.5" y="112.43333333333334"/>
      <point x="326.1333333333333" y="145.7"/>
      <point x="294.1" y="216.03333333333333" type="curve" smooth="yes"/>
      <point x="261.53333333333336" y="285.9"/>
      <point x="246.10000000000005" y="393.06666666666666"/>
      <point x="246.10000000000005" y="542.0333333333334" type="curve" smooth="yes"/>
      <point x="246.10000000000005" y="716.7333333333333"/>
      <point x="267.00000000000006" y="840.6"/>
      <point x="314.7" y="910.3666666666667" type="curve" smooth="yes"/>
      <point x="344.96666666666664" y="955.7"/>
      <point x="386.3666666666667" y="978.9"/>
      <point x="439.9" y="978.9" type="curve" smooth="yes"/>
      <point x="498.59999999999997" y="978.9"/>
      <point x="547.0999999999999" y="955.4333333333334"/>
      <point x="579.5" y="904.7333333333333" type="curve" smooth="yes"/>
      <point x="626.3" y="839.9"/>
      <point x="649.1666666666667" y="719.5666666666667"/>
      <point x="649.1666666666667" y="545.6666666666666" type="curve" smooth="yes"/>
      <point x="649.1666666666667" y="519.6" type="line" smooth="yes"/>
      <point x="649.1666666666666" y="372.3666666666667"/>
      <point x="627.7" y="257.09999999999997"/>
      <point x="582.5" y="189.56666666666666" type="curve" smooth="yes"/>
      <point x="550.1" y="138.96666666666667"/>
      <point x="502.6666666666667" y="112.43333333333334"/>
    </contour>
  </outline>
</glyph>
<glyph name="gamma" format="2">
  <advance width="735.0"/>
  <unicode hex="03B3"/>
  <note>
gamma
</note>
  <outline>
    <contour>
      <point x="235.96666666666667" y="-492.0" type="curve"/>
      <point x="387.1333333333334" y="-492.0" type="line"/>
      <point x="388.29999999999995" y="-345.7666666666667"/>
      <point x="416.03333333333336" y="-136.46666666666667"/>
      <point x="463.96666666666664" y="59.36666666666666" type="curve" smooth="yes"/>
      <point x="727.6333333333333" y="1094.8" type="line"/>
      <point x="571.6666666666667" y="1094.8" type="line"/>
      <point x="442.7" y="543.1666666666667" type="line"/>
      <point x="413.3" y="414.6"/>
      <point x="390.9" y="293.53333333333336"/>
      <point x="375.1666666666667" y="167.3" type="curve"/>
      <point x="367.1666666666667" y="167.3" type="line"/>
      <point x="352.93333333333334" y="309.16666666666663"/>
      <point x="334.3666666666667" y="372.1"/>
      <point x="289.66666666666663" y="567.8666666666667" type="curve"/>
      <point x="163.63333333333333" y="1094.8" type="line"/>
      <point x="7.199999999999999" y="1094.8" type="line"/>
      <point x="295.93333333333334" y="-24.566666666666666" type="line"/>
      <point x="263.03333333333336" y="-171.66666666666666"/>
      <point x="235.96666666666667" y="-371.73333333333335"/>
    </contour>
  </outline>
</glyph>
